<?xml version="1.0" standalone="no"?>
<!DOCTYPE svg PUBLIC "-//W3C//DTD SVG 1.1//EN" "http://www.w3.org/Graphics/SVG/1.1/DTD/svg11.dtd">
<svg xmlns="http://www.w3.org/2000/svg" xmlns:xlink="http://www.w3.org/1999/xlink" width="375" zoomAndPan="magnify" viewBox="0 0 375 374.999991" height="375" preserveAspectRatio="xMidYMid meet" version="1.0"><defs><g/></defs><g fill="#000000" fill-opacity="1"><g transform="translate(122.672206, 170.104297)"><g><path d="M 10.6875 5.09375 C 10.6875 5.894531 10.253906 6.296875 9.390625 6.296875 C 8.585938 6.296875 7.890625 5.929688 7.296875 5.203125 C 5.160156 2.460938 4.09375 -0.734375 4.09375 -4.390625 L 4.09375 -40.171875 C 4.09375 -40.503906 4.054688 -40.9375 3.984375 -41.46875 C 3.921875 -42 3.890625 -42.398438 3.890625 -42.671875 C 3.890625 -43.734375 4.390625 -44.265625 5.390625 -44.265625 C 6.253906 -44.265625 6.6875 -43.695312 6.6875 -42.5625 C 6.6875 -42.300781 6.617188 -41.953125 6.484375 -41.515625 C 6.359375 -41.085938 6.296875 -40.707031 6.296875 -40.375 L 6.296875 -4.390625 C 6.296875 -1.597656 6.863281 0.726562 8 2.59375 C 8.195312 2.863281 8.691406 3.210938 9.484375 3.640625 C 10.285156 4.078125 10.6875 4.5625 10.6875 5.09375 Z M 10.6875 5.09375 "/></g></g></g><g fill="#000000" fill-opacity="1"><g transform="translate(130.024408, 170.104297)"><g><path d="M 3 -13.984375 C 3 -16.316406 3.414062 -18.566406 4.25 -20.734375 C 5.082031 -22.898438 5.894531 -25.050781 6.6875 -27.1875 C 6.894531 -27.445312 7.097656 -27.878906 7.296875 -28.484375 C 7.222656 -28.148438 7.1875 -28.613281 7.1875 -29.875 C 7.1875 -31.269531 7.722656 -31.96875 8.796875 -31.96875 C 9.722656 -31.96875 10.1875 -31.304688 10.1875 -29.984375 C 10.1875 -28.910156 9.820312 -27.609375 9.09375 -26.078125 C 7.5625 -22.816406 6.628906 -20.753906 6.296875 -19.890625 C 5.566406 -17.753906 5.203125 -15.453125 5.203125 -12.984375 C 5.203125 -10.117188 6.179688 -7.488281 8.140625 -5.09375 C 10.109375 -2.695312 12.554688 -1.5 15.484375 -1.5 C 18.953125 -1.5 21.71875 -2.460938 23.78125 -4.390625 C 25.84375 -6.328125 26.875 -8.691406 26.875 -11.484375 L 26.875 -28.171875 C 26.875 -28.503906 26.84375 -28.9375 26.78125 -29.46875 C 26.71875 -30.007812 26.6875 -30.410156 26.6875 -30.671875 C 26.6875 -31.742188 27.179688 -32.28125 28.171875 -32.28125 C 29.046875 -32.28125 29.484375 -31.710938 29.484375 -30.578125 C 29.484375 -30.304688 29.414062 -29.953125 29.28125 -29.515625 C 29.144531 -29.085938 29.078125 -28.707031 29.078125 -28.375 L 29.078125 -3.890625 C 29.078125 -3.628906 29.144531 -3.28125 29.28125 -2.84375 C 29.414062 -2.414062 29.484375 -2.035156 29.484375 -1.703125 C 29.484375 -0.566406 29.046875 0 28.171875 0 C 27.179688 0 26.6875 -0.53125 26.6875 -1.59375 C 26.6875 -1.863281 26.71875 -2.066406 26.78125 -2.203125 C 26.78125 -2.265625 26.78125 -2.460938 26.78125 -2.796875 C 26.78125 -3.398438 26.75 -3.703125 26.6875 -3.703125 C 26.476562 -3.703125 26.109375 -3.5 25.578125 -3.09375 C 22.515625 -0.5625 19.117188 0.703125 15.390625 0.703125 C 11.328125 0.703125 8.160156 -0.894531 5.890625 -4.09375 C 3.960938 -6.757812 3 -10.054688 3 -13.984375 Z M 3 -13.984375 "/></g></g></g><g fill="#000000" fill-opacity="1"><g transform="translate(161.554047, 170.104297)"><g><path d="M 38.265625 -39.671875 C 38.535156 -39.203125 38.367188 -38.96875 37.765625 -38.96875 C 37.234375 -38.96875 36.703125 -39.269531 36.171875 -39.875 C 35.304688 -40.738281 34.84375 -41.203125 34.78125 -41.265625 C 34.3125 -41.597656 33.609375 -41.765625 32.671875 -41.765625 L 23.1875 -41.765625 C 22.320312 -41.765625 21.890625 -40.832031 21.890625 -38.96875 L 21.890625 -4.5 C 21.890625 -4.164062 22.035156 -3.726562 22.328125 -3.1875 C 22.628906 -2.65625 22.78125 -2.191406 22.78125 -1.796875 C 22.78125 -0.460938 22.179688 0.203125 20.984375 0.203125 C 19.847656 0.203125 19.28125 -0.5 19.28125 -1.90625 C 19.28125 -2.226562 19.378906 -2.640625 19.578125 -3.140625 C 19.785156 -3.640625 19.890625 -4.054688 19.890625 -4.390625 L 19.890625 -39.078125 C 19.890625 -40.941406 19.320312 -41.875 18.1875 -41.875 L 9.09375 -41.875 C 8.695312 -41.875 8.164062 -41.601562 7.5 -41.0625 C 7.164062 -40.800781 6.53125 -40.003906 5.59375 -38.671875 C 5.257812 -38.203125 4.925781 -38.035156 4.59375 -38.171875 C 4.195312 -38.304688 4.03125 -38.503906 4.09375 -38.765625 C 4.289062 -39.640625 4.757812 -40.972656 5.5 -42.765625 C 5.832031 -43.429688 6.429688 -43.765625 7.296875 -43.765625 L 35.578125 -43.765625 C 35.972656 -43.765625 36.269531 -43.597656 36.46875 -43.265625 C 36.800781 -42.597656 37.398438 -41.398438 38.265625 -39.671875 Z M 38.265625 -39.671875 "/></g></g></g><g fill="#000000" fill-opacity="1"><g transform="translate(195.381534, 170.104297)"><g><path d="M 30.375 -1.90625 C 30.375 -0.632812 29.875 0 28.875 0 C 28.082031 0 27.617188 -0.53125 27.484375 -1.59375 C 27.484375 -1.800781 27.515625 -2.019531 27.578125 -2.25 C 27.648438 -2.476562 27.6875 -2.660156 27.6875 -2.796875 L 27.6875 -4 C 27.6875 -4.53125 27.582031 -4.796875 27.375 -4.796875 C 27.175781 -4.796875 26.78125 -4.597656 26.1875 -4.203125 C 23.65625 -2.597656 21.65625 -1.460938 20.1875 -0.796875 C 17.988281 0.128906 15.691406 0.59375 13.296875 0.59375 C 10.554688 0.59375 8.238281 -0.453125 6.34375 -2.546875 C 4.445312 -4.648438 3.5 -7.097656 3.5 -9.890625 C 3.5 -13.285156 4.664062 -16.285156 7 -18.890625 C 8.457031 -20.484375 11.21875 -22.644531 15.28125 -25.375 C 17.21875 -26.644531 20.453125 -28.078125 24.984375 -29.671875 C 25.242188 -29.742188 25.375 -29.910156 25.375 -30.171875 C 25.375 -30.441406 25.175781 -30.609375 24.78125 -30.671875 C 23.445312 -31.003906 22.179688 -31.171875 20.984375 -31.171875 C 18.921875 -31.171875 16.457031 -30.539062 13.59375 -29.28125 C 12.394531 -28.75 11.257812 -28.046875 10.1875 -27.171875 C 9.125 -26.304688 8.0625 -25.441406 7 -24.578125 C 6.789062 -24.441406 6.554688 -24.410156 6.296875 -24.484375 C 6.023438 -24.546875 5.890625 -24.675781 5.890625 -24.875 C 5.890625 -25.007812 5.925781 -25.175781 6 -25.375 C 6.394531 -26.175781 7.0625 -27.878906 8 -30.484375 C 8.125 -30.816406 8.488281 -31.046875 9.09375 -31.171875 C 9.289062 -31.242188 9.519531 -31.195312 9.78125 -31.03125 C 10.050781 -30.863281 10.253906 -30.78125 10.390625 -30.78125 C 10.921875 -30.78125 11.421875 -30.878906 11.890625 -31.078125 C 14.421875 -32.140625 16.019531 -32.769531 16.6875 -32.96875 C 18.414062 -33.507812 20.179688 -33.78125 21.984375 -33.78125 C 24.453125 -33.78125 26.398438 -33.078125 27.828125 -31.671875 C 29.265625 -30.273438 29.984375 -28.476562 29.984375 -26.28125 L 29.984375 -3.09375 C 29.984375 -2.957031 30.046875 -2.773438 30.171875 -2.546875 C 30.304688 -2.316406 30.375 -2.101562 30.375 -1.90625 Z M 27.6875 -10.5 L 27.6875 -26.078125 C 27.6875 -27.347656 27.148438 -27.984375 26.078125 -27.984375 C 25.816406 -27.984375 25.519531 -27.914062 25.1875 -27.78125 C 22.65625 -26.84375 21.085938 -26.242188 20.484375 -25.984375 C 18.890625 -25.316406 17.390625 -24.484375 15.984375 -23.484375 C 12.453125 -20.953125 10.019531 -18.953125 8.6875 -17.484375 C 6.625 -15.148438 5.59375 -12.617188 5.59375 -9.890625 C 5.59375 -7.691406 6.410156 -5.789062 8.046875 -4.1875 C 9.679688 -2.59375 11.597656 -1.796875 13.796875 -1.796875 C 15.992188 -1.796875 17.988281 -2.265625 19.78125 -3.203125 C 20.113281 -3.328125 22.082031 -4.523438 25.6875 -6.796875 C 27.019531 -7.660156 27.6875 -8.894531 27.6875 -10.5 Z M 27.6875 -10.5 "/></g></g></g><g fill="#000000" fill-opacity="1"><g transform="translate(225.712293, 170.104297)"><g><path d="M 14.796875 -30.78125 C 14.796875 -29.976562 14.359375 -29.578125 13.484375 -29.578125 L 7.59375 -29.578125 C 6.726562 -29.578125 6.296875 -28.945312 6.296875 -27.6875 L 6.296875 -1.796875 C 6.296875 0.460938 7.226562 2.828125 9.09375 5.296875 C 9.363281 5.628906 9.828125 5.894531 10.484375 6.09375 C 11.148438 6.289062 11.519531 6.390625 11.59375 6.390625 C 12.257812 6.722656 12.59375 7.222656 12.59375 7.890625 C 12.59375 8.691406 12.160156 9.09375 11.296875 9.09375 C 10.765625 9.09375 10.03125 8.789062 9.09375 8.1875 C 7.625 7.257812 6.390625 5.660156 5.390625 3.390625 C 4.523438 1.398438 4.09375 -0.328125 4.09375 -1.796875 L 4.09375 -33.578125 C 4.09375 -33.910156 4.054688 -34.34375 3.984375 -34.875 C 3.921875 -35.40625 3.890625 -35.804688 3.890625 -36.078125 C 3.890625 -37.140625 4.390625 -37.671875 5.390625 -37.671875 C 6.253906 -37.671875 6.6875 -37.101562 6.6875 -35.96875 C 6.6875 -35.707031 6.617188 -35.359375 6.484375 -34.921875 C 6.359375 -34.492188 6.296875 -34.113281 6.296875 -33.78125 C 6.296875 -32.375 6.695312 -31.671875 7.5 -31.671875 L 12.09375 -31.671875 C 12.289062 -31.671875 12.519531 -31.703125 12.78125 -31.765625 C 13.050781 -31.835938 13.253906 -31.875 13.390625 -31.875 C 14.328125 -31.875 14.796875 -31.507812 14.796875 -30.78125 Z M 14.796875 -30.78125 "/></g></g></g><g fill="#000000" fill-opacity="1"><g transform="translate(236.0617, 170.104297)"><g><path d="M 14.796875 -30.78125 C 14.796875 -29.976562 14.359375 -29.578125 13.484375 -29.578125 L 7.59375 -29.578125 C 6.726562 -29.578125 6.296875 -28.945312 6.296875 -27.6875 L 6.296875 -1.796875 C 6.296875 0.460938 7.226562 2.828125 9.09375 5.296875 C 9.363281 5.628906 9.828125 5.894531 10.484375 6.09375 C 11.148438 6.289062 11.519531 6.390625 11.59375 6.390625 C 12.257812 6.722656 12.59375 7.222656 12.59375 7.890625 C 12.59375 8.691406 12.160156 9.09375 11.296875 9.09375 C 10.765625 9.09375 10.03125 8.789062 9.09375 8.1875 C 7.625 7.257812 6.390625 5.660156 5.390625 3.390625 C 4.523438 1.398438 4.09375 -0.328125 4.09375 -1.796875 L 4.09375 -33.578125 C 4.09375 -33.910156 4.054688 -34.34375 3.984375 -34.875 C 3.921875 -35.40625 3.890625 -35.804688 3.890625 -36.078125 C 3.890625 -37.140625 4.390625 -37.671875 5.390625 -37.671875 C 6.253906 -37.671875 6.6875 -37.101562 6.6875 -35.96875 C 6.6875 -35.707031 6.617188 -35.359375 6.484375 -34.921875 C 6.359375 -34.492188 6.296875 -34.113281 6.296875 -33.78125 C 6.296875 -32.375 6.695312 -31.671875 7.5 -31.671875 L 12.09375 -31.671875 C 12.289062 -31.671875 12.519531 -31.703125 12.78125 -31.765625 C 13.050781 -31.835938 13.253906 -31.875 13.390625 -31.875 C 14.328125 -31.875 14.796875 -31.507812 14.796875 -30.78125 Z M 14.796875 -30.78125 "/></g></g></g><g fill="#000000" fill-opacity="1"><g transform="translate(246.411106, 170.104297)"><g><path d="M 33.078125 -16.484375 C 33.078125 -12.023438 31.59375 -8.160156 28.625 -4.890625 C 25.664062 -1.628906 22.019531 0 17.6875 0 C 13.550781 0 10.082031 -1.5625 7.28125 -4.6875 C 4.488281 -7.820312 3.09375 -11.519531 3.09375 -15.78125 C 3.09375 -20.3125 4.488281 -24.289062 7.28125 -27.71875 C 10.082031 -31.15625 13.617188 -32.875 17.890625 -32.875 C 22.285156 -32.875 25.914062 -31.257812 28.78125 -28.03125 C 31.644531 -24.800781 33.078125 -20.953125 33.078125 -16.484375 Z M 30.78125 -16.59375 C 30.78125 -20.1875 29.5625 -23.414062 27.125 -26.28125 C 24.695312 -29.144531 21.71875 -30.578125 18.1875 -30.578125 C 14.320312 -30.578125 11.273438 -29.128906 9.046875 -26.234375 C 6.816406 -23.335938 5.703125 -19.890625 5.703125 -15.890625 C 5.703125 -12.023438 6.816406 -8.742188 9.046875 -6.046875 C 11.273438 -3.347656 14.125 -2 17.59375 -2 C 21.320312 -2 24.453125 -3.460938 26.984375 -6.390625 C 29.515625 -9.328125 30.78125 -12.726562 30.78125 -16.59375 Z M 30.78125 -16.59375 "/></g></g></g><g fill="#000000" fill-opacity="1"><g transform="translate(279.439347, 170.104297)"><g><path d="M 33.078125 -16.484375 C 33.078125 -12.023438 31.59375 -8.160156 28.625 -4.890625 C 25.664062 -1.628906 22.019531 0 17.6875 0 C 13.550781 0 10.082031 -1.5625 7.28125 -4.6875 C 4.488281 -7.820312 3.09375 -11.519531 3.09375 -15.78125 C 3.09375 -20.3125 4.488281 -24.289062 7.28125 -27.71875 C 10.082031 -31.15625 13.617188 -32.875 17.890625 -32.875 C 22.285156 -32.875 25.914062 -31.257812 28.78125 -28.03125 C 31.644531 -24.800781 33.078125 -20.953125 33.078125 -16.484375 Z M 30.78125 -16.59375 C 30.78125 -20.1875 29.5625 -23.414062 27.125 -26.28125 C 24.695312 -29.144531 21.71875 -30.578125 18.1875 -30.578125 C 14.320312 -30.578125 11.273438 -29.128906 9.046875 -26.234375 C 6.816406 -23.335938 5.703125 -19.890625 5.703125 -15.890625 C 5.703125 -12.023438 6.816406 -8.742188 9.046875 -6.046875 C 11.273438 -3.347656 14.125 -2 17.59375 -2 C 21.320312 -2 24.453125 -3.460938 26.984375 -6.390625 C 29.515625 -9.328125 30.78125 -12.726562 30.78125 -16.59375 Z M 30.78125 -16.59375 "/></g></g></g><g fill="#000000" fill-opacity="1"><g transform="translate(118.533262, 278.568823)"><g><path d="M 5.320312 -89.066406 C -6.152344 -71.484375 2.5 -52.328125 18.644531 -38.632812 C 28.175781 -30.304688 44.09375 -15.5 38.542969 -4.023438 C 34.5625 4.117188 16.285156 3.5625 13.371094 -8.976562 C 12.445312 -12.953125 12.492188 -21.097656 23.550781 -22.441406 C 25.539062 -22.671875 25.125 -25.679688 23.132812 -25.449219 C 13.835938 -24.152344 10.640625 -16.285156 12.308594 -9.160156 C 15.40625 4.304688 34.980469 6.199219 40.253906 -3.703125 C 47.054688 -16.472656 31.371094 -31.460938 20.773438 -41.179688 C 4.90625 -53.949219 -5.460938 -71.578125 6.0625 -88.558594 C 19.246094 -108.082031 50.847656 -109.792969 43.816406 -90.359375 C 41.871094 -85.226562 38.402344 -82.914062 35.300781 -80.414062 C 33.359375 -78.839844 35.765625 -75.832031 37.753906 -77.453125 C 41.59375 -80.597656 44.878906 -84.714844 46.359375 -89.527344 C 52.929688 -111.828125 19.292969 -110.257812 5.320312 -89.066406 Z M 5.320312 -89.066406 "/></g></g></g><g fill="#000000" fill-opacity="1"><g transform="translate(170.251572, 278.568823)"><g><path d="M 53.761719 -83.28125 C 51.542969 -83.191406 48.257812 -82.820312 43.398438 -82.355469 C 28.777344 -80.96875 12.722656 -80.089844 3.746094 -79.765625 C 3.703125 -79.765625 3.703125 -79.765625 3.65625 -79.765625 C 3.839844 -82.21875 4.117188 -85.964844 4.347656 -88.835938 C 5.460938 -88.835938 6.292969 -89.761719 6.292969 -90.824219 C 6.199219 -93.277344 6.105469 -96.191406 5.96875 -97.765625 C 5.644531 -101.742188 2.5 -101.605469 1.988281 -96.886719 C 1.527344 -91.980469 1.203125 -84.484375 1.019531 -79.765625 C 1.019531 -79.71875 1.019531 -79.71875 1.019531 -79.671875 C -8.234375 -79.347656 -21.238281 -79.164062 -30.582031 -79.535156 C -33.960938 -81.847656 -40.160156 -85.410156 -44.230469 -84.578125 C -47.007812 -83.976562 -48.074219 -80.550781 -44.507812 -78.886719 C -40.992188 -77.265625 -32.710938 -77.082031 -28.824219 -77.035156 C -13.324219 -66.578125 -3.515625 -46.40625 0 -28.039062 C 0 -21.652344 -0.140625 -4.859375 1.15625 0.832031 C 1.988281 4.394531 5.785156 4.210938 5.597656 0.507812 C 5.320312 -5.042969 5.320312 -14.4375 2.3125 -27.667969 C 2.035156 -43.628906 2.589844 -62.738281 3.609375 -78.609375 C 3.65625 -78.609375 3.746094 -78.609375 3.792969 -78.609375 C 18.277344 -79.582031 31.738281 -80.738281 43.445312 -80.644531 C 46.082031 -80.597656 52.328125 -80.460938 54.828125 -79.8125 C 55.199219 -79.347656 55.613281 -79.117188 56.078125 -79.027344 C 57.972656 -78.746094 59.363281 -81.386719 57.417969 -82.589844 C 56.722656 -83.050781 55.566406 -83.328125 53.761719 -83.28125 Z M -43.492188 -81.199219 C -44.648438 -81.664062 -44.507812 -82.078125 -43.722656 -82.3125 C -40.902344 -83.003906 -35.859375 -80.96875 -33.265625 -79.628906 C -35.902344 -79.8125 -40.902344 -80.136719 -43.492188 -81.199219 Z M 0.046875 -36.042969 C -4.996094 -52.238281 -13.601562 -66.535156 -27.160156 -77.035156 C -18.414062 -77.082031 -7.820312 -77.777344 0.972656 -78.425781 C 0.554688 -66.253906 0.183594 -51.265625 0.046875 -36.042969 Z M 0.046875 -36.042969 "/></g></g></g><g fill="#000000" fill-opacity="1"><g transform="translate(184.869829, 278.568823)"><g><path d="M 43.628906 -40.578125 C 42.84375 -38.957031 41.964844 -37.429688 40.902344 -36.042969 C 37.476562 -31.507812 33.128906 -30.445312 29.933594 -31.460938 C 25.214844 -32.988281 24.476562 -39.375 23.503906 -44.1875 C 22.808594 -47.839844 17.953125 -49.320312 16.101562 -43.769531 C 14.992188 -40.53125 13.925781 -36.921875 12.492188 -33.867188 C 9.300781 -27.066406 5.042969 -28.175781 3.609375 -32.710938 C 2.175781 -37.015625 2.867188 -43.308594 4.164062 -47.75 C 4.949219 -50.386719 0.832031 -51.265625 0.417969 -48.582031 C -0.324219 -43.492188 -0.695312 -36.644531 1.0625 -31.832031 C 3.421875 -25.449219 10.039062 -23.78125 15.128906 -32.480469 C 17.027344 -35.71875 18.320312 -39.144531 19.617188 -42.382812 C 19.757812 -42.660156 19.894531 -42.9375 19.988281 -43.214844 C 21.605469 -37.847656 23.828125 -31.09375 29.566406 -29.980469 C 33.21875 -29.148438 37.800781 -30.492188 41.828125 -35.300781 C 43.167969 -36.921875 44.878906 -39.28125 45.15625 -39.789062 C 45.710938 -40.808594 44.140625 -41.546875 43.628906 -40.578125 Z M 43.628906 -40.578125 "/></g></g></g><g fill="#000000" fill-opacity="1"><g transform="translate(229.232896, 278.568823)"><g><path d="M 25.863281 0.09375 C 24.152344 0.460938 22.441406 -1.574219 21.5625 -3.054688 C 16.886719 -10.550781 15.5 -24.890625 15.175781 -33.730469 C 21.191406 -52.792969 23.875 -82.355469 22.394531 -92.074219 C 21.46875 -97.996094 17.953125 -98.828125 15.5 -91.933594 C 11.382812 -80.042969 10.917969 -58.851562 12.167969 -44.972656 C 10.917969 -45.757812 9.714844 -46.175781 8.835938 -46.3125 C -3.238281 -48.351562 -6.800781 -18.601562 3.101562 -17.765625 C 8.46875 -17.304688 12.074219 -25.078125 13.925781 -30.074219 C 14.992188 -22.949219 16.980469 -8.746094 20.035156 -2.222656 C 21.285156 0.371094 23.644531 3.65625 26.464844 3.054688 C 28.453125 2.636719 27.808594 -0.324219 25.863281 0.09375 Z M 17.488281 -91.285156 C 18.832031 -96.421875 20.171875 -96.007812 21.097656 -91.84375 C 23.78125 -79.628906 19.246094 -52.28125 15.082031 -38.773438 C 15.035156 -45.15625 15.082031 -81.664062 17.488281 -91.285156 Z M 3.746094 -20.171875 C -3.007812 -19.894531 0.742188 -44.554688 8.144531 -42.707031 C 10.039062 -42.289062 10.78125 -40.390625 12.492188 -41.269531 C 12.816406 -38.261719 13.046875 -36.597656 13.417969 -33.777344 C 11.9375 -29.703125 8.097656 -20.359375 3.746094 -20.171875 Z M 3.746094 -20.171875 "/></g></g></g><g fill="#000000" fill-opacity="1"><g transform="translate(256.942573, 278.568823)"><g><path d="M 19.292969 -40.808594 C 18.554688 -39.144531 17.71875 -37.523438 16.75 -35.996094 C 11.890625 -28.316406 3.839844 -28.453125 2.636719 -37.152344 C 2.453125 -38.773438 2.40625 -40.4375 2.542969 -42.105469 C 4.070312 -41.085938 5.921875 -42.058594 5.828125 -43.722656 C 5.785156 -44.507812 5.273438 -45.109375 4.625 -45.390625 C 4.070312 -46.269531 3.5625 -48.074219 3.285156 -48.71875 C 2.40625 -50.523438 0.046875 -50.292969 -0.230469 -48.117188 C -0.695312 -44.601562 -0.371094 -40.207031 0.417969 -36.738281 C 2.960938 -26.648438 11.890625 -26.742188 17.628906 -35.441406 C 18.644531 -37.0625 20.3125 -40.023438 20.496094 -40.253906 C 20.867188 -40.992188 19.664062 -41.546875 19.292969 -40.808594 Z M 3.792969 -54.875 C 3.792969 -53.394531 2.867188 -52.191406 1.804688 -52.191406 C 0.695312 -52.191406 -0.230469 -53.394531 -0.230469 -54.875 C -0.230469 -56.308594 0.695312 -57.511719 1.804688 -57.511719 C 2.867188 -57.511719 3.792969 -56.308594 3.792969 -54.875 Z M 3.792969 -54.875 "/></g></g></g><g fill="#000000" fill-opacity="1"><g transform="translate(276.973188, 278.568823)"><g><path d="M 25.679688 -40.902344 C 24.105469 -39.511719 22.117188 -38.585938 20.082031 -38.496094 C 14.992188 -38.171875 10.640625 -42.566406 7.726562 -46.683594 C 7.632812 -47.378906 7.265625 -47.980469 6.664062 -48.257812 C 6.523438 -48.441406 6.0625 -49.273438 5.460938 -49.921875 C 3.886719 -51.589844 0.785156 -48.90625 3.238281 -46.777344 C 0.832031 -44 -0.507812 -39.929688 -0.601562 -36.320312 C -1.019531 -24.058594 13.789062 -25.03125 9.992188 -37.847656 C 9.53125 -39.328125 9.070312 -40.761719 8.558594 -42.242188 C 12.03125 -39.511719 15.683594 -37.476562 20.125 -37.753906 C 22.53125 -37.894531 24.523438 -38.632812 26.558594 -39.464844 C 27.851562 -39.976562 26.648438 -41.828125 25.679688 -40.902344 Z M 1.664062 -36.136719 C 2.128906 -39.699219 3.792969 -42.519531 5.597656 -44.046875 C 7.03125 -41.917969 8.097656 -39.605469 8.746094 -37.476562 C 11.84375 -27.066406 0.417969 -26.464844 1.664062 -36.136719 Z M 1.664062 -36.136719 "/></g></g></g><g fill="#000000" fill-opacity="1"><g transform="translate(59.799723, 234.469617)"><g><path d="M 44.273438 -68.503906 C 50.867188 -76.121094 56.03125 -88.800781 55.671875 -99.636719 C 54.855469 -118.296875 37.167969 -122.796875 21.164062 -114.921875 C 21.0625 -115.894531 20.960938 -117.171875 20.703125 -118.347656 C 20.140625 -120.90625 17.535156 -120.957031 17.332031 -117.683594 C 17.28125 -117.070312 17.175781 -113.644531 17.175781 -112.625 C -6.542969 -97.441406 -4.601562 -62.472656 16.71875 -56.695312 C 16.664062 -48.105469 16.664062 -42.992188 16.460938 -36.042969 C 5.011719 -27.300781 3.578125 -12.21875 10.839844 -3.578125 C 22.546875 10.277344 48.3125 0 60.476562 -13.546875 C 80.875 -36.246094 72.59375 -70.652344 44.273438 -68.503906 Z M 17.125 -111.039062 C 17.023438 -102.347656 17.433594 -101.121094 15.542969 -98.511719 C 14.570312 -97.183594 15.335938 -95.34375 17.023438 -95.140625 C 16.921875 -84.964844 16.921875 -76.992188 16.769531 -59.863281 C -2.351562 -63.1875 -5.519531 -96.621094 17.125 -111.039062 Z M 58.585938 -15.234375 C 47.699219 -2.148438 23.617188 8.640625 12.066406 -3.886719 C 4.804688 -11.757812 5.675781 -26.125 16.410156 -34.660156 C 15.898438 -22.390625 15.03125 -18.199219 15.132812 -17.433594 C 15.335938 -15.285156 18.660156 -15.386719 18.402344 -17.894531 C 17.84375 -23.773438 17.636719 -29.703125 17.535156 -35.582031 C 29.855469 -44.324219 52.402344 -41.816406 56.285156 -41.972656 C 58.175781 -42.074219 58.074219 -44.886719 56.183594 -44.835938 C 41.871094 -44.222656 27.300781 -43.554688 17.535156 -36.859375 C 17.484375 -43.503906 17.6875 -48.667969 17.84375 -56.386719 C 19.785156 -55.929688 23.773438 -55.367188 24.589844 -55.417969 C 27.402344 -55.671875 26.992188 -59.914062 24.179688 -59.660156 C 22.085938 -59.457031 19.988281 -59.457031 17.894531 -59.710938 C 17.945312 -60.886719 18.148438 -74.382812 19.019531 -96.058594 C 21.726562 -99.742188 21.523438 -108.738281 21.265625 -113.339844 C 34.660156 -119.679688 52.296875 -117.480469 52.296875 -99.585938 C 52.246094 -85.578125 42.023438 -69.066406 35.273438 -66.765625 C 32.820312 -65.949219 33.640625 -61.910156 36.960938 -62.878906 C 68.554688 -72.132812 77.195312 -37.21875 58.585938 -15.234375 Z M 58.585938 -15.234375 "/></g></g></g></svg>