<?xml version="1.0" encoding="UTF-8"?>
<svg id="a" data-name="Layer 1" xmlns="http://www.w3.org/2000/svg" width="1536.05" height="781.27" viewBox="0 0 1536.05 781.27">
  <path d="M958.85,781.27q-.49,0-15.85-.19c-3.95-.05-7.9-.37-11.77-.96l-16.73-2.52c-1.33-.2-2.63-.43-3.92-.68l-24.72-4.93c-25.06-5-50.32-13.52-79.48-26.82,0,0-.52-.24-1.38-.63-18.61,4.39-37.94,6.54-58.77,6.54-2.32,0-4.68-.03-6.99-.08-15.07-.35-35.23-1.38-57.43-6.29l-22.08-4.88c-1.05-.23-2.09-.48-3.13-.75l-44.25-11.49c-21.81-5.66-42.23-12.83-60.25-19.15-5.36-1.88-10.89-3.82-16.38-5.7-27.44-9.36-52.14-20.64-73.94-30.58-42.27-19.29-49.82-22.73-51.43-23.47l-19.68-9.12c-1.15-.53-2.3-1.09-3.42-1.67q-32.68-16.85-33.09-17.07l-20.43-10.84-36.82-19.42-33.12-16.67c-.32-.16-1.38-.71-1.51-.78-23.02-12.16-25.86-13.66-26.56-14.04,0,0-21.01-11.42-21.1-11.47l-16-8.79s-42.76-23.42-42.8-23.44c-.78-.43-1.55-.87-2.32-1.32l-5.83-3.44c-6.59-2.85-12.79-6.53-18.51-10.96-3.53-2.74-10.19-6.75-16.63-10.62-4.13-2.49-8.8-5.3-13.48-8.27l-7.11-4.51c-2.87-1.83-6.06-3.86-7.87-4.87l-5.25-2.93c-2.65-1.48-5.29-3.14-7.81-4.92l-20.44-14.46c-18.57-13.14-31.73-27.97-40.2-45.32-15.39-31.5-13.56-67.35,5.01-98.35,15.49-25.85,43.82-41.9,73.95-41.9,5.93,0,11.87.62,17.68,1.83q27.21,5.69,27.82,5.83l13.51,3.06c11.48,2.6,26.67,6.4,42.41,12.76l3.4,1.37c9.08,3.65,19.41,7.8,30.8,13.85l26.73,14.19c-.55-.82-1.09-1.64-1.61-2.47-11.38-18.04-14.45-37.67-15.02-50.96-.59-13.72.92-34.07,11.46-53.07,10.22-18.44,26.57-32.28,46.6-39.63l1.28-.68c12.47-6.67,26.52-10.19,40.66-10.19,2.67,0,5.38.13,8.05.38l36.68,3.45c13.07,1.23,23.82,4.17,30.94,6.12,1.51.41,3.53.97,4.39,1.16,4.45.78,8.85,1.61,13.22,2.49l-.58-1.51c-5.96-15.42-24.1-62.38-2.13-116.54,12.15-29.95,39.68-50.42,71.85-53.43l11.25-1.05c3.04-.29,6.14-.43,9.2-.43,38.62,0,72.76,22.33,89.09,58.29l13.89,30.58,8.62,16.95c10.7,21.04,22.5,43.24,36.2,63.05l24.48,35.39,17.55,24.94,6.69,8.48,19.01,22.18,25.37,28.74c.67.76,1.34,1.55,2,2.35l2.28,2.78c.24.17.49.35.73.53l20.56,15.01c2.95,2.15,5.61,4.21,7.74,5.86.84.65,1.84,1.42,2.72,2.09,7.49,2.96,17.77,7.28,29.05,14.62,20.98-9.71,42.33-10.66,49.8-10.66.16,0,.31,0,.47,0,10.13-3.82,20.88-5.83,31.78-5.83,2.44,0,4.88.1,7.31.31,5.7-2.12,11.66-3.64,17.79-4.53l.88-.14c4.06-.64,11.68-1.85,20.94-1.85,11.09,0,21.85,1.72,31.99,5.12.17.06.34.11.51.17,4.01-.52,8.07-.78,12.14-.78,12.06,0,24.06,2.29,35.4,6.71,7.61-2.08,15.48-3.13,23.51-3.13.8,0,1.59.01,2.38.03,5.26-2.89,11.2-5.65,17.87-7.92l7.79-2.65c8.51-2.9,17.39-4.54,26.43-4.91,15.34-7.72,34.53-15.96,57.82-19.48l2.98-.45,1.08-1.07c4.67-5.07,26.25-28.52,26.31-28.59l27.78-29.81c11.64-12.49,30.03-29.81,58.09-40.1,25.58-26.1,30.81-31.43,32.09-32.74h0s24.37-24.47,24.37-24.47c.44-.45.9-.89,1.35-1.33.06-.06,16.33-15.62,16.33-15.62,14.64-14.01,41.04-30,71.23-32.86,2.69-.25,5.42-.38,8.11-.38,22.55,0,43.88,8.65,60.06,24.36l7.36,7.15c11.9,11.56,26.16,31.2,28.86,60.47.78,4.51,1.21,9.08,1.26,13.65l.08,6.06c.2,15.63-3.86,31.04-11.74,44.55l-7.03,12.04c-1.59,2.74-3.4,5.47-5.34,8.07l-11.73,15.73c-2.43,3.32-31.01,42.43-31.1,42.55l-22.63,30.54-38.04,51.66c-1.28,1.74-2.66,3.47-4.09,5.13-34.85,40.47-39.42,45.77-40.3,46.78l-32.25,36.56-23.97,27.36-1.79,2.06c-7.63,8.76-18.11,20.77-33.05,31.85l-39.09,28.99c-2.44,1.81-4.99,3.49-7.57,5.02l-19.22,11.35c-11.03,6.51-21.93,12.22-32.99,17.22,2.45,4.31,4.63,8.77,6.54,13.37,7.76,18.69,8.7,39.62,2.63,58.92-12.75,40.58-49.93,67.85-92.51,67.85-1.88,0-3.77-.05-5.67-.16-27.8,17.1-79.01,30.89-101.56,34.24l-9.76,1.72c-4.94.87-9.97,1.31-14.96,1.31Z" style="fill: #fff;"/>
</svg>