<?xml version="1.0" encoding="UTF-8"?>
<svg id="a" data-name="Layer 1" xmlns="http://www.w3.org/2000/svg" viewBox="0 0 1584.99 994.18">
  <path d="M359.22,994.18c-6.92,0-13.89-.51-20.7-1.51-11.06-1.62-21.93-4.21-32.43-7.73-10.62-1.93-20.94-5.02-30.82-9.26,0,0-4.42-1.88-4.45-1.9-2.26-.97-4.38-1.94-6.46-2.95h0c-17.64-8.6-18.52-9.04-19.73-9.67l-18.76-9.7c-2.58-1.33-5.26-2.82-7.87-4.39l-8.34-5.01-11.6-6.54-6.66-3.29c-4.95-2.45-9.72-5.15-14.25-8.08l-2.33-1.5c-2.51-1.34-3.12-1.68-3.83-2.09-12.93-7.32-13.42-7.62-14.9-8.53l-4.31-2.65c-8.57-3.77-16.69-8.33-24.26-13.62l-12.6-6.38c-4.12-2.09-8.12-4.37-11.96-6.8-.05-.03-.1-.06-.15-.1-4.66-2.97-7-4.47-8.38-5.38-30.78-11.73-56.52-33.71-72.93-62.44l-2.72-4.75C6.01,787.59-.47,762.2.03,736.49c.58-30.3,10.73-59.72,28.71-83.62,3.67-7.27,7.84-14.2,12.5-20.75,1.61-2.79,3.32-5.53,5.12-8.2,1.18-2.54,2.44-5.03,3.76-7.49,7.6-14.07,8.07-14.94,8.71-16.04,0,0,7.51-13.13,7.6-13.28l6.86-11.82c6.21-10.76,13.79-20.65,22.59-29.5,19.78-24.07,45.49-40.95,74.85-49.06,9.47-2.62,19.53-4.29,29.5-4.94l5.67-10.1c17.64-31.4,42.82-56.55,74.85-74.73,5.14-2.92,10.41-5.51,15.97-7.85,16.41-8.63,31.62-13.25,43.53-15.94l.5-.67,8.62-12.84c2.21-3.31,4.61-6.58,7.13-9.72,8.21-17.52,19.87-33.11,34.44-46,6.71-7.13,14.1-13.51,22.1-19.09,13.81-15.53,27.65-24.8,34.43-29.15l11.11-7.67c.35-.24.69-.48,1.04-.71l7.01-4.68,10.36-7.17,8.34-6.16c.26-.19.53-.39.79-.58l11.37-8.19c4.45-4.04,9.18-7.83,14.1-11.27,0,0,22.38-15.67,22.48-15.74l12.06-8.37c3.69-2.56,7.18-4.83,10.4-6.9l.65-.42c.44-.28.88-.56,1.32-.85l11.62-8.22c1.84-1.3,3.75-2.59,5.69-3.83.03-.02,19.2-12.24,19.2-12.24,0,0,7.87-5.33,7.93-5.37,1.77-1.19,3.6-2.37,5.43-3.49.05-.03.1-.06.14-.09,20.72-12.63,20.86-12.71,21.78-13.24.07-.04,19.7-11.42,19.77-11.46,2.54-1.46,5.13-2.85,7.76-4.16.79-.54,1.67-1.14,2.66-1.82,2.65-1.81,5.4-3.56,8.19-5.19l14.68-8.65c1.91-1.18,4.59-2.82,7.87-4.67,9.59-6.6,19.87-11.96,30.72-16.03.26-.16.51-.31.77-.47,21.88-13.23,22.03-13.32,22.79-13.76.11-.06,15.9-9.19,15.9-9.19.43-.25.85-.49,1.29-.73,0,0,22.84-12.67,22.9-12.7,1.72-.95,3.46-1.86,5.19-2.73l3.16-1.58c3.09-1.93,6.79-4.11,11.16-6.4l6.96-3.65,13.06-7.32c.3-.17.61-.34.92-.51l8.53-4.65c25.6-15.54,52.79-23.42,80.87-23.42,1.46,0,2.92.02,4.39.07,5.38-.55,10.79-.82,16.18-.82,58.4,0,110.61,31.32,136.25,81.73,6.86,13.48,11.5,27.85,13.89,42.55,2.58-2.96,5.28-5.82,8.09-8.55l5.37-5.23,9.95-10.51c.28-.29.56-.58.84-.87l3.84-3.95,3.36-3.63c4.48-6.22,9.45-12.07,14.86-17.48l10.12-12.14c9.97-11.97,20.83-22.04,33.05-30.62,21.49-17.35,47.23-27.97,74.85-30.81,6.94-.71,15.2-1.12,22.65-1.12,9.24,0,17.7.57,25.88,1.75,12.04,1.72,23.88,5.01,35.13,9.75,41.22,17.38,71.69,51.92,83.59,94.75,7.95,28.59,6.71,58.75-3.05,86.71,0,0,4.32.61,4.38.61,1.83.26,3.57.54,5.32.86l28.21,5.09c7.11,1.21,21.37,3.72,38.24,10.52,22.97,9.26,42.72,23.21,58.72,41.45,36.99,42.05,45.87,102.48,22.61,154-23.39,51.83-74.88,85.34-131.17,85.35q-.95,0-12.26-.25c-.25,0-.49-.01-.74-.02l-21.79-.66-29.68,1.36s-21.02,1.7-21.23,1.72c0,0-55.83,4.11-56.01,4.12l-8.49.57-28.52,3.83s-20.56,3.06-20.74,3.09l-14.74,2.1s-15.38,2.58-15.62,2.62l-6.46,1.03-7.43,1.84c-12.59,3.67-13.73,3.99-15.22,4.37l-9.05,2.34c-1.9.5-3.85.96-5.78,1.38l-1.68.36c-7.62,2.72-19.19,6.38-33.69,8.5,9.92,1.26,19.78,3.57,29.27,6.86,6.85,1.79,13.51,4.08,19.98,6.85,0,0,3.29.26,3.4.27l21.47,1.77h17.23c7.91,0,15.86.64,23.75,1.91,13.96.76,27.69,3.54,40.77,8.23,0,0,9.64.02,9.82.03,0,0,25.76.23,26,.23l43.92.77c1,.02,2,.04,3.01.08,5.29-.51,10.64-.78,15.95-.78,30.05,0,59.93,8.2,86.4,23.72,38.27,22.44,64.22,62.12,69.43,106.16,5.22,44.04-10.75,88.69-42.71,119.44-23.74,22.83-53.6,37-86.77,41.26-3.71.83-7.45,1.51-11.21,2.05-2.57.65-5.14,1.22-7.67,1.72l-.83.16c-12.98,4.63-23.8,6.79-30.24,8.07l-1.95.4c-15.55,3.41-16.19,3.54-17.54,3.8l-6.03,1.15c-2.74.53-5.53.98-8.53,1.37-.15.02-.3.04-.45.06-12.28,1.55-13.19,1.66-14.43,1.78l-15.51,1.59c-13.72,1.78-14.17,1.82-15.58,1.96-.05,0-11.82,1.15-11.82,1.15-6.04.88-7.08,1-8.34,1.14,0,0-26.64,2.89-26.84,2.91-9.27.94-9.56.96-10.41,1.03-.18.02-7.08.55-7.08.55-15.37,3.27-28.04,3.77-35.03,4-46.67,5.17-49.78,5.52-51.26,5.65h0c-12.84,1.12-14.25,1.24-15.46,1.31l-23.14,1.54-6.82.52-29.1,2.85c-.35.03-.7.07-1.06.1,0,0-25.69,2.19-25.76,2.19-.47.04-.94.08-1.41.11-8.05,1.41-16.24,2.13-24.43,2.14h-.11c-2.84,0-5.69-.09-8.55-.26l-11.86.75s-8.06.57-8.27.58l-31.48,1.98c-2.97.19-5.99.28-8.97.28h-9.77s-1.69.02-1.69.02l-4.76.38c-2.26.18-4.57.31-6.87.39-11.8.38-12.13.39-13.09.4-.14,0-11.71.1-11.71.1l-1.56.14c-.48.04-.97.09-1.46.13-7.84,1.26-15.81,1.9-23.77,1.9-4.87,0-9.75-.24-14.62-.71-7.49.56-7.78.58-8.57.62-.04,0-8.64.47-8.68.47-2.26.12-4.55.19-6.8.2,0,0-12.2.07-12.36.07-.19,0-33.94-.22-33.94-.22h-16.48s-17.69.21-17.69.21c-.34,0-.68,0-1.02,0-7.79,0-19.26-.26-32.89-2.32l-10.8-.63s-7.27-.33-7.33-.33c-2.77-.13-5.58-.35-8.35-.64-.08,0-11.13-1.2-11.19-1.21-1.97-.22-3.96-.48-5.92-.78-25.47-3.87-25.74-3.91-27.24-4.19-.07-.01-14.88-2.73-14.88-2.73-7.75-.95-23.04-2.93-41.13-9.51l-20.13-7.3c-14.5-5.26-26.68-11.45-36.95-17.17-1.88-.82-3.75-1.67-5.59-2.55,0,0-1.2,2.24-1.23,2.29-1.14,2.12-2.34,4.21-3.56,6.23l-7.35,12.15s-5.04,9.66-5.1,9.79c-4.27,12.37-9.96,24.04-17.25,35.39l-4.83,7.52c-26.32,41.01-71.14,65.5-119.88,65.5Z" style="fill: #fff;"/>
</svg>