<?xml version="1.0" encoding="UTF-8"?>
<svg id="a" data-name="Layer 1" xmlns="http://www.w3.org/2000/svg" viewBox="0 0 444.09 51.63" fill="#262626">
  <path d="M0,49.97c2.16-.65,2.88-2.3,2.88-8.21V9.65C2.88,3.74,2.16,2.09,0,1.44v-.94h14.62c14.91,0,19.66,7.2,19.66,14.19,0,9.58-6.98,16.27-20.38,16.27h-5.11v10.8c0,5.9.65,7.56,2.88,8.21v.94H0v-.94ZM27.94,16.35c0-7.7-4.54-14.76-16.13-14.76-1.01,0-2.16.07-3.02.14v28.15h4.97c9.22,0,14.19-5.04,14.19-13.54Z"/>
  <path d="M77.33,39.89c-4.18-9.94-4.75-14.98-13.39-14.98h-4.61v16.85c0,5.9.65,7.56,2.88,8.21v.94h-11.67v-.94c2.16-.65,2.88-2.3,2.88-8.21V9.65c0-5.9-.72-7.56-2.88-8.21v-.94h14.19c14.62,0,18.94,4.82,18.94,11.23,0,6.77-4.9,11.88-14.26,12.96,8.86,1.15,10.22,5.54,13.68,14.4,3.46,8.64,4.9,11.02,7.34,11.02.43,0,.79,0,1.15-.07v.86c-1.08.36-2.95.5-4.39.5-5.54,0-6.7-4.03-9.87-11.52ZM77.55,13.39c0-6.41-4.18-11.81-14.83-11.81l-3.38.14v22.11h6.05c8.28,0,12.17-4.32,12.17-10.44Z"/>
  <path d="M105.41,49.97c2.16-.65,2.88-2.3,2.88-8.21V9.65c0-5.9-.72-7.56-2.88-8.21v-.94h11.67v.94c-2.23.65-2.88,2.3-2.88,8.21v32.11c0,5.9.65,7.56,2.88,8.21v.94h-11.67v-.94Z"/>
  <path d="M135.29,26.71c0-15.34,11.88-26.71,28.8-26.71,6.19,0,13.39,1.8,16.2,3.6l.29,8.57-.72.14c-2.81-6.55-9.65-10.95-18.22-10.95-11.45,0-20.31,7.63-20.31,22.32-.07,13.54,8.14,26.5,23.11,26.5,7.78,0,13.83-4.1,16.63-11.88l.79.07-1.15,9.36c-3.38,1.87-10.23,3.89-18.29,3.89-16.56,0-27.15-9.22-27.15-24.91Z"/>
  <path d="M199.37,50.91v-.94c2.16-.65,2.88-2.3,2.88-8.21V9.65c0-5.9-.72-7.56-2.88-8.21v-.94h33.48l.79,9.36-.79.22c-2.52-6.34-6.77-8.5-14.11-8.5h-10.58v21.82h9.22c8.21,0,10.3-1.66,11.16-4.9h.86v10.87h-.86c-.86-3.24-2.95-4.9-11.16-4.9h-9.22v22.11c0,2.09,1.15,3.24,3.24,3.24h9.36c6.91,0,11.3-1.94,13.9-8.64l.79.14-.58,9.58h-35.5Z"/>
  <path d="M278.49,50.91v-.94c2.16-.65,2.88-2.3,2.88-8.21V9.65c0-5.9-.72-7.56-2.88-8.21v-.94h11.67v.94c-2.23.65-2.88,2.3-2.88,8.21v36.87c0,2.09,1.15,3.24,3.24,3.24h8.57c6.91,0,10.08-1.73,12.6-7.13l.79.14-.5,8.14h-33.48Z"/>
  <path d="M328.39,49.97c2.16-.65,2.88-2.3,2.88-8.21V9.65c0-5.9-.72-7.56-2.88-8.21v-.94h11.67v.94c-2.23.65-2.88,2.3-2.88,8.21v32.11c0,5.9.65,7.56,2.88,8.21v.94h-11.67v-.94Z"/>
  <path d="M357.76,46.52l-.36-10.01.79-.14c2.81,7.56,8.28,13.97,18.29,13.97,5.76,0,10.73-3.74,10.73-9.58,0-7.2-8.86-10.51-14.91-12.96-8.5-3.38-13.9-6.41-13.9-14.04,0-8.42,6.98-13.75,17.57-13.75,6.55,0,11.23,1.8,14.04,3.31l.29,8.35-.72.22c-2.67-6.26-7.71-10.73-15.91-10.73-5.83,0-10.8,3.38-10.8,9.5,0,6.77,7.42,9.5,13.54,12.02,7.99,3.17,15.48,6.34,15.48,14.47,0,9-8.35,14.47-16.85,14.47-7.56,0-13.9-2.66-17.28-5.11Z"/>
  <path d="M419.32,49.97c2.23-.65,2.88-2.3,2.88-8.21V1.66h-3.53c-6.48,0-9.29,1.73-11.74,6.91l-.79-.14.43-7.92h37.08l.43,7.92-.79.14c-2.45-5.18-5.26-6.91-11.74-6.91h-3.38v40.11c0,5.9.65,7.56,2.88,8.21v.94h-11.74v-.94Z"/>
</svg>