<?xml version="1.0" standalone="no"?>
<svg version="1.0" xmlns="http://www.w3.org/2000/svg" viewBox="0 0 1613.000000 1066.000000"
 preserveAspectRatio="xMidYMid meet">
<metadata>
Created by potrace 1.16, written by Peter Selinger 2001-2019
</metadata>
<g transform="translate(0.000000,1066.000000) scale(0.100000,-0.100000)"
fill="#000" stroke="none" fill-opacity=".7">
<path d="M7707 10383 c-1 0 -25 -3 -54 -6 -29 -3 -57 -8 -63 -12 -6 -3 -43 -1
-82 5 -41 6 -74 7 -77 2 -3 -5 -37 -12 -75 -16 -83 -8 -236 -47 -302 -76 -73
-33 -87 -38 -114 -46 -48 -13 -274 -125 -322 -159 -26 -19 -54 -35 -61 -35 -6
0 -33 -15 -58 -33 -63 -44 -219 -177 -219 -186 0 -4 -37 -45 -81 -92 -169
-175 -270 -292 -294 -342 -14 -29 -55 -92 -90 -142 -36 -49 -70 -101 -77 -115
-6 -14 -21 -35 -32 -47 -18 -22 -58 -91 -109 -193 -12 -24 -28 -52 -36 -61 -7
-9 -26 -44 -40 -78 -15 -33 -42 -81 -59 -105 -18 -24 -32 -53 -32 -63 0 -10
-9 -38 -20 -62 -11 -24 -20 -49 -20 -57 0 -8 -18 -44 -41 -82 -24 -40 -55 -77
-77 -92 -43 -28 -182 -166 -182 -180 0 -6 -4 -10 -9 -10 -5 0 -11 15 -14 33
-3 23 1 38 16 55 11 12 29 22 39 22 19 0 25 25 8 35 -5 3 -10 -1 -10 -9 0 -11
-10 -16 -32 -17 -18 0 -46 -6 -63 -12 -37 -15 -135 -76 -135 -85 0 -4 -17 -25
-37 -47 -20 -22 -55 -65 -78 -96 -39 -53 -128 -225 -205 -394 -60 -133 -73
-160 -100 -200 -15 -22 -46 -91 -69 -153 -22 -63 -41 -121 -41 -130 -1 -9 -8
-35 -16 -57 -9 -22 -20 -58 -24 -80 -5 -22 -14 -60 -20 -85 -24 -99 -31 -162
-34 -305 -3 -170 4 -233 44 -382 6 -21 12 -50 14 -65 3 -15 7 -31 10 -36 7
-12 17 -58 27 -131 5 -35 13 -68 18 -75 5 -6 23 -47 41 -90 17 -44 44 -105 61
-135 16 -31 29 -59 29 -63 0 -5 -6 -8 -13 -8 -8 0 -45 -34 -83 -77 -38 -42
-77 -84 -87 -93 -24 -23 -269 -143 -344 -168 -35 -12 -63 -19 -63 -17 0 2 24
17 53 34 29 17 62 40 72 51 10 11 22 20 27 20 5 0 16 6 24 13 7 6 46 39 86 72
84 69 174 170 212 237 14 26 23 54 20 62 -10 27 -44 18 -62 -15 -29 -52 -99
-141 -159 -201 -31 -32 -61 -58 -65 -58 -5 0 -23 -15 -41 -33 -17 -18 -45 -40
-62 -49 -90 -46 -116 -58 -175 -78 -36 -12 -97 -25 -135 -29 -39 -5 -97 -5
-130 -1 -76 9 -151 53 -223 129 -35 38 -60 77 -77 121 -13 36 -23 78 -21 93 2
15 5 29 7 31 2 1 20 12 39 23 25 15 41 18 57 12 12 -4 28 -19 35 -33 7 -14 39
-47 70 -73 60 -52 129 -80 212 -87 28 -3 73 0 100 6 49 10 148 62 192 100 11
10 26 18 32 18 7 0 51 37 98 82 47 46 100 107 118 137 70 119 86 153 90 186 3
27 0 38 -16 49 -11 8 -26 12 -33 10 -16 -6 -35 -48 -35 -77 0 -12 -9 -33 -20
-47 -11 -14 -20 -30 -20 -35 0 -6 -13 -26 -28 -45 -16 -19 -38 -51 -50 -71
-12 -19 -37 -49 -56 -67 -19 -17 -38 -38 -43 -46 -9 -17 -101 -72 -192 -116
-50 -24 -77 -30 -127 -30 -120 0 -202 57 -264 184 -14 28 -33 52 -43 54 -10 2
-33 -10 -53 -27 -19 -17 -45 -31 -58 -31 -13 0 -33 -8 -44 -17 -11 -10 -25
-39 -32 -66 -7 -26 -13 -70 -13 -98 0 -42 5 -56 30 -82 16 -18 41 -51 56 -74
15 -24 51 -58 82 -78 31 -19 59 -35 63 -35 4 0 24 -11 44 -25 20 -14 57 -36
82 -49 33 -18 68 -25 141 -30 110 -8 225 6 300 36 54 22 174 79 215 102 14 7
41 22 61 31 69 34 114 71 180 150 37 44 73 80 79 80 6 0 37 -47 67 -105 31
-58 68 -122 82 -144 14 -21 37 -58 51 -81 14 -23 43 -64 65 -91 65 -78 235
-248 295 -293 30 -22 69 -51 85 -65 45 -36 252 -123 320 -135 33 -5 106 -13
163 -17 85 -5 114 -4 160 11 62 19 128 50 153 72 17 14 49 8 49 -9 0 -13 -56
-83 -116 -142 -96 -97 -235 -211 -287 -236 -90 -44 -170 -69 -204 -63 -30 5
-33 3 -33 -19 0 -14 14 -62 30 -108 27 -74 37 -120 26 -120 -2 0 -24 9 -49 20
-25 11 -59 31 -74 43 -15 13 -59 36 -98 51 -38 15 -83 35 -100 42 -16 8 -86
23 -155 33 -97 15 -168 18 -320 16 -114 -2 -207 -8 -225 -15 -16 -6 -65 -16
-109 -21 -68 -9 -100 -20 -215 -78 -75 -37 -154 -78 -176 -90 -60 -34 -225
-160 -225 -172 0 -5 -19 -38 -43 -73 -24 -35 -67 -112 -97 -171 l-53 -108 11
-121 c25 -261 27 -269 70 -314 6 -7 12 -21 12 -31 0 -19 30 -51 47 -51 6 0 16
-6 22 -14 9 -10 9 -20 0 -38 -9 -22 -7 -31 23 -71 18 -25 42 -49 52 -53 10 -3
36 -24 56 -45 20 -22 46 -39 57 -39 11 0 46 -9 79 -20 32 -12 97 -25 144 -29
63 -7 99 -6 136 4 45 11 109 37 192 77 12 6 22 15 22 20 0 4 6 8 13 8 7 0 34
19 61 43 44 39 51 51 55 102 1 6 14 24 30 40 47 51 54 71 46 141 -5 53 -14 76
-55 137 -26 40 -66 89 -88 109 -22 20 -63 47 -91 59 -28 13 -51 27 -51 30 0
14 41 41 91 60 48 18 78 20 254 20 110 0 229 -3 265 -7 69 -8 146 -33 248 -83
34 -17 66 -31 70 -31 4 0 19 -11 34 -25 15 -14 49 -37 75 -50 47 -25 47 -26
44 -73 -1 -26 -6 -74 -11 -107 -5 -33 -17 -134 -26 -225 -22 -228 -40 -386
-59 -535 -2 -16 -7 -70 -11 -120 -3 -49 -11 -101 -17 -114 -8 -16 -27 -29 -57
-38 -25 -7 -81 -24 -125 -37 -150 -45 -220 -65 -267 -76 -25 -5 -57 -14 -70
-19 -13 -5 -59 -17 -103 -26 -44 -9 -107 -23 -140 -31 -33 -8 -94 -19 -135
-24 -41 -6 -82 -12 -90 -15 -25 -7 -70 -13 -159 -20 -47 -4 -98 -12 -115 -17
-17 -5 -74 -17 -126 -28 -52 -11 -131 -31 -175 -45 -44 -13 -87 -25 -97 -25
-9 0 -40 -11 -70 -25 -29 -14 -61 -25 -72 -25 -10 0 -62 -21 -115 -46 -53 -25
-103 -49 -111 -54 -8 -5 -42 -23 -75 -41 -33 -17 -67 -37 -75 -44 -8 -7 -45
-29 -82 -49 -37 -20 -81 -36 -97 -36 -16 0 -32 -4 -35 -9 -14 -22 -147 -27
-907 -31 -184 -1 -302 3 -330 10 -97 25 -196 53 -234 66 -30 10 -52 29 -83 71
-23 32 -57 80 -75 108 -27 43 -32 58 -31 110 0 36 8 74 19 95 26 51 118 163
167 203 60 49 173 88 368 128 146 29 278 49 331 49 30 0 53 -6 64 -16 10 -10
12 -20 7 -28 -5 -6 -14 -27 -21 -46 -9 -27 -9 -52 0 -110 7 -41 18 -82 26 -92
8 -9 29 -22 46 -28 18 -7 55 -22 82 -35 63 -28 102 -40 188 -56 55 -10 85 -10
160 0 50 7 125 23 166 37 40 13 79 24 86 24 21 0 71 47 105 96 24 36 30 56 30
98 0 29 5 78 12 107 20 89 16 129 -20 202 -18 37 -37 67 -42 67 -5 0 -26 18
-47 39 -39 40 -130 94 -253 149 -81 37 -252 76 -403 93 -132 15 -430 6 -567
-16 -52 -8 -158 -31 -235 -49 -77 -19 -155 -37 -172 -41 -18 -4 -33 -10 -33
-14 0 -12 -113 -61 -140 -61 -14 -1 -39 -9 -56 -18 -44 -23 -174 -123 -204
-157 -14 -15 -41 -35 -60 -45 -38 -20 -110 -91 -110 -109 0 -6 -4 -11 -8 -11
-10 0 -85 -114 -119 -180 -13 -25 -23 -56 -23 -70 0 -14 -9 -33 -20 -43 -21
-17 -28 -57 -10 -57 17 0 11 -40 -10 -70 -15 -20 -20 -46 -22 -98 -1 -46 3
-76 11 -86 7 -9 11 -23 7 -31 -3 -9 0 -18 8 -21 8 -3 17 -22 21 -42 3 -20 17
-55 30 -77 25 -44 195 -221 238 -250 15 -9 27 -23 27 -30 0 -8 10 -17 23 -21
12 -3 29 -12 37 -19 8 -7 30 -17 49 -24 19 -6 40 -20 48 -31 8 -11 23 -20 35
-20 11 0 32 -13 46 -28 15 -15 53 -45 85 -66 39 -26 64 -36 79 -33 12 3 53 -1
92 -9 39 -9 86 -18 105 -20 19 -2 52 -9 75 -14 71 -15 291 -41 363 -42 95 -1
310 17 422 36 52 8 97 13 102 11 4 -3 45 4 91 15 45 11 108 20 138 20 33 1 69
8 89 19 l33 18 -28 11 c-22 9 -57 10 -149 1 -66 -7 -151 -13 -190 -15 -38 -2
-142 -8 -230 -14 -110 -7 -197 -6 -280 1 -65 6 -124 13 -130 17 -5 3 -35 7
-65 8 -30 2 -66 5 -80 7 -157 30 -250 50 -275 59 -16 5 -41 13 -55 17 -14 3
-58 23 -98 44 -40 21 -70 42 -67 47 3 5 15 6 29 1 41 -16 300 -70 541 -113 83
-15 224 -16 485 -4 165 8 298 20 418 38 67 10 82 15 82 30 0 12 -11 19 -36 24
-20 4 -53 2 -73 -5 -21 -6 -80 -15 -132 -21 -129 -14 -392 -31 -459 -28 -30 0
-116 5 -190 10 -132 9 -275 31 -315 47 -29 12 -93 28 -145 36 -55 9 -207 59
-276 91 -48 23 -104 68 -104 84 0 4 -32 29 -72 56 -39 27 -81 58 -93 69 -12
11 -36 30 -52 43 -28 21 -48 65 -45 102 0 8 -6 39 -14 70 -9 30 -19 79 -23
109 -7 46 -5 59 15 95 12 23 32 66 43 97 12 31 33 67 47 80 14 13 36 44 48 70
13 25 59 81 102 125 82 82 239 214 256 214 5 0 26 16 46 35 20 20 48 38 62 41
14 3 41 12 60 19 19 8 85 23 145 35 61 12 114 24 118 27 12 7 123 30 182 37
28 3 111 8 185 11 74 3 146 8 160 11 24 4 181 -13 335 -36 39 -6 94 -19 123
-30 29 -11 64 -20 78 -20 25 0 30 -2 104 -40 25 -12 66 -33 91 -46 44 -22 84
-54 121 -99 9 -11 22 -51 28 -90 10 -63 9 -71 -10 -96 -11 -16 -20 -31 -20
-34 0 -9 -72 -100 -89 -111 -9 -6 -57 -21 -108 -32 -105 -25 -221 -28 -328 -8
-38 7 -88 21 -110 30 -22 9 -50 27 -62 38 -13 12 -23 29 -23 37 0 34 39 78 88
101 28 13 53 32 56 42 5 21 -23 43 -69 54 -16 3 -57 16 -90 27 -41 13 -98 21
-182 25 -72 3 -140 0 -165 -6 -24 -6 -74 -14 -113 -17 -38 -3 -92 -11 -120
-17 -57 -12 -195 -63 -241 -89 -17 -9 -42 -23 -55 -31 -13 -7 -41 -28 -62 -46
-21 -18 -48 -38 -61 -43 -33 -15 -117 -114 -148 -174 -14 -28 -32 -84 -38
-125 -11 -65 -11 -82 4 -132 13 -47 30 -71 97 -142 44 -47 90 -88 102 -92 12
-3 36 -16 52 -28 34 -25 124 -56 162 -56 13 0 33 -5 43 -10 75 -40 478 -66
779 -50 101 6 187 13 192 16 5 3 30 5 56 4 27 0 55 -1 63 -1 16 0 172 10 233
15 21 1 41 -2 44 -7 3 -5 -3 -17 -14 -26 -38 -32 -72 -89 -87 -148 -9 -34 -16
-77 -16 -96 0 -19 6 -40 14 -46 8 -7 40 -10 81 -8 73 4 80 10 100 73 6 19 34
53 70 83 33 28 65 51 70 51 6 0 27 9 48 20 20 11 43 20 50 20 7 0 28 8 47 18
50 27 166 60 235 68 33 4 66 12 74 18 26 20 460 3 559 -23 20 -5 71 -15 112
-21 104 -16 186 -30 245 -42 60 -13 237 -62 285 -79 19 -7 80 -34 135 -60 100
-48 138 -77 228 -180 l39 -44 13 25 c8 14 14 32 15 40 0 17 -80 98 -132 133
-47 33 -157 79 -263 112 -49 16 -94 31 -100 35 -17 11 -126 38 -200 50 -69 10
-208 29 -373 51 -45 6 -85 16 -89 22 -11 18 30 37 83 37 29 0 86 4 126 9 40 6
102 12 138 15 36 2 90 9 120 15 52 10 184 28 370 51 121 15 146 19 230 42 41
11 109 26 150 33 41 8 97 21 124 30 28 8 60 25 72 36 13 12 20 28 17 36 -8 19
-45 13 -143 -22 -41 -15 -91 -31 -110 -35 -19 -5 -60 -15 -90 -23 -124 -32
-217 -47 -475 -77 -99 -12 -207 -28 -239 -36 -33 -9 -70 -13 -82 -10 -13 4
-43 1 -66 -5 -24 -6 -92 -19 -152 -29 -59 -10 -115 -21 -123 -24 -7 -3 -13
-14 -11 -23 2 -14 -3 -17 -22 -15 -14 1 -63 2 -109 2 -46 1 -80 4 -75 9 17 14
125 39 244 56 25 4 67 13 94 21 27 8 66 14 86 14 20 0 59 7 86 15 122 38 142
44 184 49 25 4 68 13 95 20 28 8 91 19 140 26 50 6 119 19 155 29 36 10 121
28 190 40 124 21 257 50 337 73 42 12 42 12 245 -89 195 -97 307 -141 327
-128 6 3 8 39 4 88 -4 59 -1 99 11 145 9 34 38 97 63 140 26 42 52 82 58 88 5
7 37 43 70 80 33 38 75 84 93 103 22 22 32 41 29 53 -4 12 14 43 52 91 110
139 140 188 166 271 14 44 33 120 41 167 15 79 15 97 0 200 -8 63 -22 141 -31
174 -26 100 -37 139 -47 168 -18 47 -157 219 -203 251 -25 17 -45 34 -45 39 0
21 108 -3 230 -50 36 -14 107 -41 158 -59 52 -19 106 -40 120 -49 15 -8 49
-21 77 -30 80 -26 197 -77 240 -104 22 -14 56 -34 77 -46 61 -34 100 -65 189
-155 47 -47 100 -112 118 -143 18 -32 47 -71 64 -87 30 -28 31 -33 35 -124 2
-52 0 -123 -6 -158 -7 -42 -8 -123 -2 -243 7 -160 11 -189 37 -260 19 -53 34
-81 46 -83 14 -3 17 4 17 36 0 22 -9 68 -20 102 -17 53 -20 92 -21 244 0 100
2 208 5 241 3 33 8 89 11 124 3 35 10 72 15 82 6 10 10 30 10 46 0 16 11 64
25 107 14 44 27 97 30 119 3 22 9 45 14 51 5 6 14 28 21 49 17 54 89 199 110
222 20 22 49 92 74 177 9 32 27 70 39 85 12 16 40 55 62 88 52 79 104 143 195
241 41 45 111 121 155 168 44 48 105 111 135 139 147 140 208 195 245 222 22
16 54 42 70 59 17 17 68 64 115 105 47 41 91 84 99 95 28 41 86 102 132 138
25 21 57 53 70 73 13 19 31 37 39 40 9 3 24 18 33 35 10 16 24 30 30 30 13 0
77 56 77 68 0 4 25 34 55 66 30 33 55 63 55 67 0 4 17 25 38 47 78 84 182 213
182 227 0 2 14 24 31 47 16 24 52 77 79 118 27 41 58 86 68 100 39 50 162 307
173 359 4 20 14 68 23 106 43 186 43 186 37 365 -6 169 -8 177 -36 230 -16 30
-40 69 -52 86 -13 17 -23 35 -23 40 -1 19 -77 121 -115 156 -43 38 -212 130
-285 155 -25 9 -72 19 -105 24 -162 22 -244 29 -290 24 -27 -4 -72 -13 -100
-22 -27 -8 -109 -44 -182 -79 -86 -43 -152 -83 -191 -117 -32 -29 -70 -68 -83
-87 -13 -19 -46 -59 -73 -88 -36 -39 -54 -51 -68 -46 -10 3 -25 0 -33 -6 -8
-7 -15 -21 -15 -31 0 -10 9 -23 21 -29 45 -25 73 -58 103 -125 29 -64 32 -80
34 -185 3 -99 0 -124 -19 -175 -15 -41 -35 -71 -67 -99 -25 -23 -56 -53 -70
-68 -13 -14 -36 -31 -50 -37 -48 -18 -201 -33 -260 -26 -64 8 -179 37 -211 54
-27 15 -112 105 -129 138 -8 14 -29 46 -48 71 -20 25 -45 63 -57 86 -20 37
-22 55 -21 181 2 125 5 155 37 277 25 99 42 146 61 168 14 18 26 38 26 46 0 8
4 14 8 14 5 0 19 21 32 48 12 26 33 58 45 72 12 14 34 46 49 72 25 45 74 99
177 194 24 22 58 49 74 60 17 10 36 25 43 32 8 7 28 20 45 28 18 9 50 31 72
48 22 17 51 37 65 43 14 6 54 25 90 41 131 61 181 82 190 82 6 0 10 5 10 10 0
6 9 10 20 10 11 0 34 8 52 18 18 10 62 24 98 31 73 15 279 28 409 25 204 -3
383 -49 591 -151 63 -31 133 -68 155 -82 79 -50 235 -185 235 -203 0 -4 16
-23 35 -42 19 -20 35 -44 35 -56 0 -11 9 -25 21 -32 11 -7 32 -35 46 -63 14
-27 37 -62 50 -77 14 -15 27 -39 29 -55 1 -15 10 -32 18 -39 9 -6 16 -18 16
-27 0 -29 21 -64 51 -81 16 -9 29 -22 29 -27 0 -5 -7 -12 -15 -15 -12 -5 -14
-15 -9 -43 4 -20 12 -43 19 -51 7 -8 15 -36 18 -61 3 -25 9 -55 14 -65 5 -10
11 -37 12 -59 2 -22 7 -48 13 -59 5 -10 12 -62 14 -115 3 -53 6 -109 8 -126 2
-16 -2 -44 -8 -60 -7 -17 -14 -59 -15 -95 -1 -36 -4 -87 -6 -115 -3 -27 -7
-76 -9 -108 -2 -32 -9 -63 -14 -70 -11 -14 -24 -74 -28 -132 -1 -22 -12 -60
-23 -85 -11 -25 -21 -54 -21 -65 0 -11 -10 -36 -22 -55 -12 -19 -32 -56 -44
-82 -13 -26 -31 -59 -42 -75 -50 -74 -78 -118 -106 -172 -40 -75 -115 -188
-180 -271 -28 -36 -65 -85 -81 -110 -16 -25 -40 -58 -52 -73 -13 -16 -23 -39
-23 -53 0 -18 -5 -24 -21 -24 -11 0 -34 -15 -52 -34 -18 -18 -81 -79 -140
-135 -60 -56 -138 -121 -175 -145 -37 -24 -78 -56 -92 -71 -14 -15 -41 -35
-60 -45 -19 -10 -50 -32 -68 -49 -18 -17 -43 -36 -55 -42 -20 -11 -135 -96
-147 -110 -3 -3 -43 -32 -90 -66 -47 -33 -95 -64 -107 -67 -12 -4 -45 -29 -72
-56 -28 -27 -86 -73 -129 -102 -44 -29 -115 -86 -160 -126 -44 -40 -93 -82
-109 -94 -50 -38 -273 -263 -273 -275 0 -7 -4 -13 -8 -13 -10 0 -154 -191
-213 -283 -69 -106 -108 -170 -129 -213 -11 -23 -27 -70 -35 -105 -8 -35 -22
-84 -29 -109 -21 -65 -30 -128 -27 -181 1 -25 -4 -68 -12 -95 -101 -338 -212
-681 -243 -751 -13 -29 -31 -54 -43 -58 -23 -7 -38 -42 -23 -57 16 -16 185
-46 327 -58 137 -11 415 -45 500 -60 28 -4 61 -8 75 -8 32 0 126 -10 168 -18
30 -6 33 -4 47 30 14 32 14 50 3 139 -15 114 -13 376 1 390 7 7 29 2 63 -12
29 -12 76 -25 105 -28 33 -4 77 1 122 12 42 10 85 15 105 11 45 -9 235 20 300
45 28 10 63 19 78 19 15 0 38 -4 52 -10 14 -5 81 -14 148 -19 74 -6 147 -19
183 -31 33 -12 76 -23 95 -25 51 -6 140 -34 179 -56 32 -19 93 -40 201 -70 49
-13 91 -23 190 -43 70 -15 174 -40 230 -57 35 -11 239 -31 295 -30 17 0 147 3
290 5 143 2 312 9 375 15 130 13 629 33 640 26 11 -7 171 13 184 23 6 5 58 17
115 27 57 9 110 19 117 22 11 4 14 -15 14 -95 0 -57 4 -104 10 -107 6 -3 10
-16 10 -28 0 -12 7 -41 15 -65 15 -41 61 -100 114 -146 14 -12 41 -35 60 -52
53 -46 141 -76 238 -80 l82 -3 28 33 c15 19 44 44 64 58 19 13 46 34 60 46 13
12 35 31 48 41 l25 18 -26 24 c-15 14 -56 32 -99 43 -77 20 -104 41 -125 98
-8 22 -6 46 9 106 10 42 27 96 38 119 10 23 30 50 44 59 15 10 60 20 108 24
45 5 174 11 287 14 165 5 216 3 263 -9 68 -18 140 -19 169 -4 15 8 19 17 15
38 -3 15 -28 61 -55 102 -27 41 -70 119 -95 173 l-47 99 22 25 c13 13 39 31
58 39 25 10 54 13 97 9 34 -3 76 -12 93 -21 16 -8 30 -18 30 -20 0 -2 -13 -11
-30 -20 -32 -16 -39 -42 -17 -64 10 -11 3 -12 -38 -6 -27 4 -69 15 -92 26 -23
10 -48 19 -56 19 -8 0 -20 -6 -26 -13 -8 -10 -7 -18 2 -30 15 -21 129 -72 193
-88 27 -7 69 -23 94 -35 25 -13 52 -24 61 -24 9 0 43 -13 75 -29 58 -28 82
-37 178 -69 37 -13 50 -14 53 -5 3 7 18 28 34 49 16 20 29 44 28 53 0 9 -13
36 -28 60 -20 35 -46 56 -111 94 -113 66 -237 131 -278 145 -19 6 -32 17 -30
23 5 15 99 44 223 69 128 26 241 60 455 137 52 19 115 38 138 43 24 6 60 19
80 29 21 11 59 27 85 36 69 22 117 48 159 87 20 19 55 41 79 48 23 8 56 30 75
50 59 63 90 95 120 122 68 62 148 167 188 246 14 28 32 56 40 64 8 9 27 44 41
79 15 35 31 69 35 74 5 6 18 35 29 65 26 72 33 194 15 273 -15 67 -57 169 -80
196 -8 9 -47 50 -87 91 -100 104 -233 217 -289 246 -26 13 -52 24 -57 24 -6 0
-35 16 -65 35 -30 19 -58 35 -62 35 -4 0 -41 16 -83 36 -41 20 -105 43 -141
51 -36 8 -85 21 -110 28 -25 8 -81 21 -124 30 -55 12 -98 15 -140 10 -75 -8
-170 -15 -213 -15 -135 1 -341 -7 -516 -19 -104 -7 -156 -14 -172 -25 -14 -9
-35 -16 -49 -16 -14 0 -28 -5 -32 -11 -4 -7 -21 -9 -43 -5 -22 3 -53 -1 -81
-11 -25 -9 -52 -22 -60 -29 -8 -7 -39 -22 -69 -33 -30 -11 -57 -24 -60 -28 -3
-4 -51 -30 -106 -57 -55 -28 -124 -64 -153 -82 -75 -44 -213 -174 -253 -236
-18 -28 -34 -63 -35 -78 -1 -14 -12 -46 -24 -69 l-21 -43 25 -51 c46 -96 116
-260 116 -272 0 -6 8 -19 18 -27 16 -15 127 -54 262 -92 58 -17 234 -24 331
-14 31 4 88 19 125 34 79 31 152 75 209 128 22 20 50 45 63 56 15 13 22 30 22
54 0 40 -16 80 -44 113 -11 12 -36 34 -57 49 -25 17 -44 24 -58 19 -12 -3 -21
-12 -21 -19 0 -7 9 -21 20 -31 11 -10 20 -27 20 -37 0 -11 -11 -23 -27 -29
-35 -13 -110 -6 -129 13 -12 12 -11 18 4 47 12 23 39 45 88 71 39 21 106 46
149 55 61 14 101 16 182 11 57 -4 127 -11 155 -16 29 -6 90 -15 137 -20 76 -8
89 -13 108 -37 13 -16 23 -25 23 -22 0 4 21 3 46 -2 50 -10 120 -55 153 -100
12 -16 33 -68 47 -115 21 -75 23 -90 12 -125 -6 -22 -25 -55 -42 -73 -17 -18
-44 -39 -61 -47 -16 -8 -39 -29 -50 -46 -12 -19 -35 -37 -55 -44 -19 -7 -63
-25 -97 -41 -34 -15 -68 -28 -77 -28 -21 0 -292 -97 -426 -152 -14 -6 -34 -14
-45 -18 -27 -10 -152 -61 -245 -100 -41 -18 -104 -46 -140 -64 -72 -36 -216
-128 -269 -173 -19 -15 -43 -31 -53 -35 -22 -9 -70 12 -108 47 -14 13 -56 35
-94 49 -38 15 -74 30 -80 35 -17 14 -198 91 -213 91 -7 0 -32 11 -54 26 -22
14 -91 42 -152 63 -62 20 -121 42 -133 49 -27 15 -222 72 -245 72 -11 0 -19 4
-19 9 0 15 28 33 66 41 23 5 55 4 88 -4 28 -7 105 -26 171 -41 66 -15 149 -42
185 -60 36 -17 115 -53 175 -80 61 -26 166 -74 234 -106 68 -33 128 -59 135
-59 6 0 26 -9 44 -20 18 -11 41 -20 51 -20 22 0 36 27 22 44 -6 7 -41 23 -78
35 -37 13 -75 30 -84 37 -8 8 -19 14 -23 14 -4 0 -49 20 -99 44 -51 24 -103
47 -117 51 -14 4 -94 41 -178 82 -84 41 -178 81 -210 88 -31 8 -84 21 -117 30
-33 9 -80 21 -105 26 -54 11 -171 3 -259 -18 -36 -8 -106 -36 -157 -63 -65
-33 -96 -44 -101 -36 -5 6 -16 27 -26 46 -16 31 -111 116 -204 182 -17 13 -59
46 -91 73 -33 28 -84 65 -114 83 -29 18 -73 48 -98 67 -66 50 -130 85 -155 85
-12 0 -42 -7 -65 -15 -23 -8 -47 -15 -52 -15 -5 0 -46 37 -90 81 -86 87 -249
202 -358 253 -39 18 -79 29 -100 29 -44 -2 -260 -104 -292 -137 -13 -13 -48
-37 -79 -53 -31 -17 -108 -64 -172 -107 -64 -42 -119 -76 -123 -76 -3 0 -34
-19 -68 -43 -34 -24 -69 -46 -79 -50 -9 -3 -57 -34 -106 -67 -49 -33 -115 -69
-147 -80 -53 -18 -71 -19 -213 -12 -129 8 -159 7 -172 -5 -15 -12 -22 -11 -60
10 -51 28 -197 192 -198 221 -1 22 46 76 65 76 7 0 19 6 26 13 7 7 42 37 78
66 36 30 76 66 90 81 14 14 48 39 75 55 28 16 59 38 70 48 11 10 40 33 65 50
47 32 180 148 265 232 28 28 64 59 81 70 41 28 309 296 375 375 54 66 147 196
206 293 18 29 43 75 57 102 22 46 43 76 121 172 37 45 72 98 94 141 10 20 45
75 76 121 63 93 165 290 165 318 0 10 7 31 15 47 8 15 15 41 15 56 0 16 9 57
20 92 19 58 37 192 46 328 1 30 9 81 17 112 8 31 12 59 10 62 -3 3 -7 54 -8
113 -2 60 -8 132 -14 162 -6 29 -11 71 -11 92 0 21 -7 60 -16 86 -9 26 -31 79
-50 116 -19 37 -34 79 -34 93 0 13 -4 24 -8 24 -4 0 -16 25 -26 55 -11 30 -26
63 -35 72 -9 10 -25 35 -36 56 -11 20 -23 37 -28 37 -4 0 -12 10 -18 23 -23
51 -99 162 -155 226 -32 37 -81 85 -109 105 -27 20 -79 59 -115 86 -36 27 -81
57 -100 68 -46 25 -256 109 -295 117 -16 4 -48 13 -70 21 -22 8 -71 19 -110
25 -38 6 -95 15 -125 19 -30 5 -89 7 -130 4 -111 -7 -292 -24 -317 -31 -13 -3
-23 -1 -23 5 0 6 14 26 31 44 16 18 37 45 46 59 8 14 28 34 44 45 16 10 29 23
29 28 0 5 16 28 35 52 20 24 47 68 60 98 13 30 29 57 34 61 6 3 11 14 11 24 0
10 15 47 34 82 18 35 37 84 41 109 4 25 11 53 16 62 5 9 11 60 14 114 3 60 1
101 -5 109 -6 7 -13 61 -16 121 -3 59 -8 112 -11 117 -3 5 -9 34 -14 65 -4 32
-19 90 -33 130 -14 41 -58 140 -98 220 -59 122 -83 159 -137 216 -99 104 -244
243 -285 274 -20 15 -59 43 -85 64 -59 45 -222 125 -293 144 -29 7 -68 14 -86
14 -18 0 -43 5 -55 12 -13 6 -84 13 -172 15 -82 1 -161 7 -175 12 -14 6 -65
11 -113 13 -49 2 -89 2 -90 1z m48 -113 c3 -5 -1 -10 -10 -10 -9 0 -13 5 -10
10 3 6 8 10 10 10 2 0 7 -4 10 -10z m85 3 c0 -5 -5 -15 -10 -23 -10 -16 -21
-14 223 -40 78 -8 146 -22 200 -40 44 -16 86 -26 91 -22 7 4 4 8 -6 10 -22 4
-24 22 -2 22 8 0 22 -16 30 -36 11 -27 26 -40 62 -55 26 -11 55 -28 65 -37 12
-11 20 -13 25 -5 4 6 15 7 29 2 15 -5 20 -14 16 -27 -3 -14 5 -25 33 -41 20
-12 42 -20 49 -17 7 2 18 -7 24 -20 6 -14 11 -31 11 -39 0 -17 30 -35 58 -35
11 0 39 -22 63 -49 111 -124 103 -108 221 -441 29 -81 43 -140 49 -200 4 -47
12 -105 19 -130 7 -28 9 -70 5 -110 -9 -83 -41 -235 -59 -280 -45 -113 -72
-170 -97 -211 -16 -25 -29 -49 -29 -53 0 -16 -60 -86 -157 -185 -57 -58 -103
-108 -103 -112 0 -4 -12 -10 -27 -14 -15 -3 -39 -15 -55 -26 -15 -11 -33 -17
-40 -13 -7 4 -62 8 -122 9 -110 2 -173 15 -253 51 -21 10 -57 37 -80 61 -23
24 -52 64 -64 91 -18 40 -20 60 -16 137 5 83 15 124 54 215 28 64 77 120 128
147 42 23 66 28 152 31 95 4 103 6 127 31 16 17 33 53 42 91 l16 63 -30 81
c-16 44 -33 91 -37 104 -4 12 -22 48 -40 80 -19 31 -43 74 -54 94 -12 20 -27
41 -34 45 -7 4 -23 22 -35 39 -26 38 -157 139 -192 149 -14 4 -34 15 -45 24
-25 22 -128 66 -175 75 -19 4 -46 11 -60 16 -14 5 -83 11 -155 13 -112 4 -143
1 -225 -19 -52 -13 -103 -24 -114 -24 -10 0 -83 -31 -161 -70 -78 -38 -147
-70 -152 -70 -6 0 -45 -23 -87 -50 -42 -28 -129 -102 -193 -165 -65 -63 -126
-115 -135 -115 -35 0 -48 -12 -48 -44 0 -19 -11 -43 -28 -63 -42 -49 -60 -72
-120 -153 -31 -41 -81 -106 -112 -145 -69 -85 -131 -187 -139 -228 -6 -27 -14
-34 -67 -53 -34 -12 -79 -30 -100 -40 -48 -22 -151 -82 -173 -100 -13 -11
-104 -81 -213 -164 -14 -11 -39 -20 -56 -20 -18 0 -46 -13 -73 -34 -24 -18
-55 -47 -69 -63 -14 -16 -51 -58 -82 -95 -32 -36 -58 -69 -58 -73 0 -4 -20
-35 -44 -69 -24 -34 -51 -77 -60 -96 -9 -19 -29 -57 -45 -85 -46 -77 -81 -155
-81 -180 0 -12 -3 -24 -6 -28 -3 -3 -22 4 -42 16 -21 11 -39 22 -41 24 -2 1 2
11 10 20 12 16 30 50 75 148 7 17 16 44 20 60 3 17 12 35 18 40 7 6 29 37 49
70 20 33 50 75 67 94 16 18 30 40 30 47 0 7 9 18 20 24 11 6 26 23 34 38 8 15
63 69 123 120 59 51 133 122 163 159 30 37 79 92 108 122 28 31 52 61 52 67 0
6 -9 14 -21 17 -14 4 -55 -12 -118 -45 -53 -27 -104 -57 -113 -66 -10 -8 -18
-11 -18 -6 1 5 7 20 15 34 8 14 14 39 15 56 0 16 4 34 9 40 9 10 69 118 108
197 13 26 27 47 32 47 4 0 14 12 22 28 7 15 33 58 57 96 24 38 46 76 50 85 3
9 20 34 39 57 18 23 33 46 33 52 0 6 22 36 49 66 26 31 73 98 104 149 55 91
122 172 242 292 33 33 83 85 111 115 50 54 196 180 208 180 11 0 70 44 79 58
5 7 37 25 73 42 35 16 64 34 64 39 0 6 6 11 13 11 7 0 29 14 50 31 32 27 44
31 76 26 25 -3 53 1 79 13 22 10 65 23 96 30 31 6 68 18 83 25 31 16 157 43
218 47 30 2 40 7 39 20 -1 11 8 17 32 20 22 3 34 0 34 -8 0 -7 -6 -15 -12 -18
-7 -3 7 -4 32 -1 133 15 251 21 275 15 6 -1 18 -2 28 -1 11 1 15 6 11 12 -3 6
0 15 7 20 17 11 39 12 39 2z m-187 -10 c-7 -2 -19 -2 -25 0 -7 3 -2 5 12 5 14
0 19 -2 13 -5z m-536 -90 c-4 -3 -10 -3 -14 0 -3 4 0 7 7 7 7 0 10 -3 7 -7z
m-32 -13 c-3 -5 -10 -10 -16 -10 -5 0 -9 5 -9 10 0 6 7 10 16 10 8 0 12 -4 9
-10z m1340 -30 c3 -5 1 -10 -4 -10 -6 0 -11 5 -11 10 0 6 2 10 4 10 3 0 8 -4
11 -10z m344 -154 c9 -11 7 -15 -13 -20 -14 -3 -32 -13 -40 -22 -15 -14 -16
-13 -16 8 0 13 5 29 12 36 16 16 43 15 57 -2z m163 -160 c18 -22 42 -54 54
-71 11 -16 37 -54 57 -82 20 -29 37 -56 37 -59 0 -3 9 -17 20 -31 11 -14 20
-38 20 -52 0 -15 4 -31 8 -37 5 -5 15 -25 22 -44 8 -19 21 -45 31 -57 9 -13
20 -44 24 -70 4 -27 11 -55 15 -63 13 -24 40 -225 47 -340 5 -90 2 -117 -17
-185 -12 -44 -31 -98 -41 -119 -10 -22 -19 -47 -19 -57 0 -24 -85 -186 -146
-277 -48 -72 -120 -144 -194 -197 -41 -29 -92 -58 -112 -64 -20 -7 -47 -20
-60 -30 -13 -10 -50 -26 -83 -36 -33 -9 -70 -21 -83 -26 -13 -5 -61 -9 -107
-9 -58 0 -100 6 -134 19 -51 19 -121 67 -121 82 0 13 31 11 97 -6 31 -8 85
-15 118 -15 68 0 238 41 293 70 20 11 57 41 82 67 26 27 76 76 113 109 37 34
67 65 67 70 0 6 10 22 23 37 43 54 128 212 142 267 9 30 24 85 35 121 14 44
22 110 26 199 4 81 2 148 -5 173 -5 23 -12 71 -15 107 -2 36 -11 85 -19 110
-9 25 -25 81 -37 125 -32 114 -87 250 -126 309 -59 89 -67 100 -88 125 l-21
24 32 -23 c18 -13 47 -42 65 -64z m-1061 -257 c48 -16 113 -45 145 -65 33 -20
71 -44 86 -53 27 -16 43 -39 33 -49 -2 -3 -10 0 -18 6 -12 10 -124 51 -252 93
-33 10 -74 19 -92 19 -17 0 -34 -6 -37 -12 -3 -9 -8 -8 -16 5 -10 15 -24 18
-92 16 -44 -1 -96 -5 -116 -9 -96 -20 -235 -62 -312 -95 -47 -20 -90 -39 -96
-43 -6 -4 -33 -21 -60 -39 -27 -18 -54 -36 -59 -41 -6 -5 -24 -17 -40 -28 -45
-28 -184 -147 -235 -201 -25 -27 -61 -68 -80 -93 -19 -25 -38 -46 -42 -48 -5
-2 -8 -7 -8 -12 0 -5 -12 -22 -27 -39 -42 -45 -78 -93 -97 -126 -9 -16 -28
-45 -42 -64 -13 -19 -31 -59 -40 -88 -8 -29 -20 -53 -25 -53 -5 0 -12 -1 -16
-2 -5 -1 -30 -5 -56 -8 -35 -5 -50 -3 -54 6 -6 16 47 122 93 187 19 26 34 51
34 56 0 5 9 11 21 14 11 3 23 15 26 26 3 12 9 21 14 21 5 0 17 17 28 38 19 36
53 80 120 151 18 20 43 47 55 61 33 38 211 197 237 210 12 7 40 30 61 51 23
22 70 52 111 70 40 16 113 50 163 75 49 24 128 54 175 65 46 12 120 24 164 28
44 4 121 5 170 3 64 -3 115 -12 176 -33z m-61 -155 c68 -15 161 -49 195 -71
11 -7 30 -13 42 -13 13 0 46 -15 73 -34 65 -45 227 -229 252 -285 10 -25 18
-59 16 -75 -3 -28 -7 -31 -38 -32 -64 -2 -174 -36 -222 -68 -26 -17 -68 -60
-95 -96 -27 -36 -58 -87 -70 -115 -39 -92 -60 -246 -43 -322 6 -26 21 -68 34
-93 13 -25 26 -63 30 -84 5 -25 26 -62 59 -102 29 -35 64 -69 80 -75 15 -6 27
-15 27 -20 0 -5 6 -9 13 -9 8 0 27 -7 43 -15 16 -8 54 -21 84 -28 30 -8 56
-19 58 -25 2 -6 -9 -19 -25 -28 -75 -46 -138 -88 -143 -94 -3 -4 -23 -18 -45
-32 -22 -14 -53 -38 -70 -53 -81 -74 -103 -96 -138 -141 -61 -78 -139 -202
-184 -294 -43 -86 -55 -123 -99 -305 -31 -125 -34 -263 -9 -350 17 -58 46
-116 71 -142 7 -7 26 -37 43 -67 19 -33 60 -78 103 -115 57 -48 85 -64 142
-81 39 -12 79 -25 89 -31 9 -5 65 -14 124 -21 81 -8 126 -8 187 1 45 7 101 19
126 28 57 21 119 60 127 78 3 8 11 15 17 15 17 0 126 103 126 119 0 7 6 27 14
44 29 68 39 94 59 152 16 44 21 84 21 150 0 68 -4 98 -18 125 -10 19 -29 43
-42 53 -13 10 -24 26 -24 36 0 25 56 106 97 140 19 16 54 34 78 41 23 6 54 23
69 36 14 14 42 32 61 40 20 8 67 14 114 14 73 0 87 -4 168 -42 48 -23 98 -55
112 -70 13 -16 41 -38 62 -49 21 -10 46 -31 55 -45 9 -13 32 -42 51 -62 57
-61 70 -76 86 -102 17 -29 83 -222 98 -290 6 -25 11 -124 12 -220 2 -172 0
-188 -34 -270 -26 -61 -100 -199 -110 -206 -5 -3 -9 -14 -9 -25 0 -10 -4 -19
-9 -19 -5 0 -11 -8 -14 -17 -13 -39 -75 -144 -118 -198 -24 -31 -75 -93 -114
-138 -38 -46 -75 -89 -82 -97 -50 -60 -73 -86 -150 -169 -69 -73 -336 -342
-376 -379 -4 -4 -24 -25 -45 -47 -20 -22 -57 -57 -82 -78 -25 -21 -107 -98
-184 -170 -76 -73 -141 -133 -145 -134 -7 -3 -44 67 -91 172 -18 39 -42 93
-55 120 -13 28 -33 75 -45 105 -12 30 -28 62 -35 70 -6 8 -21 35 -32 60 -12
25 -32 70 -46 100 -13 30 -48 89 -76 130 -28 41 -51 83 -51 92 0 10 -4 18 -8
18 -10 0 -36 81 -58 180 -10 41 -21 80 -26 87 -5 6 -17 9 -26 6 -9 -4 -37 -23
-62 -43 -25 -20 -72 -58 -105 -84 -33 -27 -87 -62 -120 -78 -99 -48 -222 -97
-308 -123 -45 -13 -102 -31 -127 -40 -25 -9 -85 -22 -133 -29 -62 -9 -104 -10
-143 -3 -36 7 -65 7 -88 0 -22 -7 -40 -7 -52 0 -26 13 -64 49 -64 59 0 4 8 8
18 8 9 0 33 16 52 35 19 19 55 54 80 77 25 24 63 65 84 91 46 58 142 245 156
304 5 23 21 59 35 79 14 21 28 49 32 63 3 14 9 31 13 36 4 6 22 57 40 115 18
58 36 110 39 115 13 17 30 88 35 142 3 28 19 84 35 123 17 40 31 88 31 109 0
20 11 103 25 185 26 156 32 287 15 345 -5 19 -16 75 -25 125 -9 49 -19 93 -23
96 -5 3 -18 24 -30 48 -12 24 -34 55 -48 70 -14 15 -32 40 -40 55 -18 34 -99
143 -131 176 -12 12 -25 33 -29 45 -5 18 -67 96 -127 161 -11 11 -46 52 -79
92 -33 40 -83 90 -111 111 -56 43 -124 82 -143 82 -6 0 -17 7 -24 15 -7 9 -34
25 -59 36 -25 11 -55 24 -66 30 -11 5 -49 18 -85 29 -42 14 -107 23 -182 27
-70 4 -118 10 -118 16 0 6 7 19 17 29 9 11 30 18 50 18 18 0 41 4 51 9 34 18
159 44 262 56 25 2 73 10 108 17 48 9 62 16 62 29 0 11 -12 21 -32 28 -43 14
-256 22 -264 10 -10 -18 -24 -9 -24 16 0 14 -5 25 -10 25 -6 0 -29 -13 -52
-30 -22 -16 -53 -30 -68 -30 -15 0 -43 -6 -61 -14 -19 -8 -55 -17 -81 -21 -26
-4 -88 -22 -138 -40 -49 -18 -90 -29 -90 -25 0 7 30 28 105 76 50 32 77 44 93
44 8 0 39 14 69 30 29 17 62 30 73 30 11 0 20 5 20 10 0 6 11 10 25 10 28 0
125 24 152 38 10 5 36 8 58 7 22 -1 46 3 53 9 10 7 20 6 34 -3 13 -8 34 -10
59 -6 21 4 39 10 39 14 0 17 -27 31 -62 31 -21 0 -38 4 -38 8 0 4 23 47 50 95
28 48 50 89 50 91 0 3 13 19 29 36 54 59 66 74 82 100 15 23 206 219 243 248
8 6 31 23 50 36 20 13 50 38 68 56 47 46 167 119 208 126 19 4 53 13 75 21 22
8 62 18 88 23 27 6 63 16 80 25 18 8 59 16 92 18 87 5 200 -3 275 -19z m-1949
-1708 c30 -7 65 -18 77 -25 11 -6 28 -11 37 -11 10 0 52 -16 94 -36 42 -20 92
-43 111 -52 19 -9 50 -30 68 -46 19 -18 54 -74 83 -133 27 -56 49 -112 49
-125 0 -13 2 -77 4 -143 4 -146 -4 -235 -40 -442 -4 -21 -1 -40 10 -55 9 -12
16 -38 16 -58 0 -25 9 -46 30 -71 l29 -36 73 5 c40 2 79 9 86 15 9 7 11 37 8
113 -3 75 -1 104 7 105 7 1 19 3 27 4 8 1 21 3 28 4 6 0 12 9 12 18 0 9 37 52
82 95 70 67 87 78 112 76 26 -3 35 -13 66 -75 20 -39 44 -95 53 -125 9 -29 22
-83 28 -120 l12 -67 -50 -73 c-28 -40 -62 -91 -77 -113 -15 -22 -39 -55 -54
-73 -15 -19 -33 -46 -40 -60 -8 -15 -36 -48 -63 -74 -49 -46 -62 -81 -35 -91
14 -6 41 21 112 109 17 22 49 71 72 109 53 90 153 227 169 233 7 2 18 -9 24
-25 14 -32 17 -201 8 -388 -6 -119 -9 -135 -38 -190 -17 -33 -31 -65 -31 -72
0 -7 -8 -27 -18 -45 -10 -18 -33 -69 -51 -113 -18 -44 -41 -91 -51 -105 -9
-14 -24 -47 -33 -74 -9 -27 -32 -68 -52 -91 -19 -24 -35 -47 -35 -52 0 -4 -16
-22 -36 -38 -39 -33 -88 -82 -108 -111 -12 -15 -16 -16 -30 -5 -13 11 -19 11
-31 1 -8 -7 -15 -19 -15 -28 0 -31 41 -79 103 -120 38 -25 70 -55 77 -71 8
-21 8 -60 1 -152 -6 -68 -16 -156 -22 -196 -9 -58 -17 -77 -40 -99 -21 -20
-32 -25 -40 -17 -8 8 -6 16 10 29 23 20 28 44 9 44 -7 0 -22 -7 -32 -15 -11
-8 -39 -15 -62 -15 -47 0 -143 18 -159 30 -5 4 -28 13 -50 20 -78 25 -174 81
-209 122 -19 22 -36 52 -38 67 -5 41 -42 38 -122 -9 -37 -22 -74 -40 -82 -40
-7 0 -30 -10 -51 -22 -31 -19 -56 -23 -140 -26 -57 -3 -139 1 -182 7 -87 13
-186 48 -227 80 -15 12 -33 21 -40 21 -7 0 -19 6 -26 13 -8 6 -21 17 -30 22
-8 6 -41 30 -73 54 -79 60 -194 170 -230 221 -16 23 -53 67 -82 98 -46 50 -79
102 -188 298 -16 30 -37 63 -47 73 -9 11 -24 36 -33 58 -10 21 -27 58 -40 83
-12 25 -32 74 -44 110 -12 36 -26 74 -30 85 -24 53 -35 98 -47 195 -14 112
-27 197 -43 270 -13 59 -7 342 9 445 14 95 19 115 58 262 26 98 36 120 75 165
24 29 48 64 52 78 13 44 62 134 81 151 11 9 33 21 49 26 17 5 30 16 30 24 0 9
13 15 40 16 l40 2 -32 -10 c-18 -5 -33 -11 -33 -13 0 -2 16 -2 36 -1 25 3 54
-5 93 -25 85 -43 104 -51 131 -54 14 -2 32 -6 41 -10 11 -5 26 3 46 21 65 63
74 68 203 126 30 13 79 41 109 61 29 20 65 39 80 42 14 3 44 10 66 15 22 5 90
13 150 18 61 4 115 9 120 9 6 1 35 -5 66 -12z m3421 -417 c88 -12 150 -30 155
-44 1 -5 -1 -16 -5 -23 -7 -10 -20 -10 -62 -1 -50 11 -172 8 -250 -6 -19 -3
-59 -13 -89 -22 -41 -13 -58 -24 -73 -48 -10 -18 -36 -40 -57 -50 -22 -9 -55
-34 -74 -54 -46 -47 -107 -141 -107 -163 0 -10 15 -42 34 -71 19 -28 40 -71
46 -94 17 -68 -7 -183 -69 -328 -23 -52 -76 -109 -151 -164 -24 -17 -50 -31
-59 -31 -12 0 -9 6 9 20 14 11 30 20 37 20 7 0 15 16 19 37 4 20 17 51 30 70
12 19 26 48 30 66 3 17 14 43 23 56 13 20 16 51 15 146 0 85 -5 135 -18 171
-9 29 -34 71 -56 94 -22 24 -40 47 -40 52 0 15 29 67 43 75 7 4 36 38 66 76
29 37 61 67 70 67 10 0 35 15 57 33 38 31 56 42 99 64 11 5 38 19 60 30 22 11
58 20 80 22 21 1 41 4 44 6 8 9 119 5 193 -6z m284 -125 c18 -14 18 -14 -6 -3
-31 14 -36 19 -24 19 6 0 19 -7 30 -16z m-2660 -136 c11 -13 41 -54 66 -93 44
-66 54 -97 88 -250 5 -22 9 -51 9 -65 0 -20 -2 -22 -9 -10 -5 9 -11 39 -15 68
-3 31 -23 87 -48 139 -24 49 -51 100 -61 116 -11 16 -27 27 -41 27 -38 0 -87
-26 -147 -77 -126 -107 -146 -122 -152 -116 -3 4 -6 16 -6 28 0 17 13 29 55
50 30 14 55 30 55 34 0 4 25 25 55 47 30 21 55 42 55 46 0 10 61 78 69 78 4 0
16 -10 27 -22z m25 -2035 c16 -13 33 -80 44 -173 10 -80 14 -103 30 -190 29
-150 34 -184 32 -220 -2 -27 -7 -36 -23 -38 -11 -2 -68 28 -134 72 l-115 74 3
64 c2 35 7 79 12 98 5 19 12 91 15 160 4 69 12 133 17 143 5 10 19 22 30 26
27 10 68 2 89 -16z m3043 -226 c-11 -14 -45 -59 -77 -101 -33 -42 -67 -82 -77
-89 -10 -7 -68 -61 -129 -119 -61 -59 -141 -131 -178 -161 -38 -31 -108 -94
-158 -142 -49 -47 -135 -120 -190 -161 -121 -90 -237 -180 -275 -214 -105 -93
-132 -116 -171 -142 -24 -16 -55 -39 -69 -52 -14 -12 -43 -34 -65 -48 -37 -23
-188 -173 -350 -345 -107 -115 -270 -351 -330 -479 -22 -47 -40 -73 -45 -68
-14 14 0 80 22 103 10 12 29 52 42 89 13 38 39 93 58 123 20 30 47 77 61 105
23 48 80 127 225 317 33 43 90 106 126 141 36 35 66 68 66 74 0 6 30 34 68 63
71 56 102 83 160 140 21 20 71 58 112 84 41 26 84 55 95 66 34 32 167 133 232
177 34 23 65 46 68 52 4 6 23 19 43 30 20 11 66 43 102 70 36 28 95 70 132 95
37 25 82 59 100 76 18 16 56 43 83 59 28 16 67 44 88 62 83 73 161 145 201
185 22 22 43 40 45 38 2 -2 -5 -15 -15 -28z m4541 -222 c6 -8 55 -15 130 -19
141 -7 164 -10 270 -31 93 -18 146 -36 139 -46 -2 -4 4 -5 15 -2 17 4 85 -14
136 -36 11 -5 51 -19 89 -30 37 -12 87 -34 110 -50 22 -16 51 -31 62 -35 12
-4 29 -15 39 -26 10 -11 22 -20 26 -20 18 0 86 -55 144 -115 34 -36 65 -65 71
-65 5 -1 16 -15 25 -33 9 -18 31 -61 49 -96 31 -58 34 -73 38 -172 4 -95 2
-115 -17 -159 -13 -29 -19 -59 -16 -73 5 -18 0 -28 -19 -41 -14 -9 -26 -26
-26 -37 0 -13 -37 -58 -99 -120 -55 -54 -104 -99 -109 -99 -5 0 -37 -24 -70
-52 -109 -94 -144 -119 -241 -167 -53 -27 -109 -55 -126 -64 -65 -35 -328
-127 -490 -171 -93 -25 -197 -55 -230 -67 -33 -12 -73 -24 -90 -26 -16 -3 -34
-9 -40 -13 -5 -5 -39 -16 -74 -25 -65 -17 -184 -59 -342 -121 -48 -19 -95 -34
-106 -34 -11 0 -32 -9 -46 -20 -14 -11 -70 -44 -124 -72 -54 -28 -124 -69
-155 -90 -31 -21 -70 -54 -86 -73 -17 -18 -49 -47 -71 -63 -36 -26 -86 -78
-173 -177 -55 -62 -70 -86 -93 -143 -19 -47 -25 -81 -25 -136 0 -66 4 -81 36
-138 19 -34 46 -77 58 -93 13 -17 34 -36 47 -42 13 -7 50 -20 82 -29 44 -12
57 -19 53 -31 -10 -25 -50 -70 -76 -86 -23 -13 -32 -12 -95 9 -38 12 -87 31
-107 42 -20 11 -52 32 -70 47 -48 40 -105 130 -120 189 -17 70 -17 297 1 361
8 28 35 90 60 139 53 102 55 106 99 166 50 69 119 146 202 228 121 120 152
147 215 188 33 21 89 60 124 86 36 27 75 51 88 54 13 4 23 10 23 15 0 5 24 20
53 33 30 13 72 37 95 54 23 16 58 33 78 37 20 3 54 17 75 31 21 13 49 24 63
24 21 0 60 14 153 56 17 8 37 14 45 14 7 0 41 10 73 21 33 12 87 30 120 40
219 65 287 90 420 154 51 25 101 45 110 45 32 0 123 69 169 128 24 31 54 68
66 82 20 23 21 32 16 98 -4 41 -16 99 -28 129 -30 80 -103 171 -168 210 -75
45 -178 93 -220 105 -93 25 -159 37 -202 38 -26 0 -58 4 -72 9 -13 6 -51 11
-83 11 -85 2 -282 -17 -355 -34 -35 -8 -105 -24 -156 -35 -53 -13 -126 -39
-173 -62 -73 -37 -83 -46 -101 -87 l-21 -46 22 -41 c12 -23 42 -54 69 -73 64
-44 139 -63 203 -53 28 5 55 13 62 20 16 16 44 14 51 -5 14 -36 5 -59 -34 -86
-22 -15 -51 -30 -65 -34 -14 -3 -33 -16 -43 -28 -14 -17 -31 -22 -92 -26 -131
-9 -272 -2 -335 15 -74 21 -177 70 -230 110 -53 40 -113 101 -129 134 -12 23
-16 46 -31 149 -6 44 15 87 68 138 47 45 78 69 166 126 14 9 63 35 109 58 45
23 82 45 82 50 0 12 57 39 94 46 17 3 35 9 41 15 5 5 15 9 23 9 8 0 27 9 43
21 16 11 41 22 56 25 14 3 34 9 44 14 10 6 46 12 81 14 35 2 77 11 93 20 17 9
50 15 75 15 25 -1 58 4 75 11 37 14 259 23 300 12 18 -5 45 -4 70 3 22 6 46
12 55 12 8 0 20 -6 25 -12z m-8159 -18 c22 -8 79 -15 129 -16 49 -1 94 -6 99
-11 6 -6 3 -24 -7 -47 -20 -45 -36 -111 -44 -173 -3 -25 -8 -60 -12 -79 l-6
-34 -44 59 c-25 33 -56 75 -71 94 -34 45 -76 123 -94 178 -12 34 -13 42 -2 42
8 0 31 -6 52 -13z m434 -82 c23 -27 124 -83 185 -101 33 -10 67 -24 77 -32 14
-11 31 -50 55 -124 3 -11 0 -18 -8 -18 -19 0 -152 65 -222 109 -45 28 -63 47
-82 88 -14 28 -29 54 -35 58 -10 6 -2 35 10 35 4 0 13 -7 20 -15z m-154 -122
c20 -32 52 -75 72 -95 l35 -37 3 -103 c1 -57 0 -106 -3 -110 -6 -11 -74 25
-105 56 -14 15 -38 57 -53 94 -26 66 -27 69 -15 159 7 51 16 93 21 93 5 0 25
-26 45 -57z m-1781 -157 c77 -8 158 -21 180 -29 22 -8 69 -25 105 -37 36 -12
81 -31 100 -41 19 -10 68 -35 108 -55 40 -20 80 -47 89 -60 13 -20 14 -54 9
-226 -4 -112 -9 -216 -11 -233 -2 -16 -7 -58 -11 -92 -4 -35 -10 -63 -15 -63
-4 0 -9 6 -11 14 -4 15 -95 96 -109 96 -5 0 -42 16 -82 36 -104 52 -191 84
-250 91 -89 10 -257 10 -372 0 -108 -9 -192 -32 -245 -68 -43 -29 -101 -49
-141 -49 -21 0 -41 4 -44 10 -10 16 13 48 58 78 36 25 131 61 242 93 17 4 102
13 190 19 88 6 169 11 180 11 41 0 172 -33 223 -57 29 -13 60 -24 68 -24 9 0
63 -22 120 -50 57 -27 109 -50 114 -50 6 0 10 8 10 18 -1 24 -85 72 -235 133
-24 9 -122 41 -185 60 -31 10 -102 14 -230 13 -167 0 -195 -3 -289 -27 -121
-32 -220 -70 -273 -105 -39 -25 -93 -100 -102 -142 -4 -14 -2 -31 3 -39 7 -11
18 -11 68 2 38 9 74 12 99 8 43 -8 108 -46 140 -82 26 -29 53 -108 64 -187 5
-40 4 -64 -5 -82 -16 -30 -49 -61 -91 -87 -17 -10 -43 -26 -57 -36 -14 -10
-59 -30 -99 -44 -59 -20 -83 -23 -123 -17 -27 4 -69 6 -92 5 -55 -2 -158 45
-233 107 -56 45 -90 98 -90 141 0 10 -6 24 -14 30 -14 12 -24 84 -29 201 -1
30 -5 60 -9 66 -9 14 18 128 43 183 36 78 115 184 177 241 76 68 117 100 130
100 5 0 13 7 16 16 3 8 25 24 48 35 24 11 50 24 58 29 14 8 42 22 172 79 27
12 78 25 115 31 38 5 86 15 108 21 22 6 89 15 150 19 60 4 112 8 115 8 3 1 68
-5 145 -12z m9620 -77 c44 -7 102 -21 130 -31 27 -10 63 -18 79 -18 17 0 72
-20 123 -45 57 -28 108 -61 132 -87 22 -23 58 -77 80 -120 43 -85 60 -162 42
-195 -28 -53 -131 -158 -162 -166 -11 -3 -19 -2 -17 1 28 52 51 113 55 143 5
37 -8 117 -30 174 -6 17 -26 48 -45 71 -23 28 -63 56 -125 87 -51 26 -128 56
-172 67 -44 12 -151 27 -239 36 -123 11 -178 12 -245 4 -47 -6 -111 -19 -141
-29 -72 -24 -150 -61 -175 -84 -36 -33 -85 -59 -100 -53 -20 7 -20 65 0 93 16
23 125 83 152 83 10 1 43 10 73 22 30 11 80 22 110 23 30 1 75 8 100 15 25 7
95 15 155 19 61 3 117 5 125 4 8 -1 51 -7 95 -14z m-3967 -159 c22 -11 45 -20
50 -20 8 0 145 -86 228 -143 30 -21 193 -166 244 -218 169 -171 272 -281 293
-314 14 -22 38 -85 52 -139 18 -66 34 -105 49 -117 11 -10 26 -18 32 -19 31
-1 24 65 -21 189 -14 41 -36 88 -48 104 -12 16 -61 71 -109 121 -170 179 -198
211 -198 228 0 9 9 20 21 23 25 8 71 -22 183 -117 43 -38 84 -68 91 -68 7 0
51 -30 97 -66 45 -37 99 -77 118 -90 19 -12 53 -40 75 -61 52 -50 110 -122
110 -136 0 -6 -18 -18 -40 -26 -72 -26 -279 -111 -333 -137 -30 -14 -60 -23
-68 -20 -8 3 -14 13 -14 22 0 21 -48 106 -66 117 -7 4 -29 36 -48 70 -20 34
-54 82 -76 107 -22 25 -56 68 -74 95 -52 77 -299 335 -321 335 -3 0 -36 27
-73 59 -73 67 -206 143 -261 151 -50 7 -52 33 -4 64 21 14 45 25 54 25 8 1 34
-8 57 -19z m-146 -99 c24 -16 54 -32 68 -36 31 -10 92 -48 117 -73 10 -10 39
-34 66 -52 26 -18 47 -37 47 -41 0 -4 8 -10 18 -14 11 -3 43 -29 72 -58 90
-88 190 -198 215 -236 13 -20 45 -58 70 -86 47 -50 156 -208 190 -275 9 -19
24 -43 33 -52 12 -14 12 -20 2 -33 -7 -8 -18 -15 -24 -15 -6 0 -23 -6 -37 -14
-15 -7 -50 -21 -79 -31 -29 -10 -64 -24 -79 -31 -14 -8 -29 -14 -32 -14 -4 0
-51 -21 -105 -47 -55 -26 -126 -56 -159 -68 -46 -15 -61 -25 -63 -42 -4 -28
30 -47 69 -39 25 5 308 133 547 248 45 21 111 48 145 59 34 11 94 35 132 54
39 19 135 59 214 90 79 31 158 66 175 76 17 10 49 19 71 19 91 0 325 -62 550
-145 39 -14 79 -30 90 -35 11 -5 56 -23 100 -39 44 -16 94 -36 110 -44 17 -8
83 -40 148 -71 116 -56 187 -106 187 -131 0 -8 -43 -58 -96 -112 -53 -54 -123
-129 -155 -168 -50 -60 -166 -223 -206 -290 -25 -43 -42 -81 -46 -110 -3 -16
-9 -46 -14 -65 l-9 -35 -74 -7 c-41 -3 -194 -6 -340 -6 -368 0 -630 -8 -662
-21 -29 -11 -503 -26 -738 -23 -137 1 -202 11 -295 44 -16 6 -61 16 -100 23
-38 8 -104 23 -145 35 -132 38 -203 58 -288 85 -46 14 -100 25 -120 25 -41 1
-86 10 -182 35 -36 10 -74 19 -85 20 -11 1 -47 3 -81 4 -36 0 -68 7 -80 16
-12 9 -15 17 -9 22 6 5 26 28 45 53 19 25 44 56 56 70 76 87 93 109 113 149
12 24 25 62 28 85 4 22 6 91 4 151 -1 78 -8 130 -23 178 -13 42 -17 72 -12 77
6 6 31 -1 64 -17 51 -24 219 -87 265 -100 11 -4 29 -12 40 -20 11 -7 27 -13
36 -13 10 0 19 -3 21 -7 5 -13 87 -54 136 -69 26 -7 97 -39 157 -70 61 -31
141 -67 179 -80 51 -17 73 -21 87 -13 10 5 19 16 19 23 0 7 -8 20 -19 30 -18
16 -150 75 -220 97 -20 6 -78 31 -129 55 -51 24 -97 44 -102 44 -5 0 -39 16
-76 36 -71 38 -119 56 -276 104 -54 17 -122 41 -152 54 -47 21 -58 31 -77 73
-12 26 -48 88 -80 137 -33 48 -59 91 -59 95 0 4 -13 20 -30 36 -16 16 -30 38
-30 50 0 15 23 35 86 75 47 30 107 70 133 88 25 17 57 37 71 42 14 5 32 14 40
20 8 5 38 22 65 36 28 15 82 48 120 74 70 47 142 94 180 116 94 54 132 74 147
74 9 0 36 -13 60 -29z m2721 -154 c37 -36 189 -115 270 -141 30 -10 106 -19
198 -23 82 -3 149 -10 149 -14 0 -9 -56 -27 -105 -35 -16 -3 -54 -10 -84 -15
-38 -8 -56 -8 -64 0 -6 6 -31 11 -56 11 -26 0 -59 7 -74 15 -15 8 -49 19 -75
24 -89 19 -107 24 -137 41 -23 13 -31 26 -37 58 -4 22 -14 54 -22 71 -9 16
-16 32 -16 36 0 13 20 2 53 -28z m-7014 -44 c21 -21 71 -65 110 -98 40 -33 89
-85 110 -115 63 -93 102 -169 116 -223 7 -29 23 -90 35 -137 18 -69 21 -103
17 -185 -3 -55 -10 -125 -15 -155 -12 -67 -68 -214 -88 -230 -8 -7 -14 -18
-14 -24 0 -7 -15 -30 -33 -52 -18 -21 -40 -51 -50 -66 -9 -14 -46 -50 -83 -80
-36 -29 -103 -87 -147 -130 -68 -63 -105 -88 -213 -142 -72 -36 -136 -66 -141
-66 -6 0 -31 -11 -57 -25 -64 -34 -311 -115 -350 -115 -18 0 -36 -4 -41 -9 -6
-6 -62 -19 -125 -31 -63 -12 -164 -33 -225 -46 -60 -14 -146 -31 -190 -38 -93
-16 -263 -50 -350 -71 -66 -16 -164 -36 -295 -59 -47 -9 -123 -25 -170 -36
-47 -11 -97 -20 -113 -20 -15 0 -35 -4 -45 -9 -9 -5 -46 -16 -82 -25 -198 -46
-289 -69 -325 -81 -39 -13 -172 -72 -227 -101 -14 -8 -36 -14 -48 -14 -22 0
-71 -47 -94 -90 -37 -70 -46 -84 -58 -91 -7 -5 -21 -9 -30 -9 -14 0 -18 8 -18
33 0 50 25 123 54 162 32 42 154 141 243 198 78 49 187 107 203 107 5 0 32 10
58 21 26 12 65 30 87 40 97 43 206 73 345 94 25 4 50 11 55 15 10 8 69 26 140
42 22 5 63 11 90 13 58 5 224 32 276 46 20 5 59 9 86 9 27 0 54 5 60 11 5 5
50 16 99 24 49 7 132 25 184 40 52 14 128 35 168 45 94 25 269 83 352 118 36
14 85 37 110 50 25 13 78 41 119 63 83 44 201 125 201 139 0 5 30 37 66 72 75
72 164 193 194 264 12 27 25 86 29 135 6 59 4 112 -5 169 -8 46 -21 99 -30
118 -15 32 -22 84 -40 322 -4 53 -2 113 6 160 12 74 23 100 42 100 5 0 27 -17
47 -37z m-1555 -423 c14 -22 26 -53 26 -69 0 -16 5 -33 11 -36 6 -4 8 -26 5
-53 -3 -34 -12 -53 -30 -69 -14 -12 -26 -24 -26 -27 0 -3 -9 -16 -21 -29 -11
-14 -28 -39 -37 -57 -12 -24 -37 -44 -87 -70 -38 -20 -86 -42 -105 -48 -52
-17 -217 -24 -280 -11 -30 6 -82 26 -115 45 -65 36 -135 95 -135 113 0 14 27
14 35 0 9 -14 113 -59 137 -59 10 0 40 -10 66 -21 41 -19 58 -21 137 -16 57 4
103 13 125 24 19 10 61 36 93 58 32 22 73 48 90 58 18 11 42 28 53 39 12 10
26 41 31 68 7 35 6 66 -3 112 -8 35 -14 69 -14 76 0 23 17 12 44 -28z m11167
-7 c-6 -10 -30 -37 -53 -61 -57 -57 -171 -152 -182 -152 -4 0 -36 -22 -70 -48
-60 -47 -126 -87 -196 -116 -203 -87 -468 -180 -725 -255 -60 -18 -137 -41
-170 -51 -33 -10 -93 -26 -132 -34 -72 -16 -93 -24 -248 -96 -44 -20 -96 -43
-115 -50 -19 -7 -53 -21 -76 -31 -22 -11 -44 -19 -48 -19 -5 0 -25 -15 -46
-32 -52 -46 -79 -68 -85 -68 -8 0 -162 -125 -224 -182 -32 -29 -74 -75 -93
-103 -20 -27 -45 -79 -57 -115 -12 -36 -26 -73 -31 -82 -13 -23 -13 -60 1 -95
17 -45 77 -111 117 -129 61 -26 76 -32 100 -39 42 -12 22 -21 -30 -14 -84 11
-146 38 -171 73 -34 47 -52 85 -72 148 -15 48 -16 66 -6 120 17 100 61 174
165 279 159 161 260 244 359 295 50 26 105 55 122 65 43 26 93 48 150 65 28 9
66 22 85 29 97 39 229 85 242 85 7 0 38 9 68 20 30 11 65 20 77 20 12 0 47 9
77 20 30 12 99 32 153 45 54 13 112 29 128 36 17 6 37 13 45 15 94 19 127 29
140 39 8 6 42 19 75 29 33 9 83 27 110 40 28 13 77 34 110 47 33 12 76 35 96
50 41 32 87 53 110 50 9 -1 31 12 49 29 44 41 106 90 115 90 4 0 34 23 67 50
33 28 64 50 69 50 6 0 6 -7 0 -17z m-7544 -205 c-3 -8 -6 -5 -6 6 -1 11 2 17
5 13 3 -3 4 -12 1 -19z m-5990 -687 c21 -6 57 -15 81 -21 27 -7 42 -16 42 -27
0 -13 -6 -14 -32 -7 -39 10 -251 12 -365 2 -45 -3 -90 -11 -100 -16 -10 -5
-34 -12 -53 -16 -67 -12 -185 -54 -257 -91 -50 -26 -91 -58 -140 -109 -37 -40
-81 -87 -96 -104 -33 -37 -68 -130 -69 -181 0 -20 5 -48 11 -63 6 -16 9 -28 6
-28 -8 0 -34 65 -40 100 -3 19 -8 43 -11 53 -3 9 -1 17 5 17 6 0 11 9 11 20 0
33 83 193 114 220 71 61 177 133 252 170 73 37 89 41 185 47 57 3 110 10 117
16 26 21 280 34 339 18z m11758 -41 c34 -62 125 -264 125 -276 0 -18 -40 -18
-66 0 -11 8 -44 45 -72 83 -29 37 -75 84 -102 103 -38 27 -49 40 -47 59 1 18
13 28 47 41 25 10 58 18 73 17 19 -1 33 -10 42 -27z m-115 -150 c61 -61 97
-106 94 -115 -4 -9 -20 -13 -52 -12 -26 1 -140 -4 -255 -12 -114 -8 -210 -11
-214 -8 -3 4 4 19 18 33 28 30 228 179 267 200 15 8 31 14 35 14 5 0 53 -45
107 -100z m-10810 -97 c0 -4 -12 -24 -26 -44 -14 -21 -45 -47 -68 -58 -76 -35
-166 -53 -266 -52 -52 0 -121 7 -153 16 -73 19 -157 55 -157 66 0 5 -7 9 -16
9 -9 0 -14 7 -12 18 2 10 12 16 23 16 11 -1 58 -14 105 -29 61 -19 108 -27
166 -27 90 -1 224 17 295 39 25 7 55 22 65 33 19 19 44 26 44 13z"/>
<path d="M5649 7125 c-13 -13 -29 -25 -35 -25 -6 0 -29 -13 -51 -29 -24 -18
-57 -31 -79 -33 -31 -2 -40 -7 -42 -24 -2 -12 4 -29 13 -38 9 -9 28 -16 43
-16 19 0 47 19 96 65 41 38 79 65 91 65 12 0 37 -13 55 -30 18 -16 41 -30 50
-30 9 0 38 7 64 16 l48 17 25 -27 c13 -15 28 -24 34 -21 5 4 9 21 9 39 0 36
-25 66 -56 66 -11 0 -29 -7 -40 -15 -10 -8 -30 -15 -42 -15 -14 0 -36 13 -52
30 -22 24 -36 30 -68 30 -29 0 -46 -6 -63 -25z"/>
<path d="M4626 7008 c-25 -16 -46 -36 -46 -43 0 -8 -6 -20 -12 -27 -22 -22
-42 -68 -34 -75 4 -4 28 16 53 45 34 39 52 52 72 52 18 0 40 -12 64 -35 20
-19 45 -35 56 -35 11 0 35 9 53 20 18 11 38 20 44 20 7 0 35 -16 64 -35 52
-35 80 -44 80 -25 0 5 -8 14 -18 19 -10 5 -27 27 -37 48 -11 21 -28 48 -39 61
-11 12 -29 22 -41 22 -12 0 -32 -11 -45 -25 -13 -14 -31 -25 -40 -25 -9 0 -25
9 -36 21 -21 24 -47 39 -74 44 -10 2 -39 -10 -64 -27z"/>
<path d="M5673 6837 c-17 -6 -34 -19 -37 -30 -4 -16 -1 -18 17 -12 12 4 41 10
64 12 38 4 78 -5 146 -32 12 -5 17 -2 17 9 0 9 -4 16 -10 16 -5 0 -20 11 -34
25 -21 21 -34 25 -78 24 -29 -1 -67 -7 -85 -12z"/>
<path d="M4780 6715 c-25 -8 -62 -31 -82 -50 -21 -19 -38 -44 -38 -55 0 -11 2
-20 4 -20 2 0 31 18 64 40 44 30 70 40 99 40 30 0 48 -7 73 -30 18 -16 39 -30
46 -30 10 0 11 7 3 29 -5 15 -22 40 -37 54 -15 15 -41 29 -57 31 -17 3 -50 -1
-75 -9z"/>
<path d="M6720 6710 c14 -11 31 -20 38 -20 7 0 20 -7 28 -15 16 -16 44 -20 44
-7 0 4 -18 19 -39 35 -22 15 -52 27 -68 27 l-28 0 25 -20z"/>
<path d="M5719 6608 c-16 -13 -39 -88 -39 -128 0 -11 12 -32 26 -45 17 -16 39
-25 59 -25 18 0 38 6 44 14 6 7 9 20 5 29 -3 8 -1 18 5 22 19 11 12 71 -11
101 -12 16 -22 30 -22 31 -1 1 -12 4 -26 8 -15 3 -32 0 -41 -7z m61 -123 c0
-8 -4 -15 -10 -15 -5 0 -10 7 -10 15 0 8 5 15 10 15 6 0 10 -7 10 -15z"/>
<path d="M4802 6468 c-5 -7 -11 -20 -12 -28 -1 -8 -2 -39 -1 -68 1 -47 5 -58
36 -89 20 -20 42 -33 52 -31 10 2 17 11 15 19 -2 8 0 11 4 6 4 -4 16 0 26 10
11 10 18 30 18 54 0 40 -30 104 -59 126 -21 16 -66 16 -79 1z m80 -104 c10
-20 9 -27 -2 -34 -8 -5 -18 -6 -22 -4 -12 7 -10 64 2 64 6 0 16 -12 22 -26z"/>
<path d="M5148 6105 c-12 -25 -27 -45 -33 -45 -7 0 -18 -12 -26 -26 -13 -25
-12 -28 11 -43 13 -9 33 -26 44 -38 29 -34 108 -71 162 -78 49 -6 82 4 71 22
-4 6 -28 13 -54 17 -57 7 -133 35 -133 48 0 18 27 18 91 2 35 -9 77 -18 92
-21 26 -5 28 -3 25 18 -4 33 -59 58 -143 66 -37 3 -69 11 -71 18 -3 6 2 28 11
48 9 21 13 42 10 47 -13 22 -36 7 -57 -35z"/>
<path d="M5700 6013 c0 -5 29 -33 64 -63 36 -30 65 -59 65 -64 1 -6 13 -22 28
-38 23 -24 24 -29 12 -45 -12 -15 -12 -16 2 -11 15 6 36 -8 64 -44 6 -7 26
-44 46 -83 19 -38 63 -124 97 -190 52 -100 64 -134 74 -203 11 -75 14 -83 33
-80 16 2 21 12 23 53 2 27 -4 74 -14 105 -26 87 -169 367 -234 460 -33 47 -60
95 -60 106 0 16 -6 22 -25 22 -14 0 -34 7 -44 16 -9 9 -21 16 -24 16 -4 0 -25
11 -47 25 -40 25 -60 31 -60 18z"/>
<path d="M4907 5663 c-10 -10 -8 -114 4 -195 20 -138 40 -212 70 -262 33 -54
87 -112 95 -103 5 5 -29 75 -67 134 -12 18 -27 59 -34 91 -8 32 -17 108 -20
168 -3 60 -8 124 -11 142 -6 30 -22 41 -37 25z"/>
<path d="M5435 5525 c-27 -6 -64 -19 -82 -28 -18 -10 -40 -17 -50 -17 -17 -1
-60 -52 -91 -106 -14 -26 -28 -170 -19 -205 8 -29 53 -79 71 -79 11 0 10 11
-6 53 -17 43 -19 66 -14 131 3 43 13 95 23 115 14 28 29 40 66 53 58 22 181
48 223 48 17 0 72 -20 121 -45 83 -42 108 -62 191 -152 16 -18 37 -33 46 -33
9 0 19 6 22 14 3 8 -2 27 -12 43 -35 57 -124 131 -213 177 -83 42 -96 46 -158
45 -37 -1 -90 -7 -118 -14z"/>
<path d="M5923 5423 c4 -3 10 -3 14 0 3 4 0 7 -7 7 -7 0 -10 -3 -7 -7z"/>
<path d="M6487 4423 c-11 -10 -8 -63 3 -63 6 0 10 16 10 35 0 19 -1 35 -3 35
-2 0 -7 -3 -10 -7z"/>
<path d="M6005 3620 c-4 -6 20 -37 53 -68 34 -31 84 -86 112 -122 49 -61 80
-119 127 -235 12 -27 28 -88 36 -135 22 -123 21 -249 -2 -350 -30 -127 -44
-170 -74 -227 -15 -29 -27 -55 -27 -58 0 -3 4 -5 9 -5 5 0 11 10 14 22 4 12 9
19 13 15 8 -8 49 66 70 127 28 78 51 218 53 329 1 80 -2 124 -13 156 -9 24
-16 56 -16 72 0 30 -14 68 -40 109 -9 14 -22 42 -29 64 -7 21 -24 54 -36 72
-26 38 -126 157 -136 162 -4 2 -25 21 -47 42 -22 22 -45 40 -51 40 -5 0 -13
-5 -16 -10z"/>
<path d="M4513 3083 c4 -3 10 -3 14 0 3 4 0 7 -7 7 -7 0 -10 -3 -7 -7z"/>
<path d="M3029 6666 c-3 -4 -39 -8 -80 -9 -41 -2 -85 -9 -99 -16 -49 -24 -73
-39 -109 -73 -20 -18 -49 -40 -65 -48 -16 -8 -52 -37 -81 -65 -45 -43 -53 -57
-59 -99 -4 -27 -10 -55 -13 -63 -3 -8 -16 -18 -28 -23 -19 -7 -23 -16 -24 -61
0 -29 -3 -60 -6 -70 -8 -24 31 -131 69 -188 17 -27 56 -69 86 -95 29 -25 58
-46 63 -46 5 0 22 -11 39 -25 16 -14 42 -28 56 -32 15 -3 41 -16 57 -28 28
-21 46 -27 117 -42 16 -3 36 1 50 11 12 9 34 16 48 16 14 1 70 25 124 54 66
36 122 75 165 118 37 35 76 82 88 104 11 22 24 55 28 74 4 19 11 40 16 46 15
18 59 147 59 171 0 12 -9 37 -20 55 -11 18 -20 41 -20 50 0 9 -15 32 -32 50
-46 47 -124 110 -156 127 -15 8 -34 18 -42 22 -8 5 -45 25 -82 44 -64 33 -137
53 -149 41z m148 -132 c22 -3 41 -17 61 -42 16 -20 38 -53 48 -72 10 -19 26
-80 36 -134 l17 -99 -24 -52 c-14 -29 -25 -56 -25 -62 0 -5 -29 -38 -64 -74
-35 -35 -83 -74 -107 -85 -57 -28 -149 -55 -160 -48 -5 3 -34 0 -64 -6 -51
-11 -60 -10 -103 11 -26 13 -67 44 -92 69 -27 28 -53 68 -65 101 -14 39 -20
78 -19 139 0 67 5 95 23 131 12 26 21 51 19 58 -2 6 20 24 47 39 38 21 50 33
51 52 2 44 4 50 15 50 5 0 7 -5 4 -10 -4 -6 -4 -18 -1 -26 5 -12 10 -13 28 -3
13 7 26 16 29 22 4 5 28 12 54 15 27 2 66 13 89 23 32 14 56 17 106 13 36 -3
79 -7 97 -10z m252 -179 c12 -25 21 -60 21 -78 0 -19 -5 -49 -11 -66 -8 -24
-14 -30 -23 -21 -6 6 -14 45 -17 88 -4 42 -10 87 -14 100 -5 16 -3 22 8 22 8
0 24 -20 36 -45z m-51 -296 c-22 -67 -53 -121 -93 -162 -45 -48 -99 -87 -120
-87 -7 0 -34 -9 -60 -20 -26 -11 -53 -20 -61 -20 -20 0 -17 30 4 36 62 20 122
51 161 83 55 45 131 121 131 132 0 11 42 81 46 76 2 -2 -2 -19 -8 -38z"/>
<path d="M6705 2281 c-112 -52 -152 -63 -259 -73 -107 -9 -112 -10 -139 -41
-16 -18 -44 -49 -63 -69 -19 -21 -34 -43 -34 -48 0 -6 -20 -42 -45 -80 -48
-74 -108 -197 -131 -270 -8 -25 -17 -79 -20 -120 -6 -67 -4 -77 14 -93 11 -11
26 -16 31 -12 6 3 11 38 11 79 0 41 3 88 6 106 4 17 13 34 21 37 20 8 83 -28
83 -48 0 -9 -7 -22 -15 -29 -8 -7 -15 -25 -15 -41 0 -25 5 -30 42 -40 23 -6
74 -26 114 -44 40 -19 90 -38 111 -44 48 -14 124 -14 158 -1 15 6 25 16 23 23
-3 6 -18 13 -34 15 -84 7 -97 13 -155 74 -33 34 -59 70 -59 80 0 10 9 26 19
36 10 9 31 28 45 41 15 13 38 43 52 67 18 31 28 66 33 124 7 64 14 86 32 106
12 13 28 24 34 24 7 0 35 10 64 21 28 12 51 28 51 35 0 8 -6 14 -13 14 -21 0
-124 -37 -155 -56 -16 -9 -35 -26 -42 -38 -8 -11 -15 -57 -17 -100 -3 -52 -11
-92 -23 -117 -11 -20 -37 -50 -59 -66 -22 -15 -47 -41 -56 -57 -17 -27 -17
-30 4 -66 14 -25 18 -41 11 -45 -6 -4 -27 2 -48 12 -26 13 -38 25 -40 43 -1
14 -5 35 -7 46 -3 12 -29 38 -60 59 -31 20 -55 44 -55 53 0 26 75 176 137 274
32 50 64 90 77 94 11 4 53 8 93 10 45 1 106 13 160 30 48 15 97 33 108 41 11
7 33 13 48 13 23 0 44 -14 92 -62 91 -92 182 -171 219 -190 18 -9 47 -33 63
-52 17 -19 34 -51 37 -73 9 -51 57 -137 79 -141 13 -3 17 3 17 25 0 16 -6 37
-14 48 -7 11 -19 47 -27 79 -7 32 -23 72 -36 87 -13 15 -45 38 -71 50 -26 13
-59 37 -74 53 -16 17 -28 40 -28 53 0 14 8 24 23 29 12 4 37 17 56 30 18 12
40 20 47 17 10 -4 14 -23 14 -64 0 -51 3 -59 19 -59 11 0 23 12 31 29 8 21 9
39 1 67 -6 22 -12 50 -13 64 -4 35 -40 39 -62 6 -9 -14 -35 -35 -58 -47 -22
-11 -61 -21 -85 -22 -37 0 -49 5 -78 33 -19 19 -37 41 -40 50 -7 21 -57 50
-87 50 -12 0 -41 -8 -63 -19z"/>
<path d="M6789 1962 c10 -19 91 -83 146 -116 17 -10 53 -48 80 -83 28 -36 56
-71 63 -78 6 -8 12 -19 12 -25 0 -7 9 -23 20 -37 11 -14 20 -32 20 -39 0 -7
-8 -15 -17 -18 -23 -8 -87 -85 -78 -94 4 -4 28 16 54 45 40 45 53 53 103 63
32 6 64 18 72 26 8 7 12 23 9 33 -3 11 -15 23 -26 27 -16 5 -27 -1 -43 -22
-22 -27 -24 -28 -43 -10 -11 10 -23 31 -26 46 -3 16 -23 48 -43 72 -21 24 -49
59 -64 79 -30 41 -195 149 -227 149 -18 0 -20 -3 -12 -18z"/>
<path d="M6665 1870 c-14 -22 35 -91 135 -192 59 -60 114 -108 123 -108 9 0
17 5 17 11 0 9 -60 84 -120 149 -8 9 -39 47 -69 83 -30 37 -60 67 -67 67 -7 0
-16 -4 -19 -10z"/>
<path d="M6537 1673 c-16 -15 -4 -43 46 -104 28 -35 63 -81 77 -101 14 -21 31
-40 39 -43 8 -3 22 2 32 11 19 17 28 17 175 -2 35 -4 54 -3 59 6 4 6 4 14 1
17 -3 3 -45 14 -93 24 -48 10 -104 16 -124 13 -31 -5 -39 -2 -62 27 -15 19
-31 39 -35 44 -30 41 -95 115 -101 115 -4 0 -11 -3 -14 -7z"/>
<path d="M7510 1405 c0 -8 15 -22 33 -32 17 -9 59 -21 92 -25 33 -5 152 -12
265 -18 113 -5 230 -12 260 -15 33 -4 62 -14 74 -25 16 -15 17 -27 12 -74 -7
-51 -9 -56 -29 -50 -15 3 -35 -4 -57 -20 -19 -14 -46 -31 -60 -37 -72 -32
-114 -56 -134 -76 -11 -13 -26 -23 -33 -23 -18 0 -69 -80 -88 -138 -12 -37
-16 -73 -13 -124 3 -40 8 -81 13 -91 7 -16 3 -18 -26 -15 -28 2 -37 10 -54 43
-10 22 -21 60 -22 85 -2 25 -5 72 -9 105 -5 55 -8 61 -38 76 -26 14 -37 14
-55 5 -12 -7 -40 -38 -61 -69 -22 -32 -40 -60 -40 -62 0 -3 -13 -19 -30 -35
-16 -16 -30 -36 -30 -45 0 -8 -19 -32 -41 -52 -23 -21 -53 -50 -67 -65 -14
-16 -29 -28 -34 -28 -4 0 -8 14 -8 30 0 17 11 48 25 71 14 22 24 43 21 47 -6
10 5 26 26 38 25 14 150 204 146 223 -3 13 -17 16 -81 17 -52 0 -81 -4 -89
-13 -6 -7 -14 -13 -19 -13 -15 0 -59 -43 -82 -80 -11 -19 -34 -49 -50 -66 -15
-17 -35 -44 -44 -60 -8 -16 -21 -50 -29 -76 -8 -26 -21 -51 -28 -55 -7 -4 -21
-23 -30 -40 -17 -33 -37 -41 -59 -23 -7 6 -23 19 -37 30 l-25 20 28 23 c18 15
32 40 38 67 5 23 8 44 6 46 -2 2 -14 -4 -26 -13 -26 -18 -51 -70 -51 -106 0
-14 -7 -30 -15 -37 -8 -7 -15 -25 -15 -40 0 -24 5 -29 35 -34 19 -4 48 -18 64
-31 16 -14 36 -25 45 -25 8 0 22 10 30 23 8 12 17 42 21 67 4 25 16 57 26 72
11 14 19 30 19 35 0 20 50 55 89 64 42 9 91 3 91 -11 0 -4 -11 -18 -25 -31
-13 -13 -25 -27 -25 -32 0 -4 -11 -25 -25 -47 -14 -22 -25 -46 -25 -54 0 -8 7
-22 16 -30 21 -21 107 -21 128 0 9 8 16 20 16 27 0 16 75 138 105 170 21 22
34 27 76 27 63 0 99 -22 99 -60 0 -41 35 -117 61 -130 14 -8 40 -10 72 -6 28
4 59 12 69 17 10 5 18 18 18 27 0 10 5 23 10 28 6 6 17 44 25 85 21 101 56
200 86 236 34 43 125 104 163 110 30 5 37 0 72 -43 21 -27 66 -77 100 -111 47
-49 67 -63 90 -63 16 1 40 7 54 15 14 8 38 14 53 15 22 0 27 -4 23 -17 -24
-85 -27 -117 -22 -236 5 -108 10 -134 27 -158 11 -16 32 -34 47 -41 15 -7 33
-27 41 -44 7 -17 26 -38 41 -47 32 -20 86 -30 153 -31 26 -1 47 -4 47 -9 0 -4
18 -4 40 -1 27 5 45 2 57 -7 12 -11 52 -14 162 -14 141 1 148 2 188 28 23 14
44 31 48 37 3 5 18 10 33 10 15 0 43 10 62 21 50 31 117 100 130 134 6 17 10
68 9 115 -2 47 1 100 5 118 7 29 4 38 -21 65 -16 18 -40 49 -54 70 -13 20 -50
58 -83 84 -61 48 -157 92 -258 118 -33 9 -87 16 -121 17 -118 1 -232 -9 -271
-26 -44 -18 -139 -78 -172 -108 -12 -11 -50 -25 -85 -33 -35 -7 -65 -12 -67
-11 -1 2 1 17 4 35 4 21 16 37 30 43 13 6 24 15 24 19 0 4 20 11 45 15 48 7
75 25 75 50 0 23 -43 26 -90 6 -30 -13 -58 -18 -84 -14 -33 4 -54 19 -124 87
-57 55 -83 87 -80 97 5 11 29 17 88 22 81 7 81 7 112 -23 18 -17 35 -31 39
-31 4 0 10 -9 14 -19 3 -10 16 -21 28 -24 12 -3 32 -9 45 -12 42 -13 24 21
-52 99 -41 42 -80 76 -86 76 -7 0 -24 -9 -39 -19 -25 -18 -36 -19 -117 -11
-49 5 -136 16 -194 24 -58 7 -161 16 -230 19 -149 7 -313 25 -347 38 -13 5
-38 9 -54 9 -19 0 -29 -5 -29 -15z m851 -257 c17 -18 43 -48 56 -65 14 -18 33
-33 43 -33 10 0 23 -7 30 -15 15 -18 4 -74 -16 -82 -17 -6 -69 32 -124 90 -33
35 -40 49 -40 83 0 36 6 54 17 54 1 0 17 -15 34 -32z m814 -102 c74 -11 108
-23 190 -66 55 -29 104 -60 109 -68 5 -9 20 -26 32 -37 13 -12 30 -37 38 -56
10 -23 11 -41 4 -59 -17 -47 -78 -97 -157 -130 -42 -18 -89 -39 -106 -48 -22
-12 -66 -16 -183 -18 -99 -2 -159 -7 -168 -15 -8 -6 -14 -15 -14 -19 0 -18 54
-26 160 -24 68 2 133 8 160 17 25 8 71 23 102 32 32 10 63 24 69 31 6 8 19 14
28 14 10 0 39 14 65 31 27 16 54 28 61 25 8 -3 13 -25 14 -58 0 -70 -24 -112
-76 -128 -21 -7 -67 -25 -103 -40 -51 -22 -88 -29 -170 -34 -75 -5 -143 -2
-234 9 -105 14 -141 23 -205 53 -43 21 -91 48 -108 62 -19 17 -32 39 -36 63
-3 20 -13 45 -23 54 -15 16 -14 18 20 37 20 12 36 27 36 34 0 7 -7 29 -15 48
-8 20 -17 55 -21 79 -5 41 -4 45 25 59 17 9 35 25 41 36 6 12 34 32 63 45 29
13 63 30 77 38 60 35 79 40 129 33 30 -4 52 -3 56 4 3 5 16 10 28 10 12 0 63
-7 112 -14z"/>
<path d="M8688 668 c-16 -5 -28 -14 -28 -19 0 -14 31 -59 41 -59 4 0 25 -11
46 -25 31 -22 46 -25 97 -23 34 2 61 8 63 15 3 7 -19 19 -52 29 -32 10 -75 34
-99 55 -36 31 -45 35 -68 27z"/>
<path d="M13545 1310 c-3 -5 -16 -10 -28 -10 -50 0 -141 -32 -192 -68 -54 -37
-75 -66 -75 -103 0 -10 -4 -27 -9 -37 -5 -9 -17 -44 -26 -77 -9 -33 -23 -74
-32 -92 -10 -21 -14 -47 -11 -78 4 -35 14 -54 46 -87 23 -24 55 -60 73 -81 17
-20 43 -40 58 -43 14 -4 42 -15 61 -25 19 -10 56 -20 81 -24 25 -3 61 -16 78
-29 19 -14 40 -22 51 -19 11 3 20 0 20 -6 0 -15 33 -14 49 2 10 10 15 9 25 -5
7 -10 19 -18 26 -18 8 0 22 8 33 17 15 13 21 15 24 6 3 -7 11 -13 19 -13 9 0
12 5 9 10 -4 7 8 8 37 4 24 -3 49 -7 55 -9 7 -3 41 8 75 23 35 15 70 32 78 37
8 6 32 29 52 52 32 36 45 65 64 143 2 8 8 35 15 60 6 25 8 69 6 98 -4 37 -16
69 -44 113 -21 33 -56 81 -78 106 -21 24 -57 54 -79 65 -56 29 -143 59 -196
69 -25 4 -67 13 -95 18 -66 13 -162 14 -170 1z m147 -60 c24 -5 74 -17 113
-25 41 -10 85 -28 109 -46 22 -16 46 -29 53 -29 7 0 13 -6 13 -13 0 -7 15 -28
34 -46 40 -38 51 -84 40 -157 -4 -29 -17 -58 -34 -77 l-27 -31 -149 1 c-115 1
-156 5 -179 17 -16 9 -41 16 -55 16 -26 0 -98 23 -134 42 -22 12 -42 33 -81
90 -30 42 -55 135 -44 165 4 12 23 33 42 47 28 21 53 29 123 37 48 5 90 12 93
14 7 8 37 6 83 -5z m-392 -261 c0 -21 66 -92 115 -123 77 -48 93 -56 117 -56
13 0 55 -12 93 -25 51 -18 91 -25 145 -25 52 0 82 -5 98 -15 18 -13 29 -14 63
-5 23 7 64 23 90 38 27 14 50 24 53 21 2 -2 2 -18 -1 -35 -3 -17 -15 -43 -26
-58 -45 -55 -203 -75 -362 -47 -69 12 -102 22 -160 47 -16 7 -47 19 -67 28
-46 18 -133 83 -172 126 -26 30 -28 36 -21 86 4 37 11 54 21 54 8 0 14 -5 14
-11z m550 -409 c-8 -5 -16 -7 -18 -5 -3 2 -2 12 2 21 5 14 9 15 19 5 9 -9 9
-14 -3 -21z"/>
<path d="M1073 1303 c4 -3 10 -3 14 0 3 4 0 7 -7 7 -7 0 -10 -3 -7 -7z"/>
<path d="M7470 1289 c-19 -4 -60 -14 -90 -22 -30 -8 -95 -20 -145 -26 -95 -13
-195 -39 -195 -52 0 -5 -9 -13 -20 -19 -15 -8 -28 -7 -52 6 -18 9 -48 30 -66
45 -18 16 -41 29 -51 29 -24 0 -93 -34 -85 -42 3 -4 16 -3 29 2 19 7 36 0 94
-37 39 -26 71 -50 71 -55 0 -4 -13 -22 -30 -40 -16 -17 -30 -35 -30 -39 0 -5
-6 -9 -14 -9 -7 0 -24 14 -37 32 -30 40 -70 89 -86 106 -6 6 -21 12 -32 12
-39 0 -23 -37 44 -101 36 -34 65 -69 65 -76 0 -8 -26 -40 -58 -71 -32 -31 -79
-83 -105 -115 -41 -52 -47 -65 -47 -107 0 -31 6 -54 16 -64 8 -9 19 -16 22
-16 12 0 56 33 70 52 38 53 100 110 137 128 34 16 59 20 112 18 48 -2 67 -7
65 -15 -1 -7 1 -13 5 -13 10 1 51 44 93 100 19 25 37 47 40 50 3 3 29 31 58
62 48 49 53 58 43 77 -7 11 -21 21 -32 21 -11 0 -22 -7 -26 -16 -3 -9 0 -20 8
-26 10 -7 9 -8 -6 -3 -47 17 -55 16 -88 -9 -19 -14 -39 -26 -45 -26 -6 0 -45
-24 -87 -52 -42 -29 -91 -61 -110 -70 -18 -10 -36 -26 -40 -37 -3 -10 -19 -24
-34 -31 -16 -6 -43 -25 -60 -42 -24 -24 -32 -27 -37 -15 -12 32 42 106 172
234 73 73 146 139 161 146 46 24 167 47 242 47 39 0 85 6 103 14 18 7 53 20
78 27 28 9 46 21 48 32 4 19 -10 20 -68 6z"/>
<path d="M3270 1215 c-36 -8 -82 -14 -102 -14 -26 -1 -40 -7 -47 -20 -17 -31
6 -39 79 -30 36 4 79 12 97 17 38 12 394 8 583 -7 156 -13 407 -44 530 -67 47
-9 114 -29 150 -44 36 -15 89 -36 118 -46 29 -11 74 -36 99 -56 25 -21 48 -38
52 -38 3 0 23 -16 43 -34 l38 -35 -15 -41 c-8 -22 -20 -49 -28 -60 -7 -11 -12
-33 -9 -50 4 -27 8 -30 43 -30 21 0 41 5 44 10 8 13 72 13 80 1 3 -6 -2 -44
-10 -85 -13 -61 -14 -88 -5 -137 6 -33 8 -70 4 -82 -4 -12 -9 -28 -10 -36 -5
-29 36 -67 110 -104 42 -21 102 -43 134 -48 31 -6 82 -9 112 -6 96 9 203 37
262 70 74 41 92 75 83 158 -6 49 -4 63 13 86 36 51 36 70 2 139 l-31 64 -103
50 -103 50 -104 0 c-63 0 -126 -6 -159 -16 -30 -8 -59 -16 -65 -18 -5 -1 -29
-8 -53 -15 -23 -6 -71 -11 -105 -9 l-62 3 3 30 c1 17 8 42 13 57 6 15 9 38 5
51 -3 13 -18 36 -33 52 -41 40 -155 112 -193 120 -18 4 -63 20 -100 35 -37 15
-83 31 -101 35 -19 4 -54 13 -79 22 -58 19 -182 40 -245 42 -27 1 -68 6 -90
11 -22 5 -65 10 -95 10 -30 0 -73 5 -95 10 -22 6 -164 12 -315 14 -206 3 -291
1 -340 -9z m2194 -484 c17 -5 50 -15 74 -22 35 -10 51 -24 83 -67 26 -37 39
-66 39 -87 0 -27 -8 -39 -47 -69 -25 -20 -52 -36 -60 -36 -7 0 -13 -3 -13 -8
0 -4 -14 -13 -31 -21 -22 -10 -50 -12 -97 -7 -96 9 -183 27 -212 42 -41 22
-77 57 -94 92 -11 21 -15 47 -12 73 3 31 13 48 38 70 18 15 44 28 58 29 14 0
32 5 40 10 19 12 194 13 234 1z m-322 -306 c27 -18 50 -25 87 -25 28 0 70 -6
93 -14 66 -21 133 -28 204 -20 56 6 67 10 74 30 6 14 18 24 29 24 16 0 19 -7
19 -50 1 -27 0 -50 -1 -51 -8 -3 -211 -21 -293 -25 -98 -6 -103 -5 -175 26
-41 18 -76 34 -77 35 -2 2 -10 21 -17 42 -7 21 -11 41 -8 45 8 14 28 9 65 -17z"/>
<path d="M3640 1059 c-179 -8 -268 -17 -430 -43 -58 -9 -152 -23 -210 -32 -58
-8 -113 -18 -122 -20 -10 -3 -18 -10 -18 -16 0 -7 26 -9 78 -5 88 7 305 33
342 41 90 20 533 28 775 14 93 -5 159 -14 195 -27 30 -10 75 -24 100 -31 25
-7 55 -16 68 -21 13 -5 30 -9 39 -9 29 0 166 -73 201 -107 35 -34 126 -83 155
-83 29 0 30 22 1 50 -16 16 -51 45 -79 64 -108 77 -191 120 -274 142 -47 13
-111 32 -141 43 -69 24 -299 52 -422 49 -51 0 -167 -5 -258 -9z"/>
<path d="M5105 899 c-33 -11 -72 -25 -87 -31 -28 -10 -37 -31 -19 -43 6 -3 25
3 43 13 18 10 61 26 96 37 34 10 61 23 59 29 -2 6 -10 12 -18 13 -8 2 -41 -7
-74 -18z"/>
<path d="M3055 889 c-50 -12 -110 -37 -160 -66 -44 -25 -84 -52 -89 -61 -4 -8
-17 -23 -29 -35 -22 -22 -45 -109 -53 -203 -4 -40 0 -83 12 -130 9 -38 23 -79
31 -91 8 -12 44 -36 80 -54 47 -23 83 -33 131 -36 37 -2 101 -10 142 -18 41
-8 94 -14 118 -15 29 0 72 12 128 38 58 25 93 47 111 70 13 18 22 40 19 47 -3
8 -16 15 -28 15 -13 0 -33 -6 -44 -14 -11 -8 -56 -20 -101 -26 -67 -10 -105
-9 -229 5 -82 9 -157 21 -166 26 -10 5 -18 13 -18 18 0 5 -18 11 -39 15 -34 5
-41 11 -55 47 -26 65 -1 80 48 28 16 -16 56 -44 89 -61 53 -26 68 -29 113 -24
29 3 65 1 84 -5 24 -9 50 -9 104 1 48 8 90 24 128 47 31 19 65 44 74 54 9 10
23 19 31 19 9 0 13 -15 13 -54 0 -30 4 -66 10 -81 8 -22 13 -24 29 -16 11 6
28 26 40 44 14 23 18 43 15 67 -10 73 -37 195 -45 205 -5 5 -9 15 -9 22 0 8
-18 43 -41 78 -28 45 -57 76 -92 99 -29 18 -72 38 -97 44 -25 6 -74 13 -110
16 -45 3 -90 -1 -145 -15z m274 -53 c42 -30 101 -109 116 -155 4 -13 4 -47 0
-77 -4 -37 -15 -64 -33 -85 -14 -18 -55 -45 -91 -62 -62 -28 -74 -30 -191 -31
l-126 -1 -71 54 c-41 31 -81 72 -94 95 -14 26 -23 57 -23 86 0 35 7 55 33 90
18 25 35 45 39 45 4 0 27 12 52 27 52 30 158 53 205 44 18 -4 42 -3 55 2 12 4
36 6 54 4 17 -3 51 -19 75 -36z"/>
</g>
</svg>
