<?xml version="1.0" encoding="UTF-8"?>
<svg id="a" data-name="Layer 1" xmlns="http://www.w3.org/2000/svg" viewBox="0 0 1200 630">
  <path d="M1199.99,240.1h.01v457.4H0V240.1h.01c-.01-.21-.01-.42-.01-.63,0-41.65,33.77-75.4,75.41-75.4.7,0,1.4,0,2.1.04-1.96-6.73-3.02-13.84-3.02-21.2,0-41.65,33.75-75.41,75.4-75.41s75.4,33.76,75.4,75.41c0,7.37-1.06,14.49-3.03,21.22,1.01-.04,2.01-.06,3.03-.06,38.83,0,70.81,29.35,74.94,67.09,4.13-37.74,36.12-67.09,74.95-67.09.7,0,1.4,0,2.1.04-1.96-6.73-3.02-13.84-3.02-21.2,0-41.65,33.75-75.41,75.4-75.41s75.4,33.76,75.4,75.41c0,7.37-1.06,14.49-3.03,21.22,1.01-.04,2.01-.06,3.03-.06,38.83,0,70.81,29.35,74.94,67.09,4.13-37.74,36.12-67.09,74.95-67.09.7,0,1.4,0,2.1.04-1.96-6.73-3.02-13.84-3.02-21.2,0-41.65,33.75-75.41,75.39-75.41s75.41,33.76,75.41,75.41c0,7.37-1.06,14.49-3.03,21.22,1.01-.04,2.01-.06,3.03-.06,38.83,0,70.81,29.35,74.94,67.09,4.13-37.74,36.12-67.09,74.95-67.09.7,0,1.4,0,2.1.04-1.96-6.73-3.02-13.84-3.02-21.2,0-41.65,33.75-75.41,75.39-75.41s75.41,33.76,75.41,75.41c0,7.37-1.06,14.49-3.03,21.22,1.01-.04,2.01-.06,3.03-.06,41.64,0,75.4,33.75,75.4,75.4,0,.21,0,.42-.01.63Z" style="fill: #d4d4d4;"/>
  <path d="M1199.99,249.95h.01v627.42H0V249.95h0c0-.29,0-.57,0-.86C0,248.52,0,247.95,0,247.38c.32-.01.63-.01.95-.01,41.65,0,75.41,33.76,75.41,75.41,0,7.37-1.06,14.49-3.03,21.22,1.01-.04,2.01-.06,3.03-.06,38.71,0,70.61,29.17,74.9,66.74,4.29-37.57,36.2-66.74,74.91-66.74.7,0,1.4.01,2.1.04-1.96-6.73-3.02-13.84-3.02-21.2,0-41.65,33.75-75.41,75.4-75.41s75.4,33.76,75.4,75.41c0,7.37-1.06,14.49-3.03,21.22,1.01-.04,2.01-.06,3.03-.06,38.83,0,70.81,29.35,74.94,67.09,4.13-37.74,36.12-67.09,74.95-67.09.7,0,1.4.01,2.1.04-1.96-6.73-3.02-13.84-3.02-21.2,0-41.65,33.75-75.41,75.4-75.41s75.4,33.76,75.4,75.41c0,7.37-1.06,14.49-3.03,21.22,1.01-.04,2.01-.06,3.03-.06,38.83,0,70.81,29.35,74.94,67.09,4.13-37.74,36.12-67.09,74.95-67.09.7,0,1.4.01,2.1.04-1.96-6.73-3.02-13.84-3.02-21.2,0-41.65,33.75-75.41,75.39-75.41s75.41,33.76,75.41,75.41c0,7.37-1.06,14.49-3.03,21.22,1.01-.04,2.01-.06,3.03-.06,38.83,0,70.81,29.35,74.94,67.09,4.13-37.74,36.12-67.09,74.95-67.09.7,0,1.4.01,2.1.04-1.96-6.73-3.02-13.84-3.02-21.2,0-41.65,33.75-75.41,75.39-75.41h.03c.01.57.01,1.15.01,1.72,0,.29,0,.57-.01.86Z" style="fill: #737373;"/>
  <path d="M1199.99,600.9h.01v457.4H0v-457.4h.01c-.01-.21-.01-.42-.01-.63,0-41.65,33.77-75.4,75.41-75.4.7,0,1.4,0,2.1.04-1.96-6.73-3.02-13.84-3.02-21.2,0-41.65,33.75-75.41,75.4-75.41s75.4,33.76,75.4,75.41c0,7.37-1.06,14.49-3.03,21.22,1.01-.04,2.01-.06,3.03-.06,38.83,0,70.81,29.35,74.94,67.09,4.13-37.74,36.12-67.09,74.95-67.09.7,0,1.4,0,2.1.04-1.96-6.73-3.02-13.84-3.02-21.2,0-41.65,33.75-75.41,75.4-75.41s75.4,33.76,75.4,75.41c0,7.37-1.06,14.49-3.03,21.22,1.01-.04,2.01-.06,3.03-.06,38.83,0,70.81,29.35,74.94,67.09,4.13-37.74,36.12-67.09,74.95-67.09.7,0,1.4,0,2.1.04-1.96-6.73-3.02-13.84-3.02-21.2,0-41.65,33.75-75.41,75.39-75.41s75.41,33.76,75.41,75.41c0,7.37-1.06,14.49-3.03,21.22,1.01-.04,2.01-.06,3.03-.06,38.83,0,70.81,29.35,74.94,67.09,4.13-37.74,36.12-67.09,74.95-67.09.7,0,1.4,0,2.1.04-1.96-6.73-3.02-13.84-3.02-21.2,0-41.65,33.75-75.41,75.39-75.41s75.41,33.76,75.41,75.41c0,7.37-1.06,14.49-3.03,21.22,1.01-.04,2.01-.06,3.03-.06,41.64,0,75.4,33.75,75.4,75.4,0,.21,0,.42-.01.63Z" style="fill: #404040;"/>
</svg>