<?xml version="1.0" encoding="UTF-8"?>
<svg id="a" data-name="Layer 1" xmlns="http://www.w3.org/2000/svg" width="512" height="512" viewBox="0 0 512 512">
  <rect x=".96" y="0" width="511.04" height="511.04" rx="129.52" ry="129.52"/>
  <g id="b" data-name="g31">
    <g id="c" data-name="g30">
      <g id="d" data-name="g29">
        <path id="e" data-name="path28" d="M479.57,269.37c-5.41.25-13.52,1.23-25.57,2.21-35.9,3.44-75.49,5.66-97.62,6.39h-.25c.49-6.15,1.23-15.25,1.72-22.38,2.7,0,4.67-2.21,4.67-4.92-.25-6.15-.49-13.28-.74-16.97-.74-9.84-8.61-9.34-9.84,2.21-.98,12.05-1.72,30.49-2.21,42.05v.25c-22.87.74-54.84,1.23-77.71.25-8.36-5.66-23.61-14.51-33.44-12.3-6.89,1.48-9.34,9.84-.74,14.02,8.61,3.93,29.02,4.43,38.61,4.67,38.11,25.57,62.21,75.25,70.82,120.49,0,15.74-.25,57.05,2.95,71.07,1.97,8.61,11.31,8.11,10.82-.98-.74-13.52-.74-36.64-8.11-69.34-.74-39.34.74-86.31,3.2-125.16h.49c35.66-2.46,68.61-5.16,97.62-4.92,6.39,0,21.89.49,28.03,1.97.98,1.23,1.97,1.72,2.95,1.97,4.67.74,8.11-5.9,3.2-8.85-1.72-1.23-4.43-1.72-8.85-1.72ZM240.31,274.53c-2.95-1.23-2.46-2.21-.49-2.7,6.89-1.72,19.43,3.2,25.82,6.64-6.64-.49-18.93-1.23-25.33-3.93ZM347.28,385.68c-12.3-39.84-33.44-75-66.89-100.82,21.39,0,47.46-1.72,69.1-3.44-.74,29.75-1.72,66.64-2.21,104.26Z" style="fill: #fff; stroke: #fff; stroke-miterlimit: 10; stroke-width: 20px;"/>
      </g>
    </g>
  </g>
  <g id="f" data-name="g46">
    <g id="g" data-name="g45">
      <g id="h" data-name="g44">
        <path id="i" data-name="path43" d="M148.09,162.17c16.74-19.28,29.93-51.49,28.92-78.88-2.03-47.43-46.92-58.85-87.51-38.81-.25-2.54-.51-5.58-1.27-8.62-1.52-6.59-8.12-6.59-8.62,1.78-.25,1.52-.51,10.15-.51,12.94-59.86,38.3-55.04,126.82-1.01,141.53-.25,21.81-.25,34.75-.76,52.5-28.92,22.07-32.47,60.37-14.2,82.18,29.68,35.26,95.12,9.13,126.06-25.11,51.74-57.58,30.69-145.08-41.09-139.5ZM79.1,54.37c-.25,22.07.76,25.11-4.06,31.71-2.54,3.3-.51,8.12,3.8,8.62-.25,25.87-.25,45.91-.76,89.54-48.45-8.62-56.31-93.34,1.01-129.87ZM184.36,297.36c-27.65,33.23-88.78,60.37-117.94,28.66-18.52-20.04-16.23-56.31,10.91-78.12-1.27,31.2-3.55,41.85-3.3,43.63.51,5.33,8.88,5.07,8.37-1.27-1.52-14.97-2.03-29.93-2.28-44.9,31.2-22.07,88.52-15.73,98.41-16.23,4.82-.25,4.57-7.36-.25-7.36-36.27,1.52-73.3,3.3-97.91,20.29-.25-16.49.25-29.68.51-49.21,4.82,1.27,14.97,2.54,16.99,2.54,7.1-.76,6.09-11.41-1.01-10.65-5.33.51-10.65.51-15.98-.25.25-3.04.76-37.29,2.79-92.07,6.85-9.38,6.34-32.21,5.58-43.88,33.99-15.98,78.63-10.4,78.63,35-.25,35.51-26.13,77.36-43.12,83.2-6.34,2.03-4.06,12.43,4.31,9.89,80.66-23.59,102.47,64.93,55.29,120.73Z" style="fill: #fff; stroke: #fff; stroke-miterlimit: 10; stroke-width: 20px;"/>
      </g>
    </g>
  </g>
</svg>