<?xml version="1.0" encoding="UTF-8"?>
<svg id="a" data-name="Layer 1" xmlns="http://www.w3.org/2000/svg" width="512" height="512" viewBox="0 0 512 512">
  <rect x=".96" y="0" width="511.04" height="511.04" rx="153.05" ry="153.05" style="fill: #fff;"/>
  <g>
    <g>
      <path d="M286.28,436.97c1.7,17.28-4.95,34.27-21.56,41.5-11.73,5.09-23.99-1.13-29.96-11.48-12.84-22.26-7.17-38.05.66-62.97l19.85-63.14,15.63,47.66c5.37,16.34,13.71,31.39,15.38,48.43Z" style="fill: #3ac4f3;"/>
      <path d="M111.45,112.55c-2.3-38.5,23.09-74.85,62.99-78.11,3.59-.29,7.79.39,12.29,1.77l-.81,8.73c-6.56-.57-13.93.95-21.03,4.45-.13-1.23-.25-2.71-.62-4.18-.74-3.2-3.94-3.2-4.18.86-.13.74-.25,4.92-.25,6.28-29.05,18.58-26.71,61.54-.49,68.67-.13,10.59-.13,16.87-.37,25.48-14.03,10.71-15.76,29.3-6.89,39.88.3.36.61.71.93,1.04l-9.46,1.64c-10.61-11.54-19.38-24.44-25.83-39.29-5.33-12.25-5.48-23.73-6.28-37.22Z" style="fill: #3ac4f3;"/>
      <path d="M157.87,69.58c-1.23,1.6-.25,3.94,1.85,4.18-.13,12.56-.13,22.28-.37,43.45-23.51-4.19-27.33-45.29.49-63.02-.12,10.71.37,12.19-1.97,15.39Z" style="fill: #3ac4f3;"/>
      <path d="M157.38,169.27c.24,2.59,4.31,2.46,4.06-.61-.74-7.26-.99-14.53-1.11-21.79,15.14-10.71,42.96-7.63,47.76-7.88,2.34-.12,2.21-3.56-.13-3.56-17.6.73-35.57,1.6-47.51,9.84-.12-8,.13-14.4.25-23.88,2.34.62,7.26,1.23,8.25,1.23,3.44-.36,2.95-5.53-.49-5.16-2.59.24-5.17.24-7.76-.13.12-1.47.37-18.09,1.35-44.68,3.33-4.55,3.08-15.63,2.71-21.29,16.5-7.75,38.16-5.05,38.16,16.99-.13,17.23-12.68,37.54-20.93,40.37-3.07.98-1.97,6.03,2.1,4.8,39.14-11.45,49.72,31.51,26.83,58.58-13.42,16.13-43.08,29.3-57.23,13.91-8.99-9.72-7.88-27.32,5.29-37.91-.62,15.14-1.73,20.31-1.6,21.17Z" style="fill: #3ac4f3;"/>
      <path d="M193.32,106.5c8.12-9.35,14.52-24.98,14.03-38.28-.63-14.71-9.77-22.28-21.43-23.28l.81-8.73c14.93,4.61,33.09,16.97,42.6,27.09,7.98,8.49,16.12,20.35,20.35,30.94l8.96,22.41,15.29,30.34c-1.57,2.83-5.96,6.73-9.66,9.68l-31.6,25.19c-4.11,3.29-4.91,5.5-9.86,8.8,10.91,15.15,24.83,28.88,40.11,40.72l-12.07,55.05c-6.5-11.36-15.4-18.95-24.84-26.8l-64.32-53.44c-6.5-5.4-12.56-11.08-18.13-17.13l9.46-1.64c14.8,15.54,45.54,3.04,60.24-13.22,25.11-27.94,14.89-70.41-19.94-67.7Z" style="fill: #3ac4f3;"/>
      <path d="M288.16,103.78c-4.18-2.83-11.82-7.26-16.74-6.15-2.47.53-3.81,2.84-2.76,4.88l-6.84,3.76-3.75-6.81,4.84-6.92,20.33-29.08c8.79-12.58,25.29-19.78,39.1-26.13,27.77-12.77,71.79,15.26,78,57.16.35,2.36.63,4.69.83,7l-3.52.29c-.08-.63-.44-1.24-1.18-1.69-.86-.62-2.21-.86-4.43-.86-2.71.12-6.77.61-12.8,1.11-17.97,1.72-37.78,2.83-48.86,3.2h-.13c.25-3.08.62-7.64.87-11.21,1.35,0,2.33-1.1,2.33-2.46-.12-3.07-.24-6.64-.36-8.49-.37-4.92-4.31-4.68-4.93,1.11-.49,6.03-.86,15.26-1.11,21.05v.12c-11.44.37-27.44.61-38.89.12Z" style="fill: #3ac4f3;"/>
      <path d="M326.93,105.26c-.37,14.89-.86,33.35-1.11,52.19-6.15-19.94-16.74-37.54-33.47-50.47,10.7,0,23.75-.86,34.58-1.72Z" style="fill: #3ac4f3;"/>
      <path d="M271.05,104.64c4.31,1.97,14.53,2.22,19.33,2.34,19.07,12.8,31.14,37.66,35.44,60.31,0,7.88-.12,28.56,1.48,35.57.99,4.31,5.66,4.06,5.42-.49-.37-6.77-.37-18.34-4.07-34.71-.36-19.69.37-43.2,1.6-62.65h.25c17.85-1.23,34.34-2.58,48.86-2.46,3.2,0,10.96.25,14.04.99.49.61.98.86,1.47.98,1.63.26,2.97-1.28,2.78-2.74l3.52-.29c3.7,41.17-14.73,75.75-47.09,102.38l-55.12,45.36-16.76,14.12c-9.18,7.72-15.52,15.34-23.09,25.64l11.72-61.69-24.25-22.75-13.22-11.86,48.09-40.91c-.41-8.23-3.24-15.71-7.29-23.07l-12.34-22.44,6.84-3.76c.41.79,1.18,1.54,2.39,2.13Z" style="fill: #3ac4f3;"/>
      <path d="M322.34,37.33c-13.81,6.35-30.31,13.55-39.1,26.13l-20.33,29.08-6.35-4.44c14.25-31.88,37.33-55.52,69.17-65.01,25.06-7.47,49.5,5.71,66.25,24.21,13.84,15.28,19.92,33.84,22.53,54.94,4.19,33.91-10.21,67.17-32.58,92.63l-10.02,11.41-70.95,58.47-36.01,31.02-5.84-6.78c7.57-10.3,13.91-17.92,23.09-25.64l16.76-14.12,55.12-45.36c32.36-26.63,50.79-61.21,47.09-102.38-.2-2.31-.48-4.64-.83-7-6.21-41.9-50.23-69.93-78-57.16Z"/>
      <path d="M325.82,157.45c.25-18.84.74-37.3,1.11-52.19-10.83.86-23.88,1.72-34.58,1.72,16.73,12.93,27.32,30.53,33.47,50.47ZM272.28,101.81c3.2,1.36,9.36,1.73,12.68,1.97-3.2-1.72-9.48-4.18-12.92-3.32-.99.24-1.23.74.24,1.35ZM290.38,106.98c-4.8-.12-15.02-.37-19.33-2.34-1.21-.59-1.98-1.34-2.39-2.13-1.05-2.04.29-4.35,2.76-4.88,4.92-1.11,12.56,3.32,16.74,6.15,11.45.49,27.45.25,38.89-.12v-.12c.25-5.79.62-15.02,1.11-21.05.62-5.79,4.56-6.03,4.93-1.11.12,1.85.24,5.42.36,8.49,0,1.36-.98,2.46-2.33,2.46-.25,3.57-.62,8.13-.87,11.21h.13c11.08-.37,30.89-1.48,48.86-3.2,6.03-.5,10.09-.99,12.8-1.11,2.22,0,3.57.24,4.43.86.74.45,1.1,1.06,1.18,1.69.19,1.46-1.15,3-2.78,2.74-.49-.12-.98-.37-1.47-.98-3.08-.74-10.84-.99-14.04-.99-14.52-.12-31.01,1.23-48.86,2.46h-.25c-1.23,19.45-1.96,42.96-1.6,62.65,3.7,16.37,3.7,27.94,4.07,34.71.24,4.55-4.43,4.8-5.42.49-1.6-7.01-1.48-27.69-1.48-35.57-4.3-22.65-16.37-47.51-35.44-60.31Z"/>
      <path d="M273.93,146.99l-15.29-30.34-8.96-22.41c-4.23-10.59-12.37-22.45-20.35-30.94-9.51-10.12-27.67-22.48-42.6-27.09-4.5-1.38-8.7-2.06-12.29-1.77-39.9,3.26-65.29,39.61-62.99,78.11.8,13.49.95,24.97,6.28,37.22,6.45,14.85,15.22,27.75,25.83,39.29,5.57,6.05,11.63,11.73,18.13,17.13l64.32,53.44c9.44,7.85,18.34,15.44,24.84,26.8l12.07-55.05c-15.28-11.84-29.2-25.57-40.11-40.72,4.95-3.3,5.75-5.51,9.86-8.8l31.6-25.19c3.7-2.95,8.09-6.85,9.66-9.68ZM274.16,128.71c4.05,7.36,6.88,14.84,7.29,23.07l-48.09,40.91,13.22,11.86,24.25,22.75-11.72,61.69,5.84,6.78-.85.73c-2.36,2.03-6.55,7.46-7.49,7.62l-21.02-19.22-49.42-41.19-32.21-26.07c-18.58-15.03-33.17-32.72-44.27-54.29-5.22-10.16-7.79-21.27-10.34-32.8-2.64-11.95-1.65-23.38.14-35.41,3.47-23.28,13.61-42.79,31.86-58.39,15.07-11.54,35.98-19.6,55.26-13.83,32.32,9.69,55.59,34.3,69.95,65.18l6.35,4.44-4.84,6.92,3.75,6.81,12.34,22.44Z"/>
      <path d="M272.95,367.75l20.37,56.02c8.87,24.39-5.03,66.66-34.54,67.26-18.02.37-33.2-14.42-37.4-31.74-4.63-19.05-1.23-38.14,5.09-56.8l29.84-88.2,16.64,53.46ZM286.28,436.97c-1.67-17.04-10.01-32.09-15.38-48.43l-15.63-47.66-19.85,63.14c-7.83,24.92-13.5,40.71-.66,62.97,5.97,10.35,18.23,16.57,29.96,11.48,16.61-7.23,23.26-24.22,21.56-41.5Z"/>
      <path d="M159.84,52.35c0-1.36.12-5.54.25-6.28.24-4.06,3.44-4.06,4.18-.86.37,1.47.49,2.95.62,4.18,7.1-3.5,14.47-5.02,21.03-4.45,11.66,1,20.8,8.57,21.43,23.28.49,13.3-5.91,28.93-14.03,38.28,34.83-2.71,45.05,39.76,19.94,67.7-14.7,16.26-45.44,28.76-60.24,13.22-.32-.33-.63-.68-.93-1.04-8.87-10.58-7.14-29.17,6.89-39.88.24-8.61.24-14.89.37-25.48-26.22-7.13-28.56-50.09.49-68.67ZM157.38,169.27c-.13-.86.98-6.03,1.6-21.17-13.17,10.59-14.28,28.19-5.29,37.91,14.15,15.39,43.81,2.22,57.23-13.91,22.89-27.07,12.31-70.03-26.83-58.58-4.07,1.23-5.17-3.82-2.1-4.8,8.25-2.83,20.8-23.14,20.93-40.37,0-22.04-21.66-24.74-38.16-16.99.37,5.66.62,16.74-2.71,21.29-.98,26.59-1.23,43.21-1.35,44.68,2.59.37,5.17.37,7.76.13,3.44-.37,3.93,4.8.49,5.16-.99,0-5.91-.61-8.25-1.23-.12,9.48-.37,15.88-.25,23.88,11.94-8.24,29.91-9.11,47.51-9.84,2.34,0,2.47,3.44.13,3.56-4.8.25-32.62-2.83-47.76,7.88.12,7.26.37,14.53,1.11,21.79.25,3.07-3.82,3.2-4.06.61ZM157.87,69.58c2.34-3.2,1.85-4.68,1.97-15.39-27.82,17.73-24,58.83-.49,63.02.24-21.17.24-30.89.37-43.45-2.1-.24-3.08-2.58-1.85-4.18Z"/>
    </g>
    <g>
      <path d="M397.65,101.78c-.08-.63-.44-1.24-1.18-1.69-.86-.62-2.21-.86-4.43-.86-2.71.12-6.77.61-12.8,1.11-17.97,1.72-37.78,2.83-48.86,3.2h-.13c.25-3.08.62-7.64.87-11.21,1.35,0,2.33-1.1,2.33-2.46-.12-3.07-.24-6.64-.36-8.49-.37-4.92-4.31-4.68-4.93,1.11-.49,6.03-.86,15.26-1.11,21.05v.12c-11.44.37-27.44.61-38.89.12-4.18-2.83-11.82-7.26-16.74-6.15-2.47.53-3.81,2.84-2.76,4.88.41.79,1.18,1.54,2.39,2.13,4.31,1.97,14.53,2.22,19.33,2.34,19.07,12.8,31.14,37.66,35.44,60.31,0,7.88-.12,28.56,1.48,35.57.99,4.31,5.66,4.06,5.42-.49-.37-6.77-.37-18.34-4.07-34.71-.36-19.69.37-43.2,1.6-62.65h.25c17.85-1.23,34.34-2.58,48.86-2.46,3.2,0,10.96.25,14.04.99.49.61.98.86,1.47.98,1.63.26,2.97-1.28,2.78-2.74Z" style="fill: none; stroke: #000; stroke-miterlimit: 10; stroke-width: 3px;"/>
      <path d="M272.28,101.81c-1.47-.61-1.23-1.11-.24-1.35,3.44-.86,9.72,1.6,12.92,3.32-3.32-.24-9.48-.61-12.68-1.97Z" style="fill: none; stroke: #000; stroke-miterlimit: 10; stroke-width: 3px;"/>
      <path d="M325.82,157.45c-6.15-19.94-16.74-37.54-33.47-50.47,10.7,0,23.75-.86,34.58-1.72-.37,14.89-.86,33.35-1.11,52.19Z" style="fill: none; stroke: #000; stroke-miterlimit: 10; stroke-width: 3px;"/>
      <path d="M153.02,187.42c14.8,15.54,45.54,3.04,60.24-13.22,25.11-27.94,14.89-70.41-19.94-67.7,8.12-9.35,14.52-24.98,14.03-38.28-.63-14.71-9.77-22.28-21.43-23.28-6.56-.57-13.93.95-21.03,4.45-.13-1.23-.25-2.71-.62-4.18-.74-3.2-3.94-3.2-4.18.86-.13.74-.25,4.92-.25,6.28-29.05,18.58-26.71,61.54-.49,68.67-.13,10.59-.13,16.87-.37,25.48-14.03,10.71-15.76,29.3-6.89,39.88.3.36.61.71.93,1.04Z" style="fill: none; stroke: #000; stroke-miterlimit: 10; stroke-width: 3px;"/>
      <path d="M159.84,54.19c-.12,10.71.37,12.19-1.97,15.39-1.23,1.6-.25,3.94,1.85,4.18-.13,12.56-.13,22.28-.37,43.45-23.51-4.19-27.33-45.29.49-63.02Z" style="fill: none; stroke: #000; stroke-miterlimit: 10; stroke-width: 3px;"/>
      <path d="M210.92,172.1c-13.42,16.13-43.08,29.3-57.23,13.91-8.99-9.72-7.88-27.32,5.29-37.91-.62,15.14-1.73,20.31-1.6,21.17.24,2.59,4.31,2.46,4.06-.61-.74-7.26-.99-14.53-1.11-21.79,15.14-10.71,42.96-7.63,47.76-7.88,2.34-.12,2.21-3.56-.13-3.56-17.6.73-35.57,1.6-47.51,9.84-.12-8,.13-14.4.25-23.88,2.34.62,7.26,1.23,8.25,1.23,3.44-.36,2.95-5.53-.49-5.16-2.59.24-5.17.24-7.76-.13.12-1.47.37-18.09,1.35-44.68,3.33-4.55,3.08-15.63,2.71-21.29,16.5-7.75,38.16-5.05,38.16,16.99-.13,17.23-12.68,37.54-20.93,40.37-3.07.98-1.97,6.03,2.1,4.8,39.14-11.45,49.72,31.51,26.83,58.58Z" style="fill: none; stroke: #000; stroke-miterlimit: 10; stroke-width: 3px;"/>
    </g>
  </g>
</svg>