<?xml version="1.0" encoding="UTF-8"?>
<svg id="Layer_1" data-name="Layer 1" xmlns="http://www.w3.org/2000/svg" viewBox="0 0 371.24 599.54">
  <defs>
    <style>
      .cls-1 {
        stroke: ç;
        stroke-miterlimit: 10;
	fill: #231f20;
      }
    </style>
  </defs>
  <path class="cls-1" d="M451.2,2292.2c-1.85-.64,3.18,10.27,2.1,10.2-.81.84,1.96.36,1.7,1.8,0,1.7,4.9,7.7,5,6.1,0-.7-1.4-4.3-3.1-8-4.1-9.1-4.4-9.6-5.7-10.1ZM450.1,2297.9c-1.87-4.54-7.06-11.73-5.6-4.6.4,1.7,1.3,3.9,2,4.7,1.85,2.32,3.43,9.55,5.5,12.1,2.86,4.51,3.33-1.41,2.2-3.4-.6-1.2-2.4-5.2-4.1-8.8ZM1231.5,2700.6c-4.44,2.76,3.19.92,3.3-.4.34-2.36-1.77-.63-3.3.4ZM1245,2690.8c.07-2.61-9.8,2.86-11.8,2.7-2.6.3-3.8,1.2-2.9,2.1,1.7.73,13.6-3.19,14.7-4.8ZM1281.5,2664c2.27.13,8.89.25,5.8-2.9-.96.13-4.45,2.13-5.8,2.9ZM1391.5,995c.5-.8-3.8-3-5.9-3-.7,0-1.7-.9-2.2-2.1-1.48-3.43-25.93-13.18-8.9-3.1,3.7,2.2,6.3,4.2,5.8,4.5-4.36,1.6-5.78,2.36-11.7-2.9-3.79-3.71-8.38-5.49-3.3-6.7,4.36-.46-5.06-1.74-4.7-3.3-1.3-2.36-3.16-1.72-2.2,1.8.73,4.15,7.01,9.01,9.2,12.2-.53,3.75,21.81,3.62,23.9,2.6ZM1383.5,984c7.22-1.85-18.6-14.47-18.5-10,0,.5.5,1,1.1,1,1.33-.13,15.87,9.35,17.4,9ZM1419.5,1013.1c11.41,12.59,6.6,1.46-2-2.4l2,2.4ZM1750.8,1680.8c-8.95,2.89-24.7,8.53-21.6,20.2,1.68,2.99,4.34,14.86,3.4,18.7-1.07,11.09-8.78,12.56-3.5,20.8,5.51,13.94,6.88,28.61,23.2,31,2,.4,3.7,1.3,3.7,2,0,1.4-7.1,5.5-9.4,5.5-1.8,0-6.5,5.5-7,8.3-.63,6.97-2.61,27.74-7.2,31.2-8.46,7.48-14.34,5.84-4.8,17.8,8.17,9.02,4.91,17.39,6.7,27.4,1.3,3.3,8.9,10.3,11.3,10.3.8,0,2.9.7,4.5,1.6,8.83,5.34-5.83,8.15-9.8,10.5-3.8,1.8-4.3,2.5-6.1,8.7-2.51,7.76-3.14,15.86-7.2,22.6-2.6,4-3,5.7-3,11.4,0,3.7.5,13.6,1.2,21.9,1.2,16.2,1.3,16.5,7.2,20.8,20.19,13.5-11.21,7.3-14.2,19.5-2.18,8.63-4.94,25.2-11.7,31-2.3,2.2-2.4,2.6-1.8,12.6,1.85,11.49-3.42,18.33-1.8,27,1.69,8.42.5,19.89,10.8,23.5,5.39,1.67,6.16,8.72-.9,7.9-4.6,0-15.8,3.7-15.8,5.3-.89,3.43-9.61,21.71-13.6,23.6-3.6,3.2-4.9,5.1-5.5,8.3-1.15,6.32-.26,19.15-3,25.4-8.13,19.41,15.59,19.66,12.6,29.3-5.77,2.33-16.12.12-19.5,6.2-5.14,9-7.8,18.79-17.7,27.5-2.3,2.3-3.8,3.1-5.3,2.7-2.1-.6-2.2-.5-1.5,10.8,2.21,18.13-6.02,18.2-4.5,34.4,3.14,3.01,13.21,9.33,11.2,12.6-2.72,11.84-20.81-7.76-26.3,9.9-2.11,6.27-10.55,14.45-16.3,18.5-5.2,3.5-5.6,4.1-5.6,7.7,0,6-3.1,16.8-6.2,21.7-3.9,3.93-2.18,16.03-.7,20.5.6,1.1,3.2,3.9,5.7,6.2,4.3,3.8,4.5,4.2,2.6,5.2-1.61,1.71-11.13-2.19-14.5-3.1-2.15,1.43-8.52,6.17-9.8,6.3-5.15,8.11-10.12,23.54-22.1,24-2.89-.38-3.23,11.3-3.2,13,.2,3.4-5.1,12.5-7.1,12.4-.9-.1-1.6.1-1.5.5-1.34,7.91-7.49,19.91-.4,26.1,3.1,2.8,4.1,5.4,2.3,6.4-2.35-.05-4.79-4.16-8.2-4.4-4.17-1.65-10.2.99-12.6,4-.8,1.1-1.8,1.8-2.2,1.6-.4-.3-1.8,1.7-3.1,4.4-2.91,7.17-10.23,12.53-17,13-2,0-2.1.3-2.4,7.4.21,3.22-2.11,2.92-2.6,5-.06,1.84-8.51,14.08-8.6,16-.6,3.1,2.5,10.3,5.2,12.1,2.6,1.7,3.2,4.5,1,4.5-3.61-.53-10.09-3.3-13.8-2.2-8.31,5.11-21.6,20.77-32.9,20.2-4.26-1.06-2.68,5.88-3.3,7.7-6.47,13.77-20.51,17.25-14.5,37.7,1.3,5.3,4.3,9.1,6.3,7.9,1.41-.41-2.19,3.06-2.4,2.7-25.66-21.94-8.55-15.59-38.3-2.7-3.7,1.5-8.2,2.7-10,2.7-11.55.39-4.87,10.98-16.5,21.2-11.66,9.83.1,19.47-7.2,22.8-11.5-21.29-18.81-.17-38-2.5,0,0-9.5,0-9.5,0-1.59,3.17-4.96,9.82-6.7,11.7-2.83,4.27-4.85,9.81-11.3,16.8-3.46,2.76-5.13,11.73-8.7,13.3-1.6.5-1.7.3-.7-.9,5.22-7.01-21,7.19-21.6,8.6-3.28,2.98,1.19,2.16,2,1,2.02-1.95,4.04-1.16.4,2.5-3.16,2.92-4.23,5.37-5.8,1.2-1.32-3.57-6.57-8.85-7.1-3.3,0,1.8-.4,2.3-1.8,1.9-1.96-.7-7.14,4.02-1.4,2.5,8.54-.59-3.99,5.1-9.8,6.7-6.9,1.9-8.8,3.1-7.5,4.4,5.11,2.02,13.33-4.51,18.5-5.2,5.66-1.08-.37.86,0,2.8,0,.8-2.3,2.1-5.7,3.1-6.19,1.35-16.92,6.25-23.5,7.5-1,0-1.8.5-1.8,1,0,.6-.4.7-1,.4s0-1.7,1.4-3.2c2.1-2.2,2.4-3.5,2.3-9.5-1.07-14.04,12.3-14.18,20.3-22.5,8.33-9.29,11.66,2.37,24.7-5.6,9.74-6.28-10.97,1.46-14.6-2,0,0-4.3-1.5-4.3-1.5-7.85,5.47-16.8,11.21-24.6,16.2-4.69,2.52-5.97,7.03-5.4,12.2,1.2,7.01-4.91,10.92-6.7,3.2-5.53-20.4-18,.87-33.7-8.8-6.85-3.37-7.41-1.06-13.5,4-5.05,5.25-13.77,8.27-17.9,12.9-4.87,6.56-6.79,7.43-9,.2-1.5-5.7-3.2-6.5-9.5-5.1-5.2,1.2-15.8,1.2-21.5-.1-9.9-2.3-9.3-2.4-12.8,2.1-2.4,3.67-12.28,8.81-14.8,11.1-.3.5-1.3.9-2.3.9-12.79-.22-17.17-12.83-30.1-12-3.77-.79-26.49,5.47-24,9.5,1,1.2.7,1.7-1.6,2.5-3.71,1.87-6.18-1.71-9.8-.6-5.63,1.47.69-7.79-15.4-6.3-18.67.75,7.95.96,7.8,6,0,.8-3.5.7-14.9-.7-4.3-.5-5.3-.4-4.9.7,1.56,2.94,12.95,2.46,14.2,6-.8,1.4-8.1,1.1-9.6-.4-.7-.7-2.6-1.8-4.1-2.5-4.85-1-.85-10.45-4-10.2-2.93.87-2.05,7.71-6.9,5.3-1.8-1.27-16.98.86-16.8-1.8,0-1.8,5-4.5,8.7-4.5,7,.7-13.83-9.23-16.7,3.1-1.11,7.19-16.46-.95-22-2.5-2.8-.7-4.5-1.7-4.5-2.6.6-3.53,7.65.03,4.1-4.1-7.22-8.57-12.36-4.6-24.3-9.8-6.6-2.2-11.3-3.3-11.3-2.7s-1.2-.1-2.5-1.7c-6.54-6.7-17.35,1.72-27.7.3-5.7,0-8.8.4-8.8,1.1-.82,1.87,26.03-.36,26.3-1,4.47-1.34,15.4,6.43,18.1,6.4,3.81,1.89,12.86,1.05,16.2,4.6,6.64,6.43-2.56,4.98-7.7,3.8-5-1.25-14.67-.56-18.9-1.4-3.37-1.29-1.51-7.79-5.1-8.5-1.03-.2-4.34,7.51-4.6,7.9-.1.2-1.4.5-2.7.6-5.93-.36-2.23-3.01-14.1-4.1-3.78-.64-9.33-.93-12.2-2.6-.8-.62-1.87-.59-2.57-.1l-.34-.83c3.6-1.25,4.63-3.37,2.61-5.37-1-.6-8.5,2.8-11.2,5.2-2.06,2.18-6.68-.08-4.8-3.3,4.33-7.25-7.28-21.2-12.4-22.4-3.01-.4-14.69-10.32-18.4-15.1-12,3.66-26.63.12-33.6-4.3-4.8-2.9-10.4-4-14.7-2.9-2.3.19-1.41,3.98-2.9,4.3-1.75-.21-14.35-6.16-16.3-6-1.6,0-1.8-.4-1.1-2.3.4-1.2.8-4.3.8-6.9.1-4.4-.2-4.9-6.4-10.8-16.4-15.5-18-17.2-18-19.4-.09-3.21-3.04-5.42-6.1-5.9-4.2-.8-11-4.6-17.1-9.7-5.2-4.4-6-4.7-10.6-4.4-5.3.2-11.6,2.9-14.6,6.3-4.16,4.16-8.92,1.68-5.6-3.4,4.71-3.58,8.77-16.22,4-21-1.1-1-2-2.4-2-3.1s-2.1-2.8-4.7-4.6c-4.02-2.18-9.51-8.17-12.5-9.8-.5,0-.8-.6-.8-1.4-.4-2.3-3.29-3.61-3-6.7-.86-6.64-15.71-11.52-19.5-16.9-1.1-1.2-4.8-3.5-8.2-5.1s-6.5-2.9-6.8-2.9c-1.48.69-9.61,8.5-11.6,8.9-7.09,2.07-5.7-4.09.4-9.8,3.9-3.8,4.2-4.4,4.2-9.3,1.1-5.27-5.13-12.01-6.5-15.7-1.57-4.09-6.28-11.59-7.6-16-1.34-3.47-7.46-5.92-10.4-6.1-1.64.63-14.35-12.96-15.4-13-.4,0-2.4-1.1-4.4-2.5-6.33-5.58-9.65.76-15.1,2.5-3.2-1.49-5.43-2.65-.2-7.5,5.05-5.54,4.74-7.16,5.5-14.2,1.6-5.32-5.44-16.87-8.4-20.8-7.39-6.51.81-21.35-8.3-23-2.48-.62-5.48-4.04-7.7-4.7-.8-.2-2.1-1.1-2.9-2.2-5.91-9.58-10.05-24.15-24.7-15.8-11.29,4.36.87-8.7,2.5-12.1,2-3.3,2.2-4.6,1.7-9.5-.87-7.61-5.62-14.68-7-22.4-.7-3.4-1.7-6.3-2.3-6.5-2.78,1.1-2.8,4.93-1.9,8.8,2.01,8.96,12.13,19.04,5.1,27.8-3.19,3.84-6,3.79-10.2,5.8-1.27.83-2.79.66-4.17.64.54-.47.36-1.45-.53-3.14-3.2-5.9-6.4-14.2-5.5-14.2.5,0,.9.6.9,1.2,0,2.1,7.3,12.8,8.7,12.8,2.81-.11.32-1.94-.9-4.8-3.28-5.25-5.87-11.25-9.9-15.7.53,2.39,2.53,8.16-1.4,3.9-3.57-2.14,3.97-6.25-.6-7.2-5.1-.24,10.12-12.25,8.2-14-.27-1.74-17.35-.73-18.1-1.7-.5-.3-1.3.1-1.6.9,1.68,8.45,9.62,23.09,13.65,32.74l-2.34,1.12c-3.51-7.05-10.65-23.27-14.51-31.06.2-2.2-4.5-14-8.3-21-1.6-2.9-2.9-5.9-2.9-6.6-1.84-4.28-4.51-6.99-6.5-14.4l3.75-.54c3.25,10.1,6.18,12.8,14.15,6.44,8.33-4.14,17.61,3.03,19.7,14.9.31,4.03,7.89,11.81,10.9,13,4.46-1.13-5.59-13.36-6.9-15.9-3.3-6.2-8.5-13.3-11.2-15.2-5.3-5.45-15.17,2.85-19.6-2.1-4.33-3.85-1.61-3.61,3.1-7.8,18.65-12.22-3.41-27.73-.5-44.6,0,0,0-10.2,0-10.2-15.95-7.7-8.82-27.65-30.6-25.3-6.5.1-7.3-.1-7.3-1.8,0-1.2.9-2,2.8-2.4,3.97-.82,8.06-4.34,9.7-8.3,2.39-5.09-.9-16.98-2.6-22.8-2.49-5.08-.93-17.94-4-19.6l.21-1.01c1.25.21-1.76-8.92-3.41-10.79-3.39-2.34-8.55-20.59-9.9-25.6-3.4-6.16-25.65-1.96-21.9-10.5.7-1.1,2-2.1,3-2.1,2.12-.01,8.29-5.73,10.6-7.8-.06-10.51-.14-31.32-.2-41.8-1.83-3.58-6.34-12.55-6.3-15.1,0-1.3-.6-3.3-1.2-4.4-1-1.7-1-2.3,0-2.6,1.7-.6,1.5-9.5-.3-13.9-.8-2-1.9-3.3-2.5-2.9-.6.3-1.3-.1-1.6-.9-3.69-4.05-7.6-3.83-14.6-2.1-7.41,1.59-6.6-3,.1-4.1,15.21-3.34,10.76-16.76,11.46-37.62-.59-14.8-.56-32.79-10.96-38.98-2.54-1.1-11.22.94-13.4,1.2-4.56-.68,8.98-5.96,9.5-8.7,3.02-3.13,4-12.37,5.1-15.9.79-3.02-1.78-2.85-1.6-5.9-.02-3.42,5.27-15.38,5-19-.62-6.65-3.17-10.27-3.4-19-1.05-12.05-1.06-16.81-13.8-15.6-11.27.81-8.46-4.55-1.4-5.3,19.08-2.91,14.41-25.92,17.3-39.1,1.02-2.28,5.21-5.01,5.3-7.5-9.87-13.63-5.76-19.5-7.2-35.2-1.06-6.71-4.31-10.41-11.9-9.4-7.25,1.19-12.32-2.78-2.3-4.8,17.22-1.69,16.31-24.29,21.4-36.1,1.48-3.68,10.11-7.12,10-11-1.99-7.43-7.11-17.74-3.8-26.1,2.64-7.38,1.55-28.84-8.19-24.67l-6.66-.11c.39-.66,0-1.04-1.35-1.82-1.1-.7-2-1.8-2-2.5-.67-1.96,9.07-.8,9-2.1,0-.4,1-1.2,2.2-1.7,4.71-3.16,8.95-15.08,9.3-23.4-.13-9.41,7.25-16.79,15.7-18.1,8.68.42-8.29-8.19-4.4-16.4,1.6-3.33,2.14-13.93,3-17.6.37-5,2.44-13.84-2.6-17.1-3.69-3.97-14.15-2.53-15.2-6.6,0-1.1.7-1.3,3.2-.7,14.53,2.53,22.29-2.83,24.3-19.6.6-4.1,6.3-14.2,10.6-18.6,4-4.1,4-4.2,3.9-11.5-.1-4.1.4-11.5,1-16.4,1.05-10.27,2.57-17.41-2.6-25-1.2-1.1-4.5-2.9-7.3-3.9-4.34-2.08-7.28-1.37-4.6-5.3,3.27-4.62,13.63,4.24,24.8-5.1,5.81-2.82,9.78-11.48,10.7-16.3,3.08-11.51,16.42-12.36,12.9-15.6-2.06-4.61-1.9-16.43,1.3-21.3,2-4.3,2.5-6.6,2.3-10.7-.56-7.01-2.41-10.63-8.5-14.5-4.8-3-6.8-5.8-5.5-7.8.7-1.2,4.5-1.4,4.5-.2-1.89,1.35,17.04,2.61,17.7-.4.8-1.1,3.1-3.7,5.1-5.9,10.44-9.49,4.22-22.16,17.4-27.9,9.71-4.31-.68-16.7,8.9-28.5,9.3-13.47,10.45-23-.9-33.7-3-2.9-4.1-4.6-3.6-5.8.5-1.4,1.3-1.6,3.3-1.1,5.68,1.3,17.14,1.45,21.7-3.2.8-1,4.8-6.8,8.9-13,14.18-24.1,26.26-14.88,23.5-27.9-1.26-2.4-.25-7.86-.1-10,4.41-7.06,14.35-21.39,12.2-29.3.89-4.07-7.36-11.69-6.9-15.4.8-6.7,20.82,6.71,33.8-14.7,7.24-12.29,13.03-13.03,22.8-17.3,2.66-6.58,5.45-17.12,10.7-23.1,4-5.3,7.7-13.4,8.1-18.1.2-2.9-.4-5.3-2.7-9.4-2.8-5.2-2.8-5.7-1.2-6.8,1.79-1.29,3.92-2.08,5,.2.9,2.5,9.8,6.5,14.7,6.6,5.33,1.27,15.52-7.64,15.6-10.1.91-3.79,13.05-14.02,18.8-14.1,4.22-.69,9.99.83,10-5.4-1.74-15.96,26.08-24.05,15.2-38.6-4.22-5.65-2.5-9.85,3.1-4.3,2.6,2.8,6.9,5.3,10.2,6,3.3.6,12.6-1.4,14.3-3.1,2.28-2.08,6.63-2.5,9.4-4,8.2-4.1,8-4.1,11.3-2,10.47,5.45,17.94,11.46,26.2,8,2.86-2.49,19.28-.59,22-2.5.21-.41-.01-.73-.53-.89,13.3.69,25.86-5.42,31.03-16.21,2.46-3.27,16.9-8.81,19-13.2,2.8-3.6,3.8-4.3,5.3-3.6,5.87,14.16,17.14,21.57,31,31,13.32,10.19,27.41,12.51,44.2,17.4,13.27,4.1,17.82,3.97,30.3,5.1,6.7.6,8.2.4,8.2-.7,0-1.2.2-1.21.9-.1,3.11,2.75,17.65.95,22.3-.9,3.4-1.1,7.1-2.7,8.2-3.4,1.7-1.3,2.1-1.2,3.3.5,3.95,3.49,8.66,3.1,14.9,6.9,10.84,4.25,21.22,21.78,29.8,28,8.42,5.24,14.49-16.73,19.4-20.2,5.87-6.02,19.3-15.6,26.8-18.7,17.98,11.07,44.68,12.78,65.1,9.1,6.14-2.25,9.84-.21,16.6-3.2,6.56-2.44,7.7-.79,13.1-4.4,6.26-4.36,18.73-9.91,24.6-14.6,6.33-6.38,30.56-27.92,29.72-37.34l5.37-.33c1.77,15.3,11.22,22.59,23.41,29.37,5.81,3.08,20.49,13.96,27.9,13.4,11.01,1.42,14.62,4.1,27.1,4.1,6.9-.2,19.7-3.1,21.2-4.8,2.24-2.29,4.22,1.42,10.7-4.7,1.6-1.4,3.3-2.6,3.8-2.6,1.23-.63.58-4.19,2.4-5.1,1.4-1.1,2.1-1,4.8.5,1.84,1.65,13.78,5.66,9.6,8.6-2.62-.84-13.38-8.02-14.6-4.5-.4,3.49,16.03,8.34,15.2,11.8-.75,4.63,10.32,16.19,13.8,21.5,3.23,4.1,6.41,19.87,7.6,6.4-.29-8.15,4.73,2.45,5-1.4,0-2.2-3.4-5-5.3-4.3-2.42,1.43-9.07-8.55-9.7-10.4-3.72-3.51-5.53-9.9-4.84-16.64l.95.05c.79,3.38,15.41,11.98,18.89,15.39,0,.5,1.7,2,3.7,3.3,3.27,2.62,5.85,1.95,4.8,5.8-.92,3.84-3.48-1.4-7.5-4-6.11-5.44-12.39-10.33-18.5-13-2.37,3.6,6.35,7.07,9.5,10.5,4.44,3.74,11.82,9.5,16.8,13.4l1.84-1.39.73.96c-2.53,2.57,13.41,16.85,15.66,17.14l-.15,1.99c-7.86.36-13.96-6.08-19.98-7.1-4.1-.9-6.9-2.6-6.9-4.2,0-.6-.4-1.5-1-1.8-.6-.4-1,1-1,3.4-1.18,4.33,5.45,7.97,8.4,7.8.8-.3,1.7,0,1.9.7.3.8,2.3,1.7,4.4,2,11.44,3.35,12.07,7.72,28.2-1.9,2.24-1.72,5.47-.54,6.1,1.5-1.65,4.2-7.32,8.84-5.6,14.9-.44,13.01,20.34,19.93,19.9,30.1-1.26,8.54,12.92,6.44,20.8,17.4,6.38,5.88,10.68,9.27,22,8.2,22.92-.91,2.52,3.64,6.3,15.8.32,5.38,7.5,10.65,9.2,15.3,3.16,6.96,7.07,8.52,6.4,18.7.51,7.5-.75,10.14,4.8,10.6,6.72,1.11,15.88,7.07,19.5,15.3,3.28,6.44,5.04,6.78,10.1,9.4,2.7,1.4,3.4,1.4,7.8,0,4.2-1.3,5-1.4,5.5-.1.24,3.05-6.84,12.22-7.4,15.4-7.06,12.94,12.21,32.68,12.7,41.8.07,9.07,3.8,4.93,7.7,9.9.9,1.6,3.1,4.2,4.7,6,11.94,15,12.97,11.3,29.6,15.3,3.88,2.46,1.2,4.17-1.5,8.4-10.27,11.93,5.27,24.56,1.6,43.2-.7,4.2-.9,8-.4,8.4,2.88,1.7,15.78,9.31,15.3,12.3.14,1.24,7.62,7.83,8,10.2-1.43,4.36,12.86,5.07,15,6.5-1.05,2.19-5.12,7.01-6.5,9.9-1.77,1.99-2.13,20.93.8,22.3,4.52,2.39,5.07,19.68,4.7,27.7,6.41,7.05,13.16,14.9,15.4,23.9,1.34,9.14,12.3,8.46,18.8,9.4,11.37,4.82-16.76,10.86-13.5,26.4-.48,5.15,2.09,8.67,3,11.4,1.51,5.98,3.05,8.22,2.8,20.4.1,12.6.1,12.9,2.7,15.1,14.75,13.29,2.99,48.23,31.3,45,3.3-.4,5.5-.2,6,.4,1,1.8-1.4,5.1-3.8,5.1-17.86,3.96-16.3,13.04-13.4,29.2,4.81,15.34-8.26,24.36-3.3,33.8,1,2.1,2.6,4,3.4,4.3,11.43,9.26-1.12,29.74,24.8,31.1,5.33.17,8.88,1.61,5.6,6.4Z
"/>
</svg>
