<?xml version="1.0" encoding="UTF-8"?>
<svg id="frameclip" xmlns="http://www.w3.org/2000/svg" width="166.16" height="256" viewBox="0 0 166.16 256">
  <path id="window" fill="black" d="M35.5,182.9c-.15-.05.25.82.17.82-.06.07.16.03.14.14,0,.14.39.62.4.49,0-.06-.11-.34-.25-.64-.33-.73-.35-.77-.46-.81ZM35.41,183.36c-.15-.36-.57-.94-.45-.37.03.14.1.31.16.38.15.19.27.77.44.97.23.36.27-.11.18-.27-.05-.1-.19-.42-.33-.71ZM98.02,215.63c-.36.22.26.07.26-.03.03-.19-.14-.05-.26.03ZM99.11,214.84c0-.21-.79.23-.95.22-.21.02-.3.1-.23.17.14.06,1.09-.26,1.18-.38h0ZM102.03,212.69c.18.01.71.02.46-.23-.08.01-.36.17-.46.23ZM110.85,78.96c.04-.06-.3-.24-.47-.24-.06,0-.14-.07-.18-.17-.12-.27-2.08-1.06-.71-.25.3.18.5.34.46.36-.35.13-.46.19-.94-.23-.3-.3-.67-.44-.26-.54.35-.04-.41-.14-.38-.26-.1-.19-.25-.14-.18.14.06.33.56.72.74.98-.04.3,1.75.29,1.92.21h0ZM110.2,78.07c.58-.15-1.49-1.16-1.48-.8,0,.04.04.08.09.08.11-.01,1.27.75,1.39.72ZM113.09,80.41c.91,1.01.53.12-.16-.19l.16.19ZM139.64,133.91c-.72.23-1.98.68-1.73,1.62.13.24.35,1.19.27,1.5-.09.89-.7,1.01-.28,1.67.44,1.12.55,2.29,1.86,2.48.16.03.3.1.3.16,0,.11-.57.44-.75.44-.14,0-.52.44-.56.67-.05.56-.21,2.22-.58,2.5-.68.6-1.15.47-.38,1.43.65.72.39,1.39.54,2.2.1.26.71.83.91.83.06,0,.23.06.36.13.71.43-.47.65-.79.84-.3.14-.34.2-.49.7-.2.62-.25,1.27-.58,1.81-.21.32-.24.46-.24.91,0,.3.04,1.09.1,1.75.1,1.3.1,1.32.58,1.67,1.62,1.08-.9.58-1.14,1.56-.17.69-.4,2.02-.94,2.48-.18.18-.19.21-.14,1.01.15.92-.27,1.47-.14,2.16.14.67.04,1.59.87,1.88.43.13.49.7-.07.63-.37,0-1.27.3-1.27.42-.07.27-.77,1.74-1.09,1.89-.29.26-.39.41-.44.67-.09.51-.02,1.53-.24,2.04-.65,1.56,1.25,1.58,1.01,2.35-.46.19-1.29,0-1.56.5-.41.72-.63,1.51-1.42,2.2-.18.18-.3.25-.42.22-.17-.05-.18-.04-.12.87.18,1.45-.48,1.46-.36,2.76.25.24,1.06.75.9,1.01-.22.95-1.67-.62-2.11.79-.17.5-.85,1.16-1.31,1.48-.42.28-.45.33-.45.62,0,.48-.25,1.35-.5,1.74-.31.31-.17,1.28-.06,1.64.05.09.26.31.46.5.34.3.36.34.21.42-.13.14-.89-.18-1.16-.25-.17.11-.68.49-.79.5-.41.65-.81,1.89-1.77,1.92-.23-.03-.26.91-.26,1.04.02.27-.41,1-.57.99-.07,0-.13,0-.12.04-.11.63-.6,1.6-.03,2.09.25.22.33.43.18.51-.19,0-.38-.33-.66-.35-.33-.13-.82.08-1.01.32-.06.09-.14.14-.18.13-.03-.02-.14.14-.25.35-.23.57-.82,1-1.36,1.04-.16,0-.17.02-.19.59.02.26-.17.23-.21.4,0,.15-.68,1.13-.69,1.28-.05.25.2.83.42.97.21.14.26.36.08.36-.29-.04-.81-.26-1.11-.18-.67.41-1.73,1.66-2.64,1.62-.34-.08-.21.47-.26.62-.52,1.1-1.64,1.38-1.16,3.02.1.42.34.73.5.63.11-.03-.18.25-.19.22-2.06-1.76-.69-1.25-3.07-.22-.3.12-.66.22-.8.22-.93.03-.39.88-1.32,1.7-.93.79,0,1.56-.58,1.83-.92-1.71-1.51-.01-3.04-.2h-.76c-.13.25-.4.79-.54.94-.23.34-.39.79-.91,1.35-.28.22-.41.94-.7,1.07-.13.04-.14.02-.06-.07.42-.56-1.68.58-1.73.69-.26.24.1.17.16.08.16-.16.32-.09.03.2-.25.23-.34.43-.46.1-.11-.29-.53-.71-.57-.26,0,.14-.03.18-.14.15-.16-.06-.57.32-.11.2.68-.05-.32.41-.79.54-.55.15-.71.25-.6.35.41.16,1.07-.36,1.48-.42.45-.09-.03.07,0,.22,0,.06-.18.17-.46.25-.5.11-1.36.5-1.88.6-.08,0-.14.04-.14.08,0,.05-.03.06-.08.03s0-.14.11-.26c.17-.18.19-.28.18-.76-.09-1.13.99-1.14,1.63-1.8.67-.74.93.19,1.98-.45.78-.5-.88.12-1.17-.16l-.34-.12c-.63.44-1.35.9-1.97,1.3-.38.2-.48.56-.43.98.1.56-.39.88-.54.26-.44-1.63-1.44.07-2.7-.71-.55-.27-.59-.08-1.08.32-.4.42-1.1.66-1.43,1.03-.39.53-.54.6-.72.02-.12-.46-.26-.52-.76-.41-.42.1-1.27.1-1.72,0-.79-.18-.75-.19-1.03.17-.19.29-.98.71-1.19.89-.02.04-.1.07-.18.07-1.02-.02-1.38-1.03-2.41-.96-.3-.06-2.12.44-1.92.76.08.1.06.14-.13.2-.3.15-.5-.14-.79-.05-.45.12.06-.62-1.23-.5-1.5.06.64.08.63.48,0,.06-.28.06-1.19-.06-.34-.04-.42-.03-.39.06.13.24,1.04.2,1.14.48-.06.11-.65.09-.77-.03-.06-.06-.21-.14-.33-.2-.39-.08-.07-.84-.32-.82-.23.07-.16.62-.55.42-.14-.1-1.36.07-1.35-.14,0-.14.4-.36.7-.36.56.06-1.11-.74-1.34.25-.09.58-1.32-.08-1.76-.2-.22-.06-.36-.14-.36-.21.05-.28.61,0,.33-.33-.58-.69-.99-.37-1.95-.79-.53-.18-.91-.26-.91-.22s-.1,0-.2-.14c-.52-.54-1.39.14-2.22.02-.46,0-.71.03-.71.09-.07.15,2.09-.03,2.11-.08.36-.11,1.23.52,1.45.51.31.15,1.03.08,1.3.37.53.52-.21.4-.62.3-.4-.1-1.18-.04-1.51-.11-.27-.1-.12-.62-.41-.68-.08-.02-.35.6-.37.63,0,.02-.11.04-.22.05-.48-.03-.18-.24-1.13-.33-.3-.05-.75-.07-.98-.21-.06-.05-.15-.05-.21,0l-.03-.07c.29-.1.37-.27.21-.43-.08-.05-.68.22-.9.42-.17.17-.54,0-.38-.26.35-.58-.58-1.7-.99-1.79-.24-.03-1.18-.83-1.47-1.21-.96.29-2.13,0-2.69-.34-.38-.23-.83-.32-1.18-.23-.18.02-.11.32-.23.34-.14-.02-1.15-.49-1.31-.48-.13,0-.14-.03-.09-.18.03-.1.06-.34.06-.55,0-.35-.02-.39-.51-.87-1.31-1.24-1.44-1.38-1.44-1.55,0-.26-.24-.43-.49-.47-.34-.06-.88-.37-1.37-.78-.42-.35-.48-.38-.85-.35-.42.02-.93.23-1.17.5-.33.33-.71.13-.45-.27.38-.29.7-1.3.32-1.68-.09-.08-.16-.19-.16-.25s-.17-.22-.38-.37c-.32-.17-.76-.65-1-.79-.04,0-.06-.05-.06-.11-.03-.18-.26-.29-.24-.54-.07-.53-1.26-.92-1.56-1.35-.09-.1-.38-.28-.66-.41s-.52-.23-.54-.23c-.12.06-.77.68-.93.71-.57.17-.46-.33.03-.79.31-.3.34-.35.34-.75.09-.42-.41-.96-.52-1.26-.13-.33-.5-.93-.61-1.28-.11-.28-.6-.47-.83-.49-.13.05-1.15-1.04-1.23-1.04-.03,0-.19-.09-.35-.2-.51-.45-.77.06-1.21.2-.26-.12-.44-.21-.02-.6.4-.44.38-.57.44-1.14.13-.43-.44-1.35-.67-1.67-.59-.52.06-1.71-.67-1.84-.2-.05-.44-.32-.62-.38-.06-.02-.17-.09-.23-.18-.47-.77-.81-1.94-1.98-1.27-.9.35.07-.7.2-.97.16-.26.18-.37.14-.76-.07-.61-.45-1.18-.56-1.79-.06-.27-.14-.5-.18-.52-.22.09-.22.4-.15.71.16.72.97,1.53.41,2.23-.26.31-.48.3-.82.46-.1.07-.22.05-.33.05.04-.04.03-.12-.04-.25-.26-.47-.51-1.14-.44-1.14.04,0,.07.05.07.1,0,.17.58,1.03.7,1.03.23,0,.03-.16-.07-.38-.26-.42-.47-.9-.79-1.26.04.19.2.65-.11.31-.29-.17.32-.5-.05-.58-.41-.02.81-.98.66-1.12-.02-.14-1.39-.06-1.45-.14-.04-.02-.1,0-.13.07.13.68.77,1.85,1.09,2.62l-.19.09c-.28-.56-.85-1.86-1.16-2.49.02-.18-.36-1.12-.67-1.68-.13-.23-.23-.47-.23-.53-.15-.34-.36-.56-.52-1.15l.3-.04c.26.81.5,1.03,1.13.52.67-.33,1.41.24,1.58,1.19.02.32.63.95.87,1.04.36-.09-.45-1.07-.55-1.27-.26-.5-.68-1.07-.9-1.22-.42-.44-1.22.23-1.57-.17-.35-.31-.13-.29.25-.63,1.49-.98-.27-2.22-.04-3.57v-.82c-1.28-.62-.71-2.22-2.45-2.03-.52,0-.58,0-.58-.14,0-.1.07-.16.22-.19.32-.07.65-.35.78-.67.19-.41-.07-1.36-.21-1.83-.2-.41-.07-1.44-.32-1.57l.02-.08c.1.02-.14-.71-.27-.86-.27-.19-.69-1.65-.79-2.05-.27-.49-2.06-.16-1.75-.84.06-.09.16-.17.24-.17.17,0,.66-.46.85-.63,0-.84-.01-2.51-.02-3.35-.15-.29-.51-1.01-.5-1.21,0-.1-.05-.26-.1-.35-.08-.14-.08-.18,0-.21.14-.05.12-.76-.02-1.11-.06-.16-.15-.26-.2-.23-.05.02-.1,0-.13-.07-.3-.32-.61-.31-1.17-.17-.59.13-.53-.24,0-.33,1.22-.27.86-1.34.92-3.01-.05-1.19-.04-2.63-.88-3.12-.2-.09-.9.08-1.07.1-.37-.05.72-.48.76-.7.24-.25.32-.99.41-1.27.06-.24-.14-.23-.13-.47,0-.27.42-1.23.4-1.52-.05-.53-.25-.82-.27-1.52-.08-.97-.08-1.35-1.11-1.25-.9.06-.68-.36-.11-.42,1.53-.23,1.15-2.08,1.39-3.13.08-.18.42-.4.42-.6-.79-1.09-.46-1.56-.58-2.82-.08-.54-.35-.83-.95-.75-.58.1-.99-.22-.18-.38,1.38-.14,1.31-1.95,1.71-2.89.12-.29.81-.57.8-.88-.16-.6-.57-1.42-.3-2.09.21-.59.12-2.31-.66-1.98h-.53c.03-.06,0-.09-.11-.15-.09-.06-.16-.14-.16-.2-.05-.16.73-.06.72-.17,0-.03.08-.1.18-.14.38-.25.72-1.21.75-1.88-.01-.75.58-1.35,1.26-1.45.7.03-.66-.66-.35-1.31.13-.27.17-1.12.24-1.41.03-.4.2-1.11-.21-1.37-.3-.32-1.13-.2-1.22-.53,0-.09.06-.1.26-.06,1.16.2,1.79-.23,1.95-1.57.05-.33.5-1.14.85-1.49.32-.33.32-.34.31-.92,0-.33.03-.92.08-1.31.08-.82.21-1.4-.21-2-.1-.09-.36-.23-.58-.31-.35-.17-.58-.11-.37-.42.26-.37,1.09.34,1.99-.41.47-.23.78-.92.86-1.31.25-.92,1.32-.99,1.03-1.25-.17-.37-.15-1.32.1-1.71.16-.34.2-.53.18-.86-.04-.56-.19-.85-.68-1.16-.38-.24-.54-.46-.44-.63.06-.1.36-.11.36-.02-.15.11,1.37.21,1.42-.03.06-.09.25-.3.41-.47.84-.76.34-1.78,1.39-2.24.78-.35-.05-1.34.71-2.28.75-1.08.84-1.84-.07-2.7-.24-.23-.33-.37-.29-.46.04-.11.1-.13.26-.09.46.1,1.37.12,1.74-.26.06-.08.38-.54.71-1.04,1.14-1.93,2.1-1.19,1.88-2.24-.1-.19-.02-.63,0-.8.35-.57,1.15-1.71.98-2.35.07-.33-.59-.94-.55-1.23.06-.54,1.67.54,2.71-1.18.58-.98,1.04-1.04,1.83-1.39.21-.53.44-1.37.86-1.85.32-.42.62-1.07.65-1.45.02-.23-.03-.42-.22-.75-.22-.42-.22-.46-.1-.54.14-.1.31-.17.4.02.07.2.79.52,1.18.53.43.1,1.24-.61,1.25-.81.07-.3,1.05-1.12,1.51-1.13.34-.06.8.07.8-.43-.14-1.28,2.09-1.93,1.22-3.09-.34-.45-.2-.79.25-.34.21.22.55.42.82.48.26.05,1.01-.11,1.15-.25.18-.17.53-.2.75-.32.66-.33.64-.33.91-.16.84.44,1.44.92,2.1.64.23-.2,1.54-.05,1.76-.2.02-.03,0-.06-.04-.07,1.07.06,2.07-.43,2.49-1.3.2-.26,1.35-.71,1.52-1.06.22-.29.3-.34.42-.29.47,1.13,1.37,1.73,2.48,2.48,1.07.82,2.2,1,3.54,1.39,1.06.33,1.43.32,2.43.41.54.05.66.03.66-.06,0-.1.02-.1.07,0,.25.22,1.41.08,1.79-.07.27-.09.57-.22.66-.27.14-.1.17-.1.26.04.32.28.69.25,1.19.55.87.34,1.7,1.75,2.39,2.24.67.42,1.16-1.34,1.55-1.62.47-.48,1.55-1.25,2.15-1.5,1.44.89,3.58,1.02,5.22.73.49-.18.79-.02,1.33-.26.53-.2.62-.06,1.05-.35.5-.35,1.5-.79,1.97-1.17.51-.51,2.45-2.24,2.38-2.99l.43-.03c.14,1.23.9,1.81,1.88,2.35.47.25,1.64,1.12,2.24,1.07.88.11,1.17.33,2.17.33.55-.02,1.58-.25,1.7-.38.18-.18.34.11.86-.38.13-.11.26-.21.3-.21.1-.05.05-.34.19-.41.11-.09.17-.08.38.04.15.13,1.1.45.77.69-.21-.07-1.07-.64-1.17-.36-.03.28,1.28.67,1.22.95-.06.37.83,1.3,1.11,1.72.26.33.51,1.59.61.51-.02-.65.38.2.4-.11,0-.18-.27-.4-.42-.34-.19.11-.73-.69-.78-.83-.3-.28-.44-.79-.39-1.33h.08c.06.27,1.23.96,1.51,1.24,0,.04.14.16.3.26.26.21.47.16.38.46-.07.31-.28-.11-.6-.32-.49-.44-.99-.83-1.48-1.04-.19.29.51.57.76.84.36.3.95.76,1.35,1.07l.15-.11.06.08c-.2.21,1.07,1.35,1.25,1.37v.16c-.64.03-1.13-.49-1.61-.57-.33-.07-.55-.21-.55-.34,0-.05-.03-.12-.08-.14-.05-.03-.08.08-.08.27-.09.35.44.64.67.63.06-.02.14,0,.15.06.02.06.18.14.35.16.92.27.97.62,2.26-.15.18-.14.44-.04.49.12-.13.34-.59.71-.45,1.19-.04,1.04,1.63,1.6,1.59,2.41-.1.68,1.04.52,1.67,1.39.51.47.86.74,1.76.66,1.84-.07.2.29.5,1.27.03.43.6.85.74,1.23.25.56.57.68.51,1.5.04.6-.06.81.38.85.54.09,1.27.57,1.56,1.23.26.52.4.54.81.75.22.11.27.11.63,0,.34-.1.4-.11.44,0,.02.24-.55.98-.59,1.23-.57,1.04.98,2.62,1.02,3.35,0,.73.3.4.62.79.07.13.25.34.38.48.96,1.2,1.04.91,2.37,1.23.31.2.1.33-.12.67-.82.96.42,1.97.13,3.46-.06.34-.07.64-.03.67.23.14,1.26.75,1.23.99.01.1.61.63.64.82-.11.35,1.03.41,1.2.52-.08.18-.41.56-.52.79-.14.16-.17,1.68.06,1.79.36.19.41,1.58.38,2.22.51.56,1.05,1.19,1.23,1.92.11.73.99.68,1.51.75.91.39-1.34.87-1.08,2.12-.04.41.17.69.24.91.12.48.24.66.22,1.63,0,1.01,0,1.03.22,1.21,1.18,1.06.24,3.86,2.51,3.61.26-.03.44-.02.48.03.08.14-.11.41-.3.41-1.43.32-1.31,1.04-1.07,2.34.39,1.23-.66,1.95-.26,2.71.08.17.21.32.27.34.92.74-.09,2.38,1.99,2.49.43.01.71.13.45.51h0Z"/>
</svg>