<?xml version="1.0" encoding="UTF-8"?>
<svg id="a" data-name="Layer 1" xmlns="http://www.w3.org/2000/svg" viewBox="0 0 1200 630">
  <g id="b" data-name="PL0YIx.tif">
    <path d="M36.27,667.87l-105.82-.05,12.34-11.15-10.87-20.54c-6.13,12.65-9.42,22.15-18.02,31.69l-83.03.06,6.94-22.33,5.68-16.07c22.88-64.8,55.3-125.04,94.29-181.61l21.46-29.14,36.23-44.09,21.89-23.24c18.8-19.96,42.6-42.14,63.68-59.49l11.1-9.14,22.04-16.91,13.66-10.12,20.95-14.47c60.55-39.97,125.15-72.88,194.48-94.3l16.57-5.12,11.73-3.47,14.46-4.15,13.24-3.32,15.06-3.54,20.15-4.11,17.76-3.4,21.56-3.15,18.85-3.11,25.35-2.77,21.13-1.42,46.47-.64h8.99s51.97.8,51.97.8l32.09,2.91,24.35,3.3,27.45,4.1,17.73,3.55,16.85,3.49,12.66,2.75,10.14,2.58,16.87,4.34,28.1,8.5c71.74,21.7,138.76,54.43,200.88,96.56l13.52,9.17,9.57,6.92c23.1,16.71,44.96,33.94,66.04,53.16l55.05,54.33,20.63,23.47c20.85,23.72,38.92,48.88,56.47,75.36,31.44,47.42,57.22,96.7,77.49,149.57l8.41,21.96,4.69,14.42,5.85,17.88h-210.42s-11.4-25.99-11.4-25.99c-.57-1.29-2.34-3.78-3.42-4.65-3.44-2.75-13.12,9.88-16.98,18.28l-5.68,12.37H73.03c-4.15-12.15-9.46-23.26-19.93-30.98-1.75-1.29-4.65,2.86-5.4,4.58l-11.43,26.4ZM622.5,140.42c-1.45-1.34-4.61-1.95-6.55-2.24-11.12-1.71-21.74-1.84-33.16-1.32l-14.63.67c-6.16.28-11.42.22-17.86,2.29,3.98,13.54,12.79,24.99,26.48,29.55,19.24,6.41,41.24-7.85,45.71-28.95ZM498.14,173.7c6.25-3.76,10.4-7.96,13.75-14.37,2.04-3.9,4.99-9.34,4.57-13.38-.53-5.17-5.17-4.17-8.12-3.79l-30.64,3.96-13.82,2.29-17.66,3.1c.81,7.22,5.92,13.72,11.6,18.52,11.48,9.69,28.03,11.04,40.32,3.66ZM743.81,154.17c-.74-.63-2.95-1.65-3.99-1.83l-20.94-3.72-15.25-2.72-28.85-3.24c-1.99,4.64-.94,9,.83,13.16,5.16,12.07,13.71,19.56,26.2,23.26,24.4,7.23,45.19-22.2,42-24.91ZM836.66,178.01l-17.86-5.53-21.69-6.47c-6.51-1.94-12.57-4.28-20.11-4.09-.44,15.62,6.44,28.66,19.35,36.92,16.23,10.39,41.51,2.26,49.66-15.61-2.8-2.43-5.66-4.09-9.35-5.23ZM354.03,205.48c14.82,4.66,37.46-9.11,41.39-27.08l2.27-10.36c.21-.98-1.11-4.17-2.06-4.39s-2.77-.04-3.79.27l-10.78,3.23-39.29,12.22-8.69,2.7c-1.64.51-5.04,2.56-5.02,4.15.02,1.36,2.14,3.37,3.17,4.61,6.45,7.68,13.25,11.64,22.8,14.65ZM633.57,247.74c13.62,1.21,27.65,1.45,41.66,4.52,1.76-1.38,1.06-5.19-.47-7.56-12.33-19.09-20.91-40.36-24.57-62.97-.95-5.87-.29-11.41-4.87-16.59l-10.82,30.31c-6.33,14.01-14.05,27.25-23.53,39.23l-8.15,10.31,30.75,2.74ZM410.96,270.41l14.81-3.83,13.68-3.63,20.97-4.38,18.97-3.32c.98-2.12-2.43-5.26-5-7.48-21.91-18.92-36.78-42.38-48.47-69.93-2.64,11.77.51,22.85-1.6,33.78l-2.79,14.45-2.66,12.32-4.61,15.51-3.85,9.35c-.88,2.14-.5,6.96.56,7.16ZM597.39,194.82c-.42-1.26-3.15-3.3-4.55-3.1-15.31,2.17-30.45-3.97-43.24-12.38,6.89,14.93,18.66,23.76,31.92,30.66l15.87-15.18ZM492.6,218.98c11.53-5.97,17.39-13.26,23.78-22.35,3.04-4.32,7.36-7.25,6.1-14.43l-10.28,8.05c-7.9,6.19-26.4,11.58-37.84,9.99l-3.24-.45c-.7-.1-1.27,3.19-.58,3.68l22.05,15.51ZM573.1,217.58c1.33-1.38-2.77-5.23-4.57-6.15-10.52-5.4-17.59-14.79-25.4-24.99-2.82,7.61-1.21,16.84-.45,25.37l1.38,15.43c.15,1.64,1.35,4.82,2.61,5.68,3.28,2.24,18.71-7.34,26.43-15.34ZM514.19,230.96l12.65,3.6c2.66.76,9.59,1.98,10.46-1.64,1.44-5.95-.71-12.78-1.38-18.74l-2.81-25.13-4.84,3.03c-3.41,6.89-7.28,12.62-12.45,17.77l-14.58,14.51,12.95,6.59ZM733.69,195.73l-10.37,3.95c-8.89,1.45-19.21,2.85-27.41-.09l-12.44-4.47c.2-.69-1.03.55-1.15,1.23s.3,3.59.84,4.27l14.14,17.78c5.03,3.4,12.33-.69,17.28-3.37,18.8-10.17,30.27-23.54,19.11-19.29ZM271.21,243.43c17.27-5.88,27.26-20.99,25.4-39.14-.22-2.18-.71-5.61-2.82-6.59l-40.67,18.57-21.01,11.19c2.23,12.42,25.05,20.75,39.11,15.96ZM801.8,230.6c2.37-1.09,4.61-4.06,4.96-6.62-12.4-1.35-23.57-5.29-31.63-14.07l-9.53-10.38c-1.9,1.91-1.29,5.87.41,9.14,5.63,10.82,11.08,19.72,19.45,29.44l16.33-7.51ZM958.57,232.19c-21.36-12.28-41.84-22.24-64.64-31.55-5.69,19,3.72,39.01,23.85,46.52,12.96,4.84,33.61-2.64,40.79-14.97ZM736.18,249.77c3.46-9.67,4.74-16.36,6.33-24.75l2.4-12.65c.56-2.96.35-6.56-.84-9.34-9.37,7.43-17.6,14.4-28.13,19.59l-10.43,5.15,10.71,10.5,19.97,11.49ZM765.42,247.38l8.08-2.32c10.26-2.95-5.47-11.82-13.12-31.69-1.51-3.94-2.78-6.31-5.82-9.53l-2.59,10.05-3.6,16.54-2.62,13.8c-.25,1.33-.21,4.28.1,5.55s4.14,1.26,5.52.93l14.06-3.33ZM865.81,300.58c-3.2-8.99-3.89-18.24-5.32-27.01-2.45-15.07-2.89-28.88.42-44.16,1.13-5.21,1.49-11.79.41-17.3-15.12,24.1-33.28,43.95-56.39,59.26l-9.64,6.38c5.41,3.65,8.49,4.83,13.61,6.38,18.43,6.55,35.96,13.38,53.48,21.89,1.15.13,3.61.28,3.69-.54s.05-4-.27-4.9ZM367.55,241.63l10.3,1.98,6.72-11.77c1.9-3.33,2.83-6.61,2.1-10.21l-15.5,4.66c-5.72,1.72-15.2.89-21.12-.06l-11.37-1.8c4.6,6.96,22.66,16.02,28.88,17.21ZM277.3,273.2l17.46,5.32,6.92-7.2c6.9-11.92,16.11-30.79,12.25-39.72l-4.2,7.45c-6.29,12.55-21.73,22.99-34.46,25.23l-9.56,1.68c3.52,3.92,6.61,5.71,11.58,7.23ZM372.81,250.99l-11.04-3.57-31.01-15.85,13.35,32c1.9,4.55,4.28,8.76,7.03,12.72,9.56-7.09,17.4-14.66,21.67-25.3ZM306.67,282.47l33.79-.13c1.65-2.32,1.25-6.32.15-8.83l-15.59-35.46c-6.96,6.59-5.56,19.9-15.45,34.59-2.17,3.22-3.33,5.74-2.9,9.82ZM1029.59,300.48l15.93-7.23.16-5.62-57.5-38.74-3.53,11.07c-2.29,18.13,9.35,36.4,27.32,40.91,4.64,1.17,13.16,1.64,17.63-.39ZM942.02,268.94l-14.76.46c-12.33.39-20.7-2.79-31.07-9.6-3.95-2.59-5.77-5.82-11.62-6.04l9.74,28.33c5.91.2,12.8,1.55,18.09-.1l18.04-5.64c4.68-1.46,8.23-3.17,11.58-7.42ZM176.63,298.44c12.8-11.31,18.52-28.44,10.35-44.31-6.82,3.65-13.07,7.03-19.27,11.39l-36.76,25.85c-9.54,6.7,24.97,25.37,45.68,7.07ZM234.48,350.32l17.17-11.11,41.46-23.26c-1.13-3.65-4.4-5.38-8.44-5.51-23.28-11.17-44.08-26.19-60.39-46.37l-5.83-3.07,3.28,8.1,5.31,20.1c1,3.78,1.48,7.79,1.62,11.94,2.81,15.55,4.08,30.42.21,45.96l.77,3.95c.19.95,3.9-.11,4.84-.72ZM923.63,321.39l21.62-40.48c-3.62-2.33-5.78.12-8.86,1.14l-15,4.96-21.5,4.89c5.37,12.3,12.05,21.33,23.74,29.49ZM964.72,327.37l-3.34-11.07-4.32-16.23-1.46-18.67c-4.07,3.74-5.24,6.04-7.46,10.1l-16.93,31.04c1.95,3.31,6.46,5.3,9.95,5.24l23.56-.41ZM973.46,325.27c9.31-.86,16.8-2.07,24.05-5.96-13.06-7.1-22.16-15.77-28.52-28.22l-2.81-9.07c-2.39,1.88-3.9,5.54-3.28,8.76l3.15,16.29c1.16,6.01,4.5,11.75,7.41,18.21ZM619.7,333.66l12.84-12.12c5.1-4.81,7.59-10.83,10.59-18.85l-31.29-3.63c-15.14-1.75-30.79-1.61-45.86.04l-31.02,3.4c.38,7.53,4.07,13.56,9.22,18.67l9.53,9.44c6.95,6.89,21.27,12.59,32.85,12.6,11.58.01,27.21-3.96,33.14-9.56ZM425.6,358.16c27.73,10.6,58.21-8.77,66-26.6l7.82-17.89c.66-1.52-.4-6.09-1.89-6.77-1.24-.57-4.4-.73-5.79-.41l-17.63,3.96-21.83,4.52-12.18,3-16.8,4.32-20.01,6.36c-3.05.97-6.01,2.17-9.13,4.15,4.55,12.12,19.08,20.63,31.44,25.36ZM760.24,324.27l-17.09-4.82-12.21-3.04-14.16-3.41-22.63-3.95c-4.15-.72-10.1-5.61-14.71-1.8-2.33,3.71-.38,10.77,1.55,15.28,6.45,15.03,17.19,27.46,32.55,34.31l18.05,4.62c19.98-.17,37.56-8.88,49.68-24.61.49-1.36,1.24-4.9.14-5.58-.87-.55-2.67-1.23-4.12-1.68l-17.06-5.34ZM160.43,333.92c10.24,3.19,21.37,2.48,32.34,2.13l2.42-9.48,2.56-12.83c-7.28-2.33-10.28,6.08-19.19,9l-8.73,2.86c-11.44,3.75-18.7-.18-19.73,5.1l10.33,3.22ZM87.35,368.99c29.57-15.16,17.89-52.18,13.66-51.82-1.47.12-4.11,1.83-5.45,3l-22.16,19.25-25.24,24.36c8.94,9.81,26.07,11.93,39.18,5.2ZM1031.83,412.95l.8-27.26,3.83-16.5,4.47-16.25,13.03-30.67c-23.23,19.48-49.16,34.81-79.7,41.8-1.61-1.59-6.74,2.44-5.3,3.56l30.51,23.75,28.68,24.2c.52.44,2.57,1.27,2.74.67l.92-3.29ZM1134.01,364.33l-40.96-38.76c-1.41-1.33-3.54-3.24-5.01-3.43-4.23-.55-16.33,29.54,6.1,48.12,12.67,10.5,30.73,11.43,45.11,1.16-1.02-2.61-2.86-4.84-5.25-7.09ZM189.62,352.67c1.11-2.19,1.06-8.26-1.05-8.56-6.33-.9-14.36.76-19.88-.72l-21.97-5.9c-.53,4.25,1.96,5.63,4.33,8.48l21.15,25.35c1,1.2,2.89,3.04,4.11,2.91s3.39-2.07,3.96-3.2l9.35-18.36ZM124.94,393.26c5.58-13.44,6.82-25.76,6.93-39.5.03-4.04-.66-7.77-3.83-10.5-2.71,22.14-14.96,36.82-34.21,47.53,11.05,4.55,20.72,3.77,31.11,2.47ZM344.4,396.6c13.73-13.37,19.65-32.41,14.94-51.74-31.84,13.64-62.03,28.83-90.81,47.5l-3.25,2.11c-5.1,3.31,41.69,38.58,79.11,2.13ZM154.72,389.02l9.58-3.98c1.42-.59,3.31-2.1,3.94-3.19s-.34-4.56-1.27-5.63l-19.67-22.59-7.54-7.85c-1.4,3.6-1.5,5.91-1.02,9.91.98,8.17-.26,22.95-3.54,30.02-.76,1.64-1.3,6.23.16,6.52,3.76.74,13.23-.68,19.35-3.22ZM912.43,397.56c-2.1-3.32-2.95-4.28-4.94-6.12-27.51-17.37-55.85-31.89-85.68-44.94h-3.84c-.76.01-1.4,1.64-1.97,2.8-1.69,19.54,5.65,38.85,21.1,50.97,22.16,18.37,52,16.46,75.32-2.7ZM1110.46,403.26c-1.61-5.37-4.25-5.28-7.76-5.87-12.35-2.07-23.6-9.03-30.81-19.15-2.76-3.87-4.72-6.3-8.74-10.1l.31,27.47c.12,10.57,29.93,9.07,47,7.64ZM1208.41,450.94l-15.64-20.28-15.02-18.74-13.89-16.51c-5.07,3.7-6.37,8.87-8.5,13.88-3.32,7.81-3.41,14.8-.37,22.58,3.86,9.87,10.11,17.51,20.14,21.62,11.21,4.6,23.19,5.14,33.28-2.53ZM132.37,431.74c.56-.58,1.17-3.89.41-4.1-4.23-1.18-10.04-.53-23-3.71l-17.32-4.25c-15.48-3.8-29-12.24-42.98-20.6-1.41,1.41-.69,3.81.92,5.99,16.82,22.93,27.78,48.81,32.11,77.58,2.56.31,4.81-1.98,6.75-4.19l20.54-23.52,22.58-23.21ZM20.93,439.77c3.9-12.33,2.28-16.99-.81-28.34-1.03-3.79-4.44-7.31-7.75-8.76l-15.14,17.72-28.86,37.57c18.58,12.45,46.41,1.25,52.56-18.19ZM1088.81,436.96l24.16-24.73-29.4-.46c-5.76-.09-10.27-1.1-16.6-2.55-1.36,10.5,5.57,24.95,11.92,35.08,4.38-1.6,6.77-4.12,9.92-7.34ZM154.68,488.94c21.64,12.31,46.22,10,65.23-5.61,16.29-13.38,22.94-33.59,19.32-54.52-.83-4.82-2.11-8.71-5.28-13.02l-19.02,14.99-30.35,25.97-26.37,25.27c-1.66,1.6-5.49,4.54-3.53,6.91ZM1023.62,487.08c-25.54-26.81-51.79-49.65-80.65-71.53-5.43,7.5-5.32,15.42-5.43,23.72-.12,8.69.83,16.51,4.64,24.48,14.29,29.89,54.08,44.26,81.44,23.33ZM1118.69,458.13l.56-29.78c.06-3.24,5.08-7.07,1.03-11.02l-29.41,27.96c-.95.9-2.07,2.5-2.51,3.41s.94,3.88,1.88,4.45c11.02,6.61,28.3,13.07,28.45,4.99ZM1152.56,466.53l-8.07-10.09c-8.32-10.4-11.93-22.27-11.97-34.72-2.3.81-5.19,2.25-5.41,3.73l-3.11,21.63c-.29,3.74,2.02,11.54,3.18,15.05.63,1.91,16.49,6.45,25.38,4.4ZM2.28,485.58c15.7,1.99,28.58-1.26,40.97-7.83,1.49-8.44.16-16.5-4.98-23.59-6,11.55-15.59,21.08-28.45,25.17-3.59,1.14-7.36,2.57-7.55,6.24ZM1140.74,551.04l8.34,13.76c1.08,1.77,2.44,4.33,4.21,4.2,1.27-.09,2.52-2.63,2.97-4.35,6.21-23.54,17.73-43.76,33-62.48l10.9-11.77c.69-.75,1.61-2.98,1.64-3.98s-3.3-.26-4.33.13l-15.52,5.9-9.77,2.93-19.33,3.54c-14.69,2.69-28.34,5.36-43.93.78-.69,2.56.1,5.96,2.29,8.67,10.96,13.6,20.28,27.39,29.54,42.66ZM-85.71,544.27c-.59,1.02-.42,5.57.72,5.58l4.14.04c22.79,4.38,43.16-10.81,44.42-34.05-.62-10.87-4.9-20.28-12.35-28.46-2.67.41-4.91,3.15-6.71,5.98l-7.82,12.31-22.4,38.6ZM28.05,514.14l10.79,6.42c4.19-5.93,4.59-10.49,5.4-17.18.66-5.44,1.34-11.84-1.48-16.09l-18.6,4.4c-13.82,3.27-21.38-.29-24.13,4.4l28.02,18.05ZM1273.29,556.68l-8.47-17.21-14.01-24.7-13.58-21.19c-12.79,7.54-17.54,28.91-11.45,42.77,4.21,9.59,14.23,18.66,25.03,20.64,7.42,1.36,14.71.61,22.48-.31ZM34.05,529.96c-1.32-2.47-3.47-5.39-5.26-6.51l-32.7-20.4c-1.09,7.96,5.05,17.75,5.73,26.44l1.58,20.2c10.89-3.19,22.14-10.46,30.65-19.74ZM-23.03,558.53c6.87-1.5,12.62-2.85,18.27-5.86,1.41-8.08.81-15.64-.97-23.51l-2.78-12.29c-1.14-5.03-2.2-8.14-7.16-11.51l-1.21,19.5c-.65,10.51-6.12,21.26-13.47,28.8-1.67,1.71-5.95,4.27-3.17,7.17,1.85,1.78,7.88-1.73,10.48-2.3ZM141.46,560.47c4.52-26.05-9.94-47.37-12.76-44.5l-2.83,2.89c-21.46,26.46-40.4,53.3-57.82,83.44,2.39,2.41,6.11,3.67,10.96,4.56,29.16,2.2,57.21-16.1,62.46-46.39ZM1096.73,607c5.68-.35,9.33-1.95,12.11-5.11l-13.75-22.29c-13.16-21.34-27.64-40.99-43.64-60.44-1.23-1.5-3.27-3.88-4.53-3.26-3.99,1.98-9.92,15.09-10.4,19.19l-1.76,14.88c-.43,3.6.34,9.8,1.29,13.68,6.61,27,32.78,45.06,60.69,43.35ZM1235.51,578.68c1.38.22,2.69-.87,3.36-2.97-16.45-6.24-30.78-18.53-34.2-36.2l-.94-4.88c-.2-1.02-3.45-1.29-4.39-.96l-3.97,11.82-3.37,11.19c-3.03,10.05,26.59,19.24,43.52,21.99ZM1232.82,589.04c.57-.36,1.98-2.98,1.34-3.11l-2.43-.48-10.43-2.21c-10.38-2.2-19.56-6.16-29.53-11.98-3.38,8.11-2.67,17.77-1.47,27.51.48,3.85,1.76,8.55,5.39,9.82l37.13-19.56ZM9.71,597.92l7.58-15.32-16.22,2.89c-14.44,2.57-30.65,3.52-44.96,1.35l-16.56-2.52c-5.51-.84-11.18-5.76-17.33-2.06,8.86,6.84,18.01,12.22,24.9,20.18l9.28,10.71c10.36,11.96,18.98,24.62,24.93,39.48,3.66.18,4.47-3.16,5.79-6.19l11.07-25.52,11.53-22.98ZM1314.78,652.25l-19.7-50.05-4.57-10.59c-.45-1.03-2.04-3.12-2.99-3.67-2.88-1.69-14.41,10.87-17.18,21.49-5.36,20.59,6.32,36.84,26.48,43.83,6.01,2.08,12.17,4.41,17.96-1.01ZM-118.8,661.28c16.44-4.81,29.16-18.23,29.39-36.2l-3.79-12.47c-2.41-7.92-8.13-13.28-15.59-18.9-6.16,11.72-10.29,22.5-14.67,34.08l-10.43,27.57c-.63,1.67.13,6.72,1.89,7.14,4.08.96,9.17-.03,13.19-1.21ZM1223.4,636.84c1.49-1.42,3.57-4.14,3.74-5.38,2.97-22.65,14.17-32.22,13.15-35.29-.29-.86-3.07-.87-3.88-.45l-29.69,15.36c-3.24,1.68-5.39,2.67-8.45,5.54,6.95,9.07,15.14,14.64,25.13,20.21ZM1254.88,649.62c-.95-4.95-1.43-6.04-2.46-8.5-3.81-9.09-5.12-19.57-3.65-29.42.61-4.06.97-7.65.74-12.39-9.98,10.17-20.85,40.85-14.63,43.44l5.9,2.45,14.1,4.41Z"/>
  </g>
</svg>