<?xml version="1.0" encoding="utf-8"?>
<!-- Generator: Adobe Illustrator 30.3.0, SVG Export Plug-In . SVG Version: 9.03 Build 0)  -->
<svg version="1.0"
	 id="svg46" xmlns:svg="http://www.w3.org/2000/svg" xmlns:inkscape="http://www.inkscape.org/namespaces/inkscape" xmlns:sodipodi="http://sodipodi.sourceforge.net/DTD/sodipodi-0.dtd"
	 xmlns="http://www.w3.org/2000/svg" xmlns:xlink="http://www.w3.org/1999/xlink" x="0px" y="0px" viewBox="0 0 255.7 170.7"
	 style="enable-background:new 0 0 255.7 170.7;" xml:space="preserve">
<style type="text/css">
	.st0{stroke:#000000;stroke-width:3;stroke-miterlimit:10;}
</style>
<sodipodi:namedview  bordercolor="#000000" borderopacity="0.25" id="namedview46" inkscape:current-layer="svg46" inkscape:cx="176.45978" inkscape:cy="153.29518" inkscape:deskcolor="#d1d1d1" inkscape:pagecheckerboard="0" inkscape:pageopacity="0.0" inkscape:showpageshadow="2" inkscape:window-height="746" inkscape:window-maximized="0" inkscape:window-width="1288" inkscape:window-x="0" inkscape:window-y="38" inkscape:zoom="0.73387827" pagecolor="#ffffff">
	</sodipodi:namedview>
<g id="g4" transform="translate(-59.852757,-114.26092)">
	<g id="g3" transform="translate(122.67221,170.1043)">
		<g id="g2">
			<path id="path1" class="st0" d="M12.2,6.6c0,0.8-0.4,1.2-1.3,1.2c-0.8,0-1.5-0.4-2.1-1.1C6.7,4,5.6,0.8,5.6-2.9v-35.8
				c0-0.3,0-0.8-0.1-1.3c-0.1-0.5-0.1-0.9-0.1-1.2c0-1.1,0.5-1.6,1.5-1.6c0.9,0,1.3,0.6,1.3,1.7c0,0.3-0.1,0.6-0.2,1
				c-0.1,0.4-0.2,0.8-0.2,1.1v36c0,2.8,0.6,5.1,1.7,7c0.2,0.3,0.7,0.6,1.5,1C11.8,5.6,12.2,6.1,12.2,6.6z"/>
		</g>
	</g>
</g>
<g id="g7" transform="translate(-59.852757,-114.26092)">
	<g id="g6" transform="translate(130.02441,170.1043)">
		<g id="g5">
			<path id="path4" class="st0" d="M4.5-12.5c0-2.3,0.4-4.6,1.2-6.8c0.8-2.2,1.6-4.3,2.4-6.5c0.2-0.3,0.4-0.7,0.6-1.3
				c-0.1,0.3-0.1-0.1-0.1-1.4c0-1.4,0.5-2.1,1.6-2.1c0.9,0,1.4,0.7,1.4,2c0,1.1-0.4,2.4-1.1,3.9c-1.5,3.3-2.5,5.3-2.8,6.2
				c-0.7,2.1-1.1,4.4-1.1,6.9c0,2.9,1,5.5,2.9,7.9C11.6-1.2,14.1,0,17,0c3.5,0,6.2-1,8.3-2.9c2.1-1.9,3.1-4.3,3.1-7.1v-16.7
				c0-0.3,0-0.8-0.1-1.3c-0.1-0.5-0.1-0.9-0.1-1.2c0-1.1,0.5-1.6,1.5-1.6c0.9,0,1.3,0.6,1.3,1.7c0,0.3-0.1,0.6-0.2,1.1
				c-0.1,0.4-0.2,0.8-0.2,1.1v24.5c0,0.3,0.1,0.6,0.2,1C30.9-0.9,31-0.5,31-0.2c0,1.1-0.4,1.7-1.3,1.7c-1,0-1.5-0.5-1.5-1.6
				c0-0.3,0-0.5,0.1-0.6c0-0.1,0-0.3,0-0.6c0-0.6,0-0.9-0.1-0.9c-0.2,0-0.6,0.2-1.1,0.6C24,0.9,20.6,2.2,16.9,2.2
				c-4.1,0-7.2-1.6-9.5-4.8C5.5-5.3,4.5-8.6,4.5-12.5z"/>
		</g>
	</g>
</g>
<g id="g10" transform="translate(-59.852757,-114.26092)">
	<g id="g9" transform="translate(161.55405,170.1043)">
		<g id="g8">
			<path id="path7" class="st0" d="M39.8-38.2c0.3,0.5,0.1,0.7-0.5,0.7c-0.5,0-1.1-0.3-1.6-0.9c-0.9-0.9-1.3-1.3-1.4-1.4
				c-0.5-0.3-1.2-0.5-2.1-0.5h-9.5c-0.9,0-1.3,0.9-1.3,2.8V-3c0,0.3,0.1,0.8,0.4,1.3c0.3,0.5,0.5,1,0.5,1.4c0,1.3-0.6,2-1.8,2
				c-1.1,0-1.7-0.7-1.7-2.1c0-0.3,0.1-0.7,0.3-1.2c0.2-0.5,0.3-0.9,0.3-1.2v-34.7c0-1.9-0.6-2.8-1.7-2.8h-9.1
				c-0.4,0-0.9,0.3-1.6,0.8c-0.3,0.3-1,1.1-1.9,2.4c-0.3,0.5-0.7,0.6-1,0.5c-0.4-0.1-0.6-0.3-0.5-0.6c0.2-0.9,0.7-2.2,1.4-4
				c0.3-0.7,0.9-1,1.8-1h28.3c0.4,0,0.7,0.2,0.9,0.5C38.3-41.1,38.9-39.9,39.8-38.2z"/>
		</g>
	</g>
</g>
<g id="g13" transform="translate(-59.852757,-114.26092)">
	<g id="g12" transform="translate(195.38153,170.1043)">
		<g id="g11">
			<path id="path10" class="st0" d="M31.9-0.4c0,1.3-0.5,1.9-1.5,1.9c-0.8,0-1.3-0.5-1.4-1.6c0-0.2,0-0.4,0.1-0.7
				c0.1-0.2,0.1-0.4,0.1-0.5v-1.2c0-0.5-0.1-0.8-0.3-0.8c-0.2,0-0.6,0.2-1.2,0.6c-2.5,1.6-4.5,2.7-6,3.4c-2.2,0.9-4.5,1.4-6.9,1.4
				c-2.7,0-5.1-1-7-3.1C5.9-3.1,5-5.6,5-8.4c0-3.4,1.2-6.4,3.5-9c1.5-1.6,4.2-3.8,8.3-6.5c1.9-1.3,5.2-2.7,9.7-4.3
				c0.3-0.1,0.4-0.2,0.4-0.5c0-0.3-0.2-0.4-0.6-0.5c-1.3-0.3-2.6-0.5-3.8-0.5c-2.1,0-4.5,0.6-7.4,1.9c-1.2,0.5-2.3,1.2-3.4,2.1
				c-1.1,0.9-2.1,1.7-3.2,2.6c-0.2,0.1-0.4,0.2-0.7,0.1c-0.3-0.1-0.4-0.2-0.4-0.4c0-0.1,0-0.3,0.1-0.5c0.4-0.8,1.1-2.5,2-5.1
				c0.1-0.3,0.5-0.6,1.1-0.7c0.2-0.1,0.4,0,0.7,0.1c0.3,0.2,0.5,0.2,0.6,0.2c0.5,0,1-0.1,1.5-0.3c2.5-1.1,4.1-1.7,4.8-1.9
				c1.7-0.5,3.5-0.8,5.3-0.8c2.5,0,4.4,0.7,5.8,2.1c1.4,1.4,2.2,3.2,2.2,5.4v23.2c0,0.1,0.1,0.3,0.2,0.5C31.8-0.8,31.9-0.6,31.9-0.4
				z M29.2-9v-15.6c0-1.3-0.5-1.9-1.6-1.9c-0.3,0-0.6,0.1-0.9,0.2c-2.5,0.9-4.1,1.5-4.7,1.8c-1.6,0.7-3.1,1.5-4.5,2.5
				c-3.5,2.5-6,4.5-7.3,6c-2.1,2.3-3.1,4.9-3.1,7.6c0,2.2,0.8,4.1,2.5,5.7c1.6,1.6,3.6,2.4,5.8,2.4c2.2,0,4.2-0.5,6-1.4
				c0.3-0.1,2.3-1.3,5.9-3.6C28.5-6.2,29.2-7.4,29.2-9z"/>
		</g>
	</g>
</g>
<g id="g16" transform="translate(-59.852757,-114.26092)">
	<g id="g15" transform="translate(225.71229,170.1043)">
		<g id="g14">
			<path id="path13" class="st0" d="M16.3-29.3c0,0.8-0.4,1.2-1.3,1.2H9.1c-0.9,0-1.3,0.6-1.3,1.9v25.9c0,2.3,0.9,4.6,2.8,7.1
				c0.3,0.3,0.7,0.6,1.4,0.8c0.7,0.2,1,0.3,1.1,0.3c0.7,0.3,1,0.8,1,1.5c0,0.8-0.4,1.2-1.3,1.2c-0.5,0-1.3-0.3-2.2-0.9
				C9.1,8.8,7.9,7.2,6.9,4.9C6,2.9,5.6,1.2,5.6-0.3v-31.8c0-0.3,0-0.8-0.1-1.3c-0.1-0.5-0.1-0.9-0.1-1.2c0-1.1,0.5-1.6,1.5-1.6
				c0.9,0,1.3,0.6,1.3,1.7c0,0.3-0.1,0.6-0.2,1c-0.1,0.4-0.2,0.8-0.2,1.1c0,1.4,0.4,2.1,1.2,2.1h4.6c0.2,0,0.4,0,0.7-0.1
				c0.3-0.1,0.5-0.1,0.6-0.1C15.8-30.4,16.3-30,16.3-29.3z"/>
		</g>
	</g>
</g>
<g id="g19" transform="translate(-59.852757,-114.26092)">
	<g id="g18" transform="translate(236.0617,170.1043)">
		<g id="g17">
			<path id="path16" class="st0" d="M16.3-29.3c0,0.8-0.4,1.2-1.3,1.2H9.1c-0.9,0-1.3,0.6-1.3,1.9v25.9c0,2.3,0.9,4.6,2.8,7.1
				c0.3,0.3,0.7,0.6,1.4,0.8c0.7,0.2,1,0.3,1.1,0.3c0.7,0.3,1,0.8,1,1.5c0,0.8-0.4,1.2-1.3,1.2c-0.5,0-1.3-0.3-2.2-0.9
				C9.1,8.8,7.9,7.2,6.9,4.9C6,2.9,5.6,1.2,5.6-0.3v-31.8c0-0.3,0-0.8-0.1-1.3c-0.1-0.5-0.1-0.9-0.1-1.2c0-1.1,0.5-1.6,1.5-1.6
				c0.9,0,1.3,0.6,1.3,1.7c0,0.3-0.1,0.6-0.2,1c-0.1,0.4-0.2,0.8-0.2,1.1c0,1.4,0.4,2.1,1.2,2.1h4.6c0.2,0,0.4,0,0.7-0.1
				c0.3-0.1,0.5-0.1,0.6-0.1C15.8-30.4,16.3-30,16.3-29.3z"/>
		</g>
	</g>
</g>
<g id="g22" transform="translate(-59.852757,-114.26092)">
	<g id="g21" transform="translate(246.41111,170.1043)">
		<g id="g20">
			<path id="path19" class="st0" d="M34.6-15c0,4.5-1.5,8.3-4.5,11.6c-3,3.3-6.6,4.9-10.9,4.9c-4.1,0-7.6-1.6-10.4-4.7
				C6-6.3,4.6-10,4.6-14.3c0-4.5,1.4-8.5,4.2-11.9c2.8-3.4,6.3-5.2,10.6-5.2c4.4,0,8,1.6,10.9,4.8C33.1-23.3,34.6-19.5,34.6-15z
				 M32.3-15.1c0-3.6-1.2-6.8-3.7-9.7c-2.4-2.9-5.4-4.3-8.9-4.3c-3.9,0-6.9,1.4-9.1,4.3c-2.2,2.9-3.3,6.3-3.3,10.3
				c0,3.9,1.1,7.1,3.3,9.8c2.2,2.7,5.1,4,8.5,4c3.7,0,6.9-1.5,9.4-4.4C31-7.8,32.3-11.2,32.3-15.1z"/>
		</g>
	</g>
</g>
<g id="g25" transform="translate(-59.852757,-114.26092)">
	<g id="g24" transform="translate(279.43935,170.1043)">
		<g id="g23">
			<path id="path22" class="st0" d="M34.6-15c0,4.5-1.5,8.3-4.5,11.6c-3,3.3-6.6,4.9-10.9,4.9c-4.1,0-7.6-1.6-10.4-4.7
				C6-6.3,4.6-10,4.6-14.3c0-4.5,1.4-8.5,4.2-11.9c2.8-3.4,6.3-5.2,10.6-5.2c4.4,0,8,1.6,10.9,4.8C33.1-23.3,34.6-19.5,34.6-15z
				 M32.3-15.1c0-3.6-1.2-6.8-3.7-9.7c-2.4-2.9-5.4-4.3-8.9-4.3c-3.9,0-6.9,1.4-9.1,4.3c-2.2,2.9-3.3,6.3-3.3,10.3
				c0,3.9,1.1,7.1,3.3,9.8c2.2,2.7,5.1,4,8.5,4c3.7,0,6.9-1.5,9.4-4.4C31-7.8,32.3-11.2,32.3-15.1z"/>
		</g>
	</g>
</g>
<g id="g28" transform="translate(-59.852757,-114.26092)">
	<g id="g27" transform="translate(118.53326,278.56882)">
		<g id="g26">
			<path id="path25" class="st0" d="M6.8-87.6C-4.7-70,4-50.8,20.1-37.1C29.7-28.8,45.6-14,40-2.5c-4,8.1-22.3,7.6-25.2-5
				c-0.9-4-0.9-12.1,10.2-13.5c2-0.2,1.6-3.2-0.4-3c-9.3,1.3-12.5,9.2-10.8,16.3C16.9,5.8,36.5,7.7,41.8-2.2
				C48.6-15,32.9-30,22.3-39.7C6.4-52.4-4-70.1,7.6-87.1c13.2-19.5,44.8-21.2,37.8-1.8c-1.9,5.1-5.4,7.4-8.5,9.9
				c-1.9,1.6,0.5,4.6,2.5,3c3.8-3.1,7.1-7.3,8.6-12.1C54.4-110.3,20.8-108.8,6.8-87.6z"/>
		</g>
	</g>
</g>
<g id="g31" transform="translate(-59.852757,-114.26092)">
	<g id="g30" transform="translate(170.25157,278.56882)">
		<g id="g29">
			<path id="path28" class="st0" d="M55.3-81.8c-2.2,0.1-5.5,0.5-10.4,0.9c-14.6,1.4-30.7,2.3-39.7,2.6c0,0,0,0-0.1,0
				c0.2-2.5,0.5-6.2,0.7-9.1c1.1,0,1.9-0.9,1.9-2c-0.1-2.5-0.2-5.4-0.3-6.9c-0.3-4-3.5-3.8-4,0.9C3-90.5,2.7-83,2.5-78.3
				c0,0,0,0,0,0.1c-9.3,0.3-22.3,0.5-31.6,0.1c-3.4-2.3-9.6-5.9-13.6-5c-2.8,0.6-3.8,4-0.3,5.7c3.5,1.6,11.8,1.8,15.7,1.9
				C-11.8-65.1-2-44.9,1.5-26.5c0,6.4-0.1,23.2,1.2,28.9C3.5,5.9,7.3,5.7,7.1,2C6.8-3.5,6.8-12.9,3.8-26.2
				c-0.3-16,0.3-35.1,1.3-50.9c0,0,0.1,0,0.2,0c14.5-1,27.9-2.1,39.7-2c2.6,0,8.9,0.2,11.4,0.8c0.4,0.5,0.8,0.7,1.2,0.8
				c1.9,0.3,3.3-2.4,1.3-3.6C58.2-81.6,57.1-81.8,55.3-81.8z M-42-79.7c-1.2-0.5-1-0.9-0.2-1.1c2.8-0.7,7.9,1.3,10.5,2.7
				C-34.4-78.3-39.4-78.6-42-79.7z M1.5-34.5c-5-16.2-13.6-30.5-27.2-41c8.7,0,19.3-0.7,28.1-1.4C2.1-64.8,1.7-49.8,1.5-34.5z"/>
		</g>
	</g>
</g>
<g id="g34" transform="translate(-59.852757,-114.26092)">
	<g id="g33" transform="translate(184.86983,278.56882)">
		<g id="g32">
			<path id="path31" class="st0" d="M45.1-39.1c-0.8,1.6-1.7,3.1-2.7,4.5c-3.4,4.5-7.8,5.6-11,4.6c-4.7-1.5-5.5-7.9-6.4-12.7
				c-0.7-3.7-5.6-5.1-7.4,0.4c-1.1,3.2-2.2,6.8-3.6,9.9c-3.2,6.8-7.4,5.7-8.9,1.2c-1.4-4.3-0.7-10.6,0.6-15c0.8-2.6-3.3-3.5-3.7-0.8
				C1.2-42,0.8-35.1,2.6-30.3c2.4,6.4,9,8.1,14.1-0.6c1.9-3.2,3.2-6.7,4.5-9.9c0.1-0.3,0.3-0.6,0.4-0.8c1.6,5.4,3.8,12.1,9.6,13.2
				c3.7,0.8,8.2-0.5,12.3-5.3c1.3-1.6,3.1-4,3.3-4.5C47.2-39.3,45.6-40,45.1-39.1z"/>
		</g>
	</g>
</g>
<g id="g37" transform="translate(-59.852757,-114.26092)">
	<g id="g36" transform="translate(229.2329,278.56882)">
		<g id="g35">
			<path id="path34" class="st0" d="M27.4,1.6c-1.7,0.4-3.4-1.7-4.3-3.1c-4.7-7.5-6.1-21.8-6.4-30.7c6-19.1,8.7-48.6,7.2-58.3
				c-0.9-5.9-4.4-6.8-6.9,0.1c-4.1,11.9-4.6,33.1-3.3,47c-1.2-0.8-2.5-1.2-3.3-1.3c-12.1-2-15.6,27.7-5.7,28.5
				c5.4,0.5,9-7.3,10.8-12.3c1.1,7.1,3.1,21.3,6.1,27.9c1.2,2.6,3.6,5.9,6.4,5.3C30,4.1,29.3,1.2,27.4,1.6z M19-89.8
				c1.3-5.1,2.7-4.7,3.6-0.6c2.7,12.2-1.9,39.6-6,53.1C16.5-43.7,16.6-80.2,19-89.8z M5.2-18.7c-6.8,0.3-3-24.4,4.4-22.5
				c1.9,0.4,2.6,2.3,4.3,1.4c0.3,3,0.6,4.7,0.9,7.5C13.4-28.2,9.6-18.9,5.2-18.7z"/>
		</g>
	</g>
</g>
<g id="g40" transform="translate(-59.852757,-114.26092)">
	<g id="g39" transform="translate(256.94257,278.56882)">
		<g id="g38">
			<path id="path37" class="st0" d="M20.8-39.3c-0.7,1.7-1.6,3.3-2.5,4.8C13.4-26.8,5.3-27,4.1-35.7c-0.2-1.6-0.2-3.3-0.1-5
				c1.5,1,3.4,0,3.3-1.6c0-0.8-0.6-1.4-1.2-1.7c-0.6-0.9-1.1-2.7-1.3-3.3c-0.9-1.8-3.2-1.6-3.5,0.6c-0.5,3.5-0.1,7.9,0.6,11.4
				c2.5,10.1,11.5,10,17.2,1.3c1-1.6,2.7-4.6,2.9-4.8C22.4-39.5,21.2-40,20.8-39.3z M5.3-53.4c0,1.5-0.9,2.7-2,2.7
				c-1.1,0-2-1.2-2-2.7c0-1.4,0.9-2.6,2-2.6C4.4-56,5.3-54.8,5.3-53.4z"/>
		</g>
	</g>
</g>
<g id="g43" transform="translate(-59.852757,-114.26092)">
	<g id="g42" transform="translate(276.97319,278.56882)">
		<g id="g41">
			<path id="path40" class="st0" d="M27.2-39.4c-1.6,1.4-3.6,2.3-5.6,2.4c-5.1,0.3-9.4-4.1-12.4-8.2c-0.1-0.7-0.5-1.3-1.1-1.6
				c-0.1-0.2-0.6-1-1.2-1.7c-1.6-1.7-4.7,1-2.2,3.1C2.3-42.5,1-38.4,0.9-34.8c-0.4,12.3,14.4,11.3,10.6-1.5
				c-0.5-1.5-0.9-2.9-1.4-4.4c3.5,2.7,7.1,4.8,11.6,4.5c2.4-0.1,4.4-0.9,6.4-1.7C29.4-38.5,28.1-40.3,27.2-39.4z M3.2-34.6
				c0.5-3.6,2.1-6.4,3.9-7.9c1.4,2.1,2.5,4.4,3.1,6.6C13.3-25.6,1.9-25,3.2-34.6z"/>
		</g>
	</g>
</g>
<g id="g46" transform="translate(-59.852757,-114.26092)">
	<g id="g45" transform="translate(59.799723,234.46962)">
		<g id="g44">
			<path id="path43" class="st0" d="M45.8-67c6.6-7.6,11.8-20.3,11.4-31.1c-0.8-18.7-18.5-23.2-34.5-15.3c-0.1-1-0.2-2.2-0.5-3.4
				c-0.6-2.6-3.2-2.6-3.4,0.7c-0.1,0.6-0.2,4-0.2,5.1C-5-95.9-3.1-61,18.2-55.2c-0.1,8.6-0.1,13.7-0.3,20.7
				C6.5-25.8,5.1-10.7,12.3-2.1C24,11.8,49.8,1.5,62-12C82.4-34.7,74.1-69.2,45.8-67z M18.6-109.5c-0.1,8.7,0.3,9.9-1.6,12.5
				c-1,1.3-0.2,3.2,1.5,3.4c-0.1,10.2-0.1,18.1-0.3,35.3C-0.9-61.7-4-95.1,18.6-109.5z M60.1-13.7C49.2-0.6,25.1,10.1,13.6-2.4
				c-7.3-7.9-6.4-22.2,4.3-30.8c-0.5,12.3-1.4,16.5-1.3,17.2c0.2,2.1,3.5,2,3.3-0.5c-0.6-5.9-0.8-11.8-0.9-17.7
				c12.3-8.7,34.9-6.2,38.8-6.4c1.9-0.1,1.8-2.9-0.1-2.9c-14.3,0.6-28.9,1.3-38.6,8C19-42,19.2-47.2,19.3-54.9c1.9,0.5,5.9,1,6.7,1
				c2.8-0.3,2.4-4.5-0.4-4.2c-2.1,0.2-4.2,0.2-6.3-0.1c0.1-1.2,0.3-14.7,1.1-36.3c2.7-3.7,2.5-12.7,2.2-17.3
				c13.4-6.3,31-4.1,31,13.8c-0.1,14-10.3,30.5-17,32.8c-2.5,0.8-1.6,4.9,1.7,3.9C70.1-70.6,78.7-35.7,60.1-13.7z"/>
		</g>
	</g>
</g>
</svg>
