<?xml version="1.0" encoding="UTF-8"?>
<svg id="Layer_1" data-name="Layer 1" xmlns="http://www.w3.org/2000/svg" xmlns:xlink="http://www.w3.org/1999/xlink" viewBox="0 0 726.22 616.71">
  <defs>
    <style>
      .cls-1 {
        fill: url(#linear-gradient);
      }
    </style>
    <linearGradient id="linear-gradient" x1="0" y1="250.38" x2="726.22" y2="250.38" gradientUnits="userSpaceOnUse">
      <stop offset="0" stop-color="#00d495"/>
      <stop offset=".13" stop-color="#04cc9e"/>
      <stop offset=".35" stop-color="#0fb6b7"/>
      <stop offset=".57" stop-color="#1e9cd7"/>
      <stop offset=".87" stop-color="#0075be"/>
      <stop offset=".99" stop-color="#005b97"/>
    </linearGradient>
  </defs>
  <path class="cls-1" d="M475.85,0l-112.73,112.73L250.38,0,0,250.37l250.38,250.38,112.74-112.73,112.73,112.73,250.37-250.38L475.85,0ZM250.38,475.84L24.91,250.37,250.38,24.91l100.28,100.28-125.19,125.18,125.19,125.19-100.28,100.28ZM363.12,137.64l112.73,112.73-112.73,112.74-112.74-112.74,112.74-112.73ZM375.57,375.56l125.19-125.19-125.19-125.18,100.28-100.28,225.46,225.46-225.46,225.47-100.28-100.28Z"/>
  <g>
    <path d="M124.81,568.51c0-.13-.07.77-.2,2.7-.27,3.87-.4,7.6-.4,11.2,0,.4.07,1.22.2,2.45.13,1.23.2,2.72.2,4.45v.9c0,.87-.27,1.3-.8,1.3s-1-.5-1.4-1.5c-.93-2.2-1.87-3.63-2.8-4.3-4.8,4.2-10.57,6.3-17.3,6.3-9.8,0-17.92-3.42-24.35-10.25-6.43-6.83-9.65-15.45-9.65-25.85s2.95-19.02,8.85-25.65c5.9-6.63,13.52-9.95,22.85-9.95,3.4,0,6.12.28,8.15.85,2.03.57,4.55,1.72,7.55,3.45,1.47.87,2.57,1.3,3.3,1.3.6,0,1.17-.53,1.7-1.6.87-1.87,1.57-2.8,2.1-2.8s.8.27.8.8c0,.27-.07.7-.2,1.3-.73,3.2-1.1,9.2-1.1,18,0,1.27-.1,2-.3,2.2-.2.2-.47.3-.8.3-.67,0-1.1-.63-1.3-1.9-.87-5.33-2.1-9.3-3.7-11.9-3.27-5.33-8.4-8-15.4-8-5.4,0-9.67,1.8-12.8,5.4-5.67,6.47-8.5,15.93-8.5,28.4,0,11.13,2.33,19.77,7,25.9,4.07,5.33,9.47,8,16.2,8,3.47,0,6.63-.85,9.5-2.55,2.87-1.7,5.07-4.02,6.6-6.95,1.73-3.4,2.97-7.1,3.7-11.1.27-1.6.7-2.4,1.3-2.4.67,0,1,.5,1,1.5Z"/>
    <path d="M174.21,569.21c0,6.47-1.97,11.88-5.9,16.25-3.93,4.37-8.83,6.55-14.7,6.55s-11.13-2.18-15.2-6.55c-4.07-4.37-6.1-9.78-6.1-16.25s1.98-12.2,5.95-16.6c3.97-4.4,8.92-6.6,14.85-6.6s11.02,2.22,15.05,6.65c4.03,4.43,6.05,9.95,6.05,16.55ZM165.11,569.11c0-7.33-1.13-13.03-3.4-17.1-1.67-3-4.47-4.5-8.4-4.5s-6.65,1.92-8.75,5.75c-2.1,3.83-3.15,9.15-3.15,15.95s1.12,11.98,3.35,15.75c2.23,3.77,5.35,5.65,9.35,5.65,3.07,0,5.33-1.17,6.8-3.5,2.8-4.4,4.2-10.4,4.2-18Z"/>
    <path d="M247.51,590.27c0,.5-.57.75-1.7.75h-18c-.87,0-1.3-.22-1.3-.65,0-.5.37-.75,1.1-.75h3.3c1-.07,1.58-.3,1.75-.7.17-.4.25-1.8.25-4.21v-24.86c0-3.88-.51-6.63-1.54-8.27-1.03-1.64-2.76-2.46-5.21-2.46-1.72,0-3.33.52-4.82,1.55-1.49,1.04-2.53,2.35-3.13,3.95-.27,1-.4,4.7-.4,11.1v18.9c0,2.2.03,3.47.1,3.8.2.8.79,1.2,1.77,1.2h2.85c.85,0,1.28.25,1.28.75,0,.44-.5.65-1.5.65h-18c-.8,0-1.2-.27-1.2-.8,0-.33.2-.53.6-.6.4-.07,1.73-.1,4-.1,1.07-.07,1.63-.4,1.7-1l.1-1.4v-27.83c0-3.86-.48-6.52-1.44-7.98-.96-1.46-2.67-2.2-5.12-2.2s-4.49.77-6.11,2.3c-1.62,1.53-2.43,3.46-2.43,5.78v28.33c0,2,.15,3.18.44,3.54.3.37,1.26.55,2.9.55h.79c.39-.07.75-.1,1.08-.1.72,0,1.08.27,1.08.8,0,.47-.43.7-1.3.7h-1c-1.6-.07-4.1-.07-7.5,0h-9.8c-.93,0-1.4-.27-1.4-.8,0-.47.43-.7,1.3-.7,2.53,0,4-.12,4.4-.35.4-.23.63-.65.7-1.25v-25.93c0-4.99-.1-7.91-.3-8.78-.2-.86-1.17-1.3-2.9-1.3h-3.3c-.87,0-1.3-.23-1.3-.7,0-.4.15-.63.45-.7.3-.07,1.39-.17,3.26-.3,1.53-.07,3.45-.47,5.76-1.2,2.3-.73,3.62-1.37,3.96-1.9.73-.73,1.27-1.1,1.6-1.1s.53.27.6.8c.07.53.13,2.4.2,5.6,2.67-4.27,6.78-6.4,12.32-6.4,5.94,0,9.55,2.23,10.82,6.7,2.6-4.47,6.78-6.7,12.52-6.7,4.94,0,8.28,1.77,10.02,5.3.93,1.87,1.4,4.97,1.4,9.3v24.7c0,2.27.11,3.52.34,3.75.23.23,1.26.42,3.1.55h1.77c.72-.07,1.08.15,1.08.65Z"/>
    <path d="M293.41,568.61c0,6.67-1.89,12.23-5.67,16.7-3.78,4.47-8.48,6.7-14.1,6.7-4.42,0-7.83-1.6-10.23-4.8v23.3c0,1.47.05,2.33.15,2.6.1.27.42.5.96.7,1.01.2,2.97.3,5.87.3.81,0,1.21.3,1.21.9,0,.47-.43.7-1.3.7h-19.6c-1.93,0-2.9-.25-2.9-.74,0-.64.4-.96,1.2-.96h3c1.93,0,2.97-.43,3.1-1.3.07-.4.1-3.47.1-9.2v-49.8c0-1.87-.9-2.73-2.7-2.6h-4.2c-.6,0-.9-.25-.9-.74,0-.64.73-.96,2.2-.96,3.67.07,7-.8,10-2.6.87-.53,1.53-.8,2-.8.53,0,.88.25,1.05.75.17.5.28,2.02.35,4.55,2.47-3.53,6-5.3,10.6-5.3,5.8,0,10.55,2.12,14.25,6.35,3.7,4.23,5.55,9.65,5.55,16.25ZM284.51,568.66c0-5.21-.8-9.66-2.41-13.33-2.14-5.08-5.46-7.62-9.95-7.62-2.35,0-4.35.82-6.03,2.46-1.67,1.64-2.58,3.62-2.71,5.96-.13,2.94-.1,9.12.1,18.54.07,4.74.17,7.6.3,8.57.13.97.57,1.95,1.31,2.96,1.94,2.74,4.45,4.11,7.54,4.11,3.48,0,6.1-1.47,7.84-4.41,2.68-4.48,4.02-10.22,4.02-17.24Z"/>
    <path d="M339.31,586.31c0,1.13-1.18,2.32-3.53,3.55-2.35,1.23-4.63,1.85-6.81,1.85-4.58,0-6.97-2.37-7.16-7.1-2.52,4.93-6.43,7.4-11.74,7.4-2.85,0-5.21-.85-7.06-2.55-1.86-1.7-2.79-3.88-2.79-6.55,0-5.46,3.27-9.8,9.81-13,2.25-1.07,6.14-2.13,11.69-3.2v-2.5c0-5.87-.3-9.73-.9-11.6-1.07-3.4-3.47-5.1-7.2-5.1-2.33,0-4.28.63-5.85,1.9-1.57,1.27-2.35,2.87-2.35,4.8,0,.53.41.8,1.22.8s1.55.4,2.2,1.2c.65.8.98,1.7.98,2.7,0,2.93-1.45,4.4-4.35,4.4-1.52,0-2.77-.52-3.76-1.55-.99-1.03-1.48-2.35-1.48-3.95,0-3.13,1.23-5.83,3.7-8.1,2.73-2.47,6.53-3.7,11.4-3.7,7.33,0,11.83,2,13.5,6,.6,1.53.9,4.57.9,9.1v18.7c0,3.07.03,4.87.1,5.4.33,2.4,1.3,3.6,2.9,3.6,1.87,0,3.4-.67,4.6-2,.67-.73,1.17-1.1,1.5-1.1s.5.2.5.6ZM321.71,575.71v-7.3c-4.93,1.13-8.46,2.62-10.6,4.45-2.14,1.83-3.2,4.28-3.2,7.35,0,2.13.61,3.88,1.82,5.25,1.22,1.37,2.74,2.05,4.58,2.05,2.83,0,5.09-1.6,6.8-4.8.39-.73.59-3.07.59-7Z"/>
    <path d="M384.61,590.27c0,.5-.5.75-1.5.75h-18.4c-.87,0-1.3-.23-1.3-.7,0-.33.18-.53.55-.6.37-.07,1.65-.13,3.85-.2,1.27-.07,2-.25,2.2-.55.2-.3.3-1.38.3-3.24v-19.15c0-7.25-.27-11.57-.8-12.97-1.13-2.99-3.4-4.49-6.8-4.49s-6.13,1.46-8.4,4.39c-.67.87-1,2.06-1,3.59v31.12c0,.8.71,1.23,2.13,1.3l3.05.1c.68,0,1.02.23,1.02.7s-.4.7-1.2.7h-18.2c-1,0-1.5-.2-1.5-.61s.6-.67,1.8-.79h2.5c1,0,1.6-.23,1.8-.7l.3-1.5v-21.74c0-7.58-.07-11.77-.2-12.57-.13-.8-.97-1.2-2.5-1.2h-2.9c-1.33,0-2-.25-2-.74,0-.64.7-.96,2.1-.96,2-.07,4.17-.43,6.5-1.1,2.33-.67,3.97-1.43,4.9-2.3.6-.53,1.07-.8,1.4-.8.47,0,.7.63.7,1.9v4.8c3.47-4.47,7.93-6.7,13.4-6.7,4.8,0,8.27,1.77,10.4,5.3,1.2,2,1.8,5.8,1.8,11.4v22.8c0,2.13.1,3.3.3,3.5.4.4,1.37.6,2.9.6h1.8c.67,0,1,.22,1,.65Z"/>
    <path d="M427.51,547.83c0,.48-.8.75-2.4.82-1.6.07-2.62.21-3.05.41-.43.2-.82.78-1.15,1.73l-.7,1.83-.8,2.5c-.93,3.07-2.33,7.63-4.2,13.7-5.27,16.93-9.63,30.07-13.1,39.4-2.13,5.67-5.07,8.5-8.8,8.5-1.6,0-2.92-.47-3.95-1.4-1.03-.93-1.55-2.13-1.55-3.6,0-1.27.42-2.3,1.25-3.1.83-.8,1.92-1.2,3.25-1.2,1.8,0,3.1.73,3.9,2.2.6,1.13,1.1,1.7,1.5,1.7.6,0,1.53-1.63,2.8-4.9,1.87-4.87,3.33-9.23,4.4-13.1-4.93-12.93-9.13-24.23-12.6-33.9-2.4-6.6-3.73-9.93-4-10-.4-.33-1.48-.5-3.25-.5s-2.65-.33-2.65-1c0-.53.43-.8,1.3-.8.73,0,1.87.07,3.4.2,1.53.13,2.7.2,3.5.2h1.8c1.4-.09,3.33-.18,5.8-.27l5.1-.13c.73,0,1.1.28,1.1.85,0,.5-1.23.78-3.7.85-2.07.07-3.1.39-3.1.98,0,.53.68,2.56,2.04,6.1.53,1.54,1.09,3.14,1.68,4.81l1.75,4.98c.46,1.47,1.66,4.81,3.62,10.03.69,1.6,1.44,3.54,2.27,5.81,6.39-20.07,9.59-30.6,9.59-31.6,0-.6-.25-.97-.75-1.1-.5-.13-1.93-.2-4.28-.2-.67,0-1.01-.27-1.01-.8,0-.47.4-.7,1.2-.7.33,0,.6.05.8.13,2.27.18,4.13.27,5.6.27h2.8c1.2,0,1.98-.07,2.35-.2.37-.13.82-.2,1.35-.2.6,0,.9.24.9.71Z"/>
    <path d="M508.01,522.31c0,.67-.83.97-2.5.9h-4c-1.07,0-1.7.18-1.9.55-.2.37-.3,1.48-.3,3.34v57.52c0,3.53-.03,5.59-.1,6.19-.07.6-.27.9-.6.9-.4,0-.86-.37-1.4-1.11l-12.78-18.71c-7.41-10.92-16.42-24.54-27.03-40.88v56c.07.87.57,1.42,1.52,1.66.94.23,3.2.39,6.77.45.88,0,1.31.27,1.31.8,0,.67-.87,1-2.6,1-.6,0-2.5-.1-5.7-.3-1.07-.07-2.1-.1-3.1-.1.07,0-.52.07-1.75.2-1.23.13-3.12.2-5.65.2h-1c-1.53,0-2.3-.3-2.3-.9s.67-.9,2-.9c3.93-.07,6.22-.32,6.85-.75.63-.43.95-1.85.95-4.26v-49.37c0-5.54-1.13-9.01-3.4-10.42-1.07-.67-2.97-1-5.7-1-1.73,0-2.6-.35-2.6-1.05,0-.63.5-.95,1.5-.95,1.33,0,3.03.07,5.1.2,2.07.13,3.17.2,3.3.2.2,0,1.13-.03,2.8-.1,2.2,0,4.33-.1,6.4-.3l34.5,51.5v-44.5c0-2.07-.04-3.32-.1-3.75-.07-.43-.33-.77-.8-1-.47-.23-2.07-.35-4.8-.35-2.4,0-3.6-.3-3.6-.9,0-.67.8-1,2.4-1h16.1c1.47,0,2.2.33,2.2,1Z"/>
    <path d="M552.21,586.31c0,1.13-1.18,2.32-3.53,3.55-2.35,1.23-4.63,1.85-6.81,1.85-4.58,0-6.96-2.37-7.16-7.1-2.52,4.93-6.43,7.4-11.74,7.4-2.85,0-5.21-.85-7.06-2.55-1.86-1.7-2.79-3.88-2.79-6.55,0-5.46,3.27-9.8,9.81-13,2.25-1.07,6.14-2.13,11.69-3.2v-2.5c0-5.87-.3-9.73-.9-11.6-1.07-3.4-3.47-5.1-7.2-5.1-2.33,0-4.28.63-5.85,1.9-1.57,1.27-2.35,2.87-2.35,4.8,0,.53.41.8,1.22.8s1.55.4,2.2,1.2c.65.8.98,1.7.98,2.7,0,2.93-1.45,4.4-4.36,4.4-1.52,0-2.77-.52-3.76-1.55-.99-1.03-1.48-2.35-1.48-3.95,0-3.13,1.23-5.83,3.7-8.1,2.73-2.47,6.53-3.7,11.4-3.7,7.33,0,11.83,2,13.5,6,.6,1.53.9,4.57.9,9.1v18.7c0,3.07.03,4.87.1,5.4.33,2.4,1.3,3.6,2.9,3.6,1.87,0,3.4-.67,4.6-2,.67-.73,1.17-1.1,1.5-1.1s.5.2.5.6ZM534.61,575.71v-7.3c-4.93,1.13-8.46,2.62-10.6,4.45-2.14,1.83-3.2,4.28-3.2,7.35,0,2.13.61,3.88,1.82,5.25,1.22,1.37,2.74,2.05,4.58,2.05,2.82,0,5.09-1.6,6.8-4.8.39-.73.59-3.07.59-7Z"/>
    <path d="M619.31,590.27c0,.5-.57.75-1.7.75h-18c-.87,0-1.3-.22-1.3-.65,0-.5.37-.75,1.1-.75h3.3c1-.07,1.58-.3,1.75-.7.17-.4.25-1.8.25-4.21v-24.86c0-3.88-.51-6.63-1.54-8.27-1.03-1.64-2.76-2.46-5.21-2.46-1.72,0-3.33.52-4.82,1.55-1.49,1.04-2.53,2.35-3.13,3.95-.27,1-.4,4.7-.4,11.1v18.9c0,2.2.03,3.47.1,3.8.2.8.79,1.2,1.77,1.2h2.85c.85,0,1.28.25,1.28.75,0,.44-.5.65-1.5.65h-18c-.8,0-1.2-.27-1.2-.8,0-.33.2-.53.6-.6.4-.07,1.73-.1,4-.1,1.07-.07,1.63-.4,1.7-1l.1-1.4v-27.83c0-3.86-.48-6.52-1.44-7.98-.96-1.46-2.67-2.2-5.12-2.2s-4.49.77-6.11,2.3c-1.62,1.53-2.43,3.46-2.43,5.78v28.33c0,2,.15,3.18.44,3.54.29.37,1.26.55,2.9.55h.79c.39-.07.75-.1,1.08-.1.72,0,1.08.27,1.08.8,0,.47-.43.7-1.3.7h-1c-1.6-.07-4.1-.07-7.5,0h-9.8c-.93,0-1.4-.27-1.4-.8,0-.47.43-.7,1.3-.7,2.53,0,4-.12,4.4-.35.4-.23.63-.65.7-1.25v-25.93c0-4.99-.1-7.91-.3-8.78-.2-.86-1.17-1.3-2.9-1.3h-3.3c-.87,0-1.3-.23-1.3-.7,0-.4.15-.63.45-.7.3-.07,1.39-.17,3.26-.3,1.53-.07,3.45-.47,5.76-1.2,2.3-.73,3.62-1.37,3.96-1.9.73-.73,1.27-1.1,1.6-1.1s.54.27.6.8c.07.53.13,2.4.2,5.6,2.67-4.27,6.78-6.4,12.32-6.4,5.94,0,9.55,2.23,10.82,6.7,2.6-4.47,6.78-6.7,12.52-6.7,4.94,0,8.28,1.77,10.02,5.3.93,1.87,1.4,4.97,1.4,9.3v24.7c0,2.27.11,3.52.34,3.75.23.23,1.26.42,3.1.55h1.77c.72-.07,1.08.15,1.08.65Z"/>
    <path d="M659.71,579.91c0,.67-.52,1.85-1.55,3.55-1.03,1.7-2.08,3.08-3.15,4.15-2.87,2.93-6.7,4.4-11.5,4.4-6,0-11.02-2.17-15.05-6.5-4.04-4.33-6.05-9.7-6.05-16.1s1.92-12.23,5.75-16.7c3.83-4.47,8.62-6.7,14.35-6.7,4.73,0,8.7,1.38,11.9,4.15,3.2,2.77,4.9,6.32,5.1,10.65-2.13.33-4.97.47-8.5.4h-7c-.47,0-4.47.1-12,.3-.33,2.19-.5,4.29-.5,6.28,0,6.71,1.28,11.87,3.85,15.49,2.57,3.62,6.18,5.43,10.85,5.43,2.67,0,4.8-.6,6.4-1.8,1.6-1.2,3.33-3.5,5.2-6.9.27-.53.63-.8,1.1-.8.53,0,.8.23.8.7ZM651,559.51c-.27-8-3.13-12-8.6-12s-8.77,4-10.1,12h18.7Z"/>
  </g>
</svg>